<svg width="22" height="27" viewBox="0 0 22 27" fill="none" xmlns="http://www.w3.org/2000/svg">
<path d="M14.533 15.9855C14.374 15.9327 13.369 15.4727 13.997 13.5344H13.988C15.625 11.8226 16.876 9.06798 16.876 6.35601C16.876 2.18602 14.145 0 10.971 0C7.795 0 5.079 2.18501 5.079 6.35601C5.079 9.07915 6.323 11.8449 7.97 13.5527C8.612 15.2625 7.464 15.8971 7.224 15.9865C3.9 17.2069 0 19.4315 0 21.6277V22.4511C0 25.4433 5.714 26.1236 11.002 26.1236C16.298 26.1236 21.94 25.4433 21.94 22.4511V21.6277C21.94 19.3655 18.021 17.1582 14.533 15.9855Z" fill="#A3A3A3"/>
</svg>
