<svg width="20" height="21" viewBox="0 0 20 21" fill="none" xmlns="http://www.w3.org/2000/svg">
<path d="M6.66582 14.4319L4.94362 12.6826C4.71166 12.4499 4.41819 12.2906 4.09883 12.2241C3.77947 12.1575 3.44796 12.1866 3.14454 12.3077L1.04562 13.1589C0.739002 13.2854 0.476088 13.5011 0.290012 13.7791C0.103937 14.057 0.00302696 14.3847 0 14.7208V18.6256C0.00178528 18.8542 0.0491028 19.0801 0.139109 19.2897C0.229113 19.4993 0.359941 19.6882 0.523716 19.845C0.68749 20.0019 0.880825 20.1235 1.09208 20.2025C1.30333 20.2814 1.52813 20.3162 1.75295 20.3046C16.4608 19.3753 19.4285 6.72396 19.9898 1.88211C20.0158 1.64434 19.992 1.40366 19.9199 1.17591C19.8478 0.948154 19.7291 0.738487 19.5715 0.5607C19.4139 0.382913 19.221 0.241035 19.0055 0.1444C18.7901 0.0477654 18.5569 -0.00143628 18.3214 3.19164e-05H14.6079C14.2765 0.00102823 13.953 0.102701 13.679 0.291972C13.405 0.481243 13.193 0.749457 13.0702 1.06212L12.2322 3.19409C12.109 3.50106 12.0776 3.83809 12.1418 4.1631C12.2061 4.4881 12.3632 4.78667 12.5935 5.0215L14.3157 6.77082C14.3157 6.77082 13.3239 13.5885 6.66582 14.4319Z" fill="#A3A3A3"/>
</svg>
