<svg  viewBox="0 0 25 19" fill="none" xmlns="http://www.w3.org/2000/svg">
<path d="M12.7786 9.73389L0.790283 3.66357V2.23389C0.790283 1.81201 0.938576 1.45654 1.23516 1.16748C1.53175 0.878418 1.88297 0.733887 2.28882 0.733887H23.2683C23.6742 0.733887 24.0254 0.878418 24.322 1.16748C24.6186 1.45654 24.7669 1.81201 24.7669 2.23389V3.66357L12.7786 9.73389ZM12.0293 11.2339H13.5278L24.7669 5.39795V17.2339C24.7669 17.6401 24.6186 17.9917 24.322 18.2886C24.0254 18.5854 23.6742 18.7339 23.2683 18.7339H2.28882C1.88297 18.7339 1.53175 18.5854 1.23516 18.2886C0.938576 17.9917 0.790283 17.6401 0.790283 17.2339V5.39795L12.0293 11.2339Z" fill="white"/>
</svg>
