<svg viewBox="0 0 17 17" fill="none" xmlns="http://www.w3.org/2000/svg">
<path d="M8.5 0.601074C10.8095 0.601074 11.0976 0.609185 12.0037 0.649739C12.9089 0.690293 13.5252 0.825744 14.0675 1.02689C14.6285 1.23291 15.1011 1.51192 15.5737 1.96207C16.0059 2.36752 16.3404 2.85798 16.5538 3.3993C16.7637 3.91596 16.9065 4.50481 16.949 5.36861C16.989 6.23322 17 6.50818 17 8.71188C17 10.9156 16.9915 11.1905 16.949 12.0552C16.9065 12.919 16.7637 13.507 16.5538 14.0245C16.341 14.5661 16.0065 15.0567 15.5737 15.4617C15.1487 15.874 14.6347 16.1931 14.0675 16.3969C13.526 16.5972 12.9089 16.7335 12.0037 16.774C11.0976 16.8121 10.8095 16.8227 8.5 16.8227C6.19055 16.8227 5.9024 16.8146 4.9963 16.774C4.09105 16.7335 3.4748 16.5972 2.9325 16.3969C2.36498 16.1937 1.8509 15.8745 1.4263 15.4617C0.993995 15.0563 0.659542 14.5658 0.44625 14.0245C0.23545 13.5078 0.0935 12.919 0.051 12.0552C0.01105 11.1905 0 10.9156 0 8.71188C0 6.50818 0.00849995 6.23322 0.051 5.36861C0.0935 4.504 0.23545 3.91677 0.44625 3.3993C0.658951 2.85765 0.993483 2.36706 1.4263 1.96207C1.85102 1.54942 2.36506 1.23025 2.9325 1.02689C3.4748 0.825744 4.0902 0.690293 4.9963 0.649739C5.9024 0.611618 6.19055 0.601074 8.5 0.601074ZM8.5 4.65648C7.37283 4.65648 6.29183 5.08374 5.4948 5.84428C4.69777 6.60482 4.25 7.63632 4.25 8.71188C4.25 9.78744 4.69777 10.819 5.4948 11.5795C6.29183 12.34 7.37283 12.7673 8.5 12.7673C9.62717 12.7673 10.7082 12.34 11.5052 11.5795C12.3022 10.819 12.75 9.78744 12.75 8.71188C12.75 7.63632 12.3022 6.60482 11.5052 5.84428C10.7082 5.08374 9.62717 4.65648 8.5 4.65648ZM14.025 4.45371C14.025 4.18482 13.9131 3.92694 13.7138 3.73681C13.5145 3.54667 13.2443 3.43986 12.9625 3.43986C12.6807 3.43986 12.4105 3.54667 12.2112 3.73681C12.0119 3.92694 11.9 4.18482 11.9 4.45371C11.9 4.7226 12.0119 4.98048 12.2112 5.17061C12.4105 5.36074 12.6807 5.46756 12.9625 5.46756C13.2443 5.46756 13.5145 5.36074 13.7138 5.17061C13.9131 4.98048 14.025 4.7226 14.025 4.45371ZM8.5 6.27864C9.1763 6.27864 9.82491 6.535 10.3031 6.99132C10.7813 7.44764 11.05 8.06655 11.05 8.71188C11.05 9.35722 10.7813 9.97612 10.3031 10.4324C9.82491 10.8888 9.1763 11.1451 8.5 11.1451C7.8237 11.1451 7.1751 10.8888 6.69688 10.4324C6.21866 9.97612 5.95 9.35722 5.95 8.71188C5.95 8.06655 6.21866 7.44764 6.69688 6.99132C7.1751 6.535 7.8237 6.27864 8.5 6.27864Z" fill="white"/>
</svg>
