<svg  viewBox="0 0 24 15" fill="none" xmlns="http://www.w3.org/2000/svg">
<path fill-rule="evenodd" clip-rule="evenodd" d="M23.45 1.60148C23.616 1.04126 23.45 0.628784 22.655 0.628784H20.03C19.362 0.628784 19.054 0.984823 18.887 1.3778C18.887 1.3778 17.552 4.65705 15.661 6.78713C15.049 7.40481 14.771 7.60079 14.437 7.60079C14.27 7.60079 14.019 7.40481 14.019 6.84356V1.60148C14.019 0.92839 13.835 0.628784 13.279 0.628784H9.151C8.734 0.628784 8.483 0.940703 8.483 1.23723C8.483 1.87441 9.429 2.02216 9.526 3.81569V7.71263C9.526 8.56732 9.373 8.72226 9.039 8.72226C8.149 8.72226 5.984 5.42761 4.699 1.65791C4.45 0.924286 4.198 0.628784 3.527 0.628784H0.9C0.15 0.628784 0 0.984823 0 1.3778C0 2.07757 0.89 5.55382 4.145 10.1515C6.315 13.2913 9.37 14.9935 12.153 14.9935C13.822 14.9935 14.028 14.6159 14.028 13.9643V11.5911C14.028 10.8349 14.186 10.6841 14.715 10.6841C15.105 10.6841 15.772 10.8811 17.33 12.3945C19.11 14.189 19.403 14.9935 20.405 14.9935H23.03C23.78 14.9935 24.156 14.6159 23.94 13.8689C23.702 13.1261 22.852 12.0477 21.725 10.7682C21.113 10.0397 20.195 9.25478 19.916 8.8618C19.527 8.35801 19.638 8.13331 19.916 7.68492C19.916 7.68492 23.116 3.14363 23.449 1.60148H23.45Z" fill="white"/>
</svg>
