<svg fill="none" width="511" height="511" viewBox="0 0 511 423" xmlns="http://www.w3.org/2000/svg">
<style>
.nonMainGearSvg{
    animation:spin  120s linear 0s normal none infinite running;
    -webkit-animation:spin  120s linear 0s normal none infinite running;
    -moz-animation:spin  120s linear 0s normal none infinite running;
    transform-origin: 49% 49%;
    transform-box: fill-box;
}
 @keyframes spin{

    from{
        transform: rotate(0deg);
        -webkit-transform: rotate(0deg);
        -moz-transform: rotate(0deg);
        -ms-transform: rotate(0deg);
        -o-transform: rotate(0deg);
}

    to{
        transform: rotate(360deg);
        -webkit-transform: rotate(360deg);
        -moz-transform: rotate(360deg);
        -ms-transform: rotate(360deg);
        -o-transform: rotate(360deg);
}
}
</style>
<path class="nonMainGearSvg" d="M0.000771624 164.679L0.908782 204.468L0.936076 205.414C0.996567 207.744 2.06247 209.974 3.92972 211.677C5.79697 213.38 8.33466 214.436 11.0577 214.644L49.8986 217.569C50.5438 217.618 51.1616 217.706 51.759 217.842C55.9169 218.826 59.1771 221.783 59.754 225.5C63.5303 247.327 72.3884 268.29 85.8071 287.154C86.3533 287.943 86.7494 288.775 87.0191 289.614C87.5006 291.222 87.4875 292.909 86.981 294.512C86.4745 296.115 85.4916 297.58 84.1276 298.765L61.0546 318.345C59.6041 319.606 58.5879 321.184 58.1166 322.904C57.6452 324.624 57.7368 326.422 58.3816 328.101C58.8049 329.105 59.4058 330.121 60.2524 331.032L90.0742 362.715C91.8621 364.607 94.4182 365.857 97.236 366.218C100.054 366.579 102.928 366.025 105.289 364.665L141.246 344.075C142.98 343.083 145.009 342.533 147.097 342.488C149.184 342.444 151.243 342.907 153.033 343.825C168.269 351.481 184.662 357.324 201.756 361.19L201.804 361.21C204.017 361.696 206.002 362.748 207.493 364.224C208.983 365.7 209.909 367.53 210.144 369.468L214.766 406.712L215.025 408.584C215.561 413.375 220.426 417.074 226.157 416.967L273.891 416.146C279.698 416.009 284.528 412.214 285.05 407.271L288.932 370.431C289.128 368.441 290.059 366.555 291.59 365.044C293.122 363.533 295.175 362.474 297.456 362.019C317.063 357.92 335.807 351.255 353.02 342.262C355.158 341.162 357.668 340.706 360.146 340.967C362.624 341.227 364.928 342.19 366.689 343.699L393.94 366.927C395.925 368.62 398.574 369.626 401.378 369.753C404.181 369.88 406.94 369.118 409.124 367.613L446.511 342.081C448.631 340.629 450.035 338.551 450.447 336.259C450.858 333.966 450.247 331.626 448.733 329.699L420.437 293.68C419.258 292.18 418.592 290.43 418.516 288.626C418.439 286.821 418.954 285.035 420.004 283.466C427.658 272.064 433.725 259.939 438.079 247.336C439.301 243.66 442.985 240.965 447.446 240.61L500.003 235.883C502.781 235.627 505.346 234.496 507.195 232.711C509.045 230.926 510.044 228.615 509.999 226.234L509.108 185.415C509.038 183.323 508.165 181.308 506.624 179.68C505.082 178.052 502.957 176.9 500.573 176.4C500.075 176.304 499.529 176.194 498.986 176.182L451.024 172.544C446.565 172.224 442.756 169.717 441.384 166.105C441.25 165.791 441.117 165.482 441.059 165.145C440.806 164.158 440.581 163.235 440.206 162.255C436.963 150.75 432.281 139.577 426.24 128.925C424.155 125.388 425.063 121.069 428.435 118.251L457.247 93.6735C461.34 90.2069 461.668 84.6126 458.039 80.7764L451.42 73.718L428.248 49.1549C424.643 45.275 418.14 44.4571 413.279 47.1989L377.858 67.4833C374.09 69.6751 369.167 69.5383 365.463 67.2796C348.105 56.6656 328.832 48.5379 308.403 43.2171L307.451 35.3991L303.46 3.33237C303.244 1.42018 302.332 -0.38642 300.851 -1.8343C299.37 -3.28219 297.395 -4.29886 295.203 -4.74186C294.271 -4.94317 293.309 -5.02749 292.349 -4.99217L244.298 -4.24701C238.614 -4.11894 233.978 -0.343843 233.429 4.42965L230.831 29.6098C230.387 33.8535 226.54 37.422 221.59 38.106C201.143 40.8907 181.344 46.4227 162.929 54.4959C158.584 56.4082 153.395 55.7476 150.118 52.834L115.667 23.4654C113.791 21.8836 111.299 20.9444 108.665 20.8264C106.03 20.7083 103.437 21.4196 101.377 22.8251L63.6286 48.6863C59.1464 51.7367 58.1735 57.1796 61.3619 61.1527L90.8151 98.6188C93.3822 101.829 93.3378 106.021 90.7639 109.263C85.261 116.179 80.3897 123.598 76.0782 131.457C73.775 135.644 71.6773 139.911 69.7903 144.246C69.0632 145.897 67.8162 147.346 66.1865 148.432C64.5568 149.518 62.6076 150.2 60.5528 150.402L10.1702 154.949C7.35741 155.198 4.75511 156.333 2.87378 158.134C0.992438 159.934 -0.0321984 162.268 0.000771624 164.679ZM196.755 277.313C185.746 271.582 175.427 263.939 166.179 254.223C164.185 252.182 162.257 249.7 160.372 247.019C152.425 235.379 146.526 219.353 146.322 207.62C144.915 117.864 267.115 78.963 334.877 145.981C335.972 147.093 337.072 148.205 338.147 149.363C348.241 160.089 356.741 180.272 357.13 194.001C357.324 200.9 356.764 207.799 355.458 214.609C342.438 279.746 259.489 309.927 196.755 277.313Z" fill="#14E1B7" fill-opacity="0.2"/>
</svg>

