<svg width="779" height="779" viewBox="0 0 779 643" fill="none" xmlns="http://www.w3.org/2000/svg">
<style>
.nonMainGearSvg{
    animation:spin  120s linear 0s normal none infinite running;
    -webkit-animation:spin  120s linear 0s normal none infinite running;
    -moz-animation:spin  120s linear 0s normal none infinite running;
    transform-origin: 49% 49%;
    transform-box: fill-box;
}
 @keyframes spin{

    from{
        transform: rotate(0deg);
        -webkit-transform: rotate(0deg);
        -moz-transform: rotate(0deg);
        -ms-transform: rotate(0deg);
        -o-transform: rotate(0deg);
}

    to{
        transform: rotate(360deg);
        -webkit-transform: rotate(360deg);
        -moz-transform: rotate(360deg);
        -ms-transform: rotate(360deg);
        -o-transform: rotate(360deg);
}
}
</style>
<path class="nonMainGearSvg" d="M0.64824 321.471L15.3191 380.198L15.6784 381.591C16.5473 385.031 18.8717 388.079 22.2113 390.159C25.551 392.24 29.6741 393.207 33.8001 392.878L92.4547 388.037C93.4294 387.959 94.3811 387.944 95.3143 388.005C101.817 388.478 107.646 392.089 109.746 397.46C122.68 428.918 142.852 457.872 169.088 482.64C170.164 483.677 171.03 484.819 171.712 485.998C172.966 488.26 173.512 490.758 173.297 493.252C173.083 495.746 172.115 498.152 170.488 500.237L142.775 534.691C141.045 536.913 140.065 539.494 139.942 542.154C139.818 544.814 140.556 547.451 142.075 549.778C143.046 551.16 144.274 552.525 145.836 553.674L200.729 593.566C204 595.947 208.205 597.196 212.512 597.066C216.819 596.936 220.913 595.436 223.982 592.864L270.478 553.869C272.728 551.987 275.563 550.691 278.65 550.132C281.737 549.573 284.947 549.775 287.902 550.714C313.069 558.454 339.367 563.238 366.066 564.933L366.145 564.951C369.6 565.153 372.899 566.243 375.605 568.077C378.311 569.91 380.295 572.4 381.294 575.215L400.635 629.294L401.642 632.007C402.837 635.4 405.486 638.287 409.067 640.1C412.649 641.912 416.901 642.517 420.986 641.796L491.591 629.306C495.745 628.555 499.429 626.53 501.938 623.618C504.447 620.706 505.605 617.112 505.189 613.524L498.617 558.034C498.237 555.048 498.986 552.037 500.754 549.435C502.523 546.832 505.219 544.775 508.455 543.559C536.189 532.862 561.795 518.56 584.349 501.168C590.137 496.797 598.656 496.303 605.132 500.072L653.376 528.042C656.87 530.083 661.133 530.95 665.34 530.476C669.547 530.001 673.399 528.218 676.15 525.472L723.123 478.823C725.784 476.154 727.173 472.738 727.016 469.246C726.859 465.754 725.167 462.44 722.274 459.956L668.193 413.28C665.939 411.344 664.366 408.913 663.648 406.259C662.931 403.606 663.098 400.834 664.131 398.255C671.686 379.542 676.632 360.144 678.868 340.457C679.126 337.665 680.379 335.004 682.46 332.83C684.542 330.655 687.353 329.07 690.52 328.284L766.985 308.867C771.026 307.833 774.463 305.547 776.614 302.464C778.766 299.38 779.474 295.723 778.599 292.219L763.603 231.956C762.799 228.873 760.832 226.098 758.001 224.052C755.17 222.006 751.629 220.801 747.916 220.621C747.14 220.596 746.293 220.556 745.483 220.674L673.044 226.604C669.76 226.905 666.446 226.377 663.516 225.087C660.585 223.796 658.169 221.8 656.569 219.348C656.267 218.91 655.963 218.488 655.767 218C655.058 216.599 654.417 215.282 653.532 213.922C644.86 197.639 634.164 182.192 621.626 167.843C617.341 163.099 617.244 156.485 621.314 151.513L655.87 108.304C660.783 102.198 659.397 93.8349 652.716 89.0064L640.528 80.1163L597.892 49.1972C594.68 46.8478 590.544 45.61 586.305 45.7294C582.066 45.8489 578.033 47.3169 575.005 49.8421L529.202 88.2545C524.341 92.3937 516.983 93.3468 510.728 90.8779C493.992 84.2433 476.565 78.942 458.672 75.042C445.287 72.1177 431.674 70.0009 417.936 68.7077L413.902 57.3485L397.239 10.7899C396.276 8.00766 394.318 5.54952 391.636 3.75614C388.953 1.96276 385.679 0.922937 382.268 0.780755C380.82 0.70374 379.366 0.805214 377.952 1.08192L306.842 13.5367C298.448 15.0675 292.829 21.7534 293.611 28.956L298.185 66.8654C298.946 73.2659 294.432 79.4567 287.307 81.6342C257.891 90.5842 230.338 103.46 205.688 119.775C199.877 123.629 191.949 123.874 186.107 120.334L125.114 84.9667C121.817 83.0645 117.81 82.2604 113.856 82.7076C109.902 83.1548 106.279 84.8221 103.678 87.3914L56.2834 134.618C53.5715 137.29 52.1481 140.733 52.2986 144.257C52.4491 147.78 54.1623 151.124 57.0948 153.617L113.375 202.167C115.757 204.193 117.364 206.782 117.988 209.597C118.611 212.411 118.222 215.321 116.871 217.947C110.951 229.719 106.143 241.872 102.492 254.291C100.475 261.038 98.7904 267.853 97.4423 274.719C96.9188 277.333 95.552 279.773 93.4936 281.768C91.4352 283.763 88.7661 285.235 85.7831 286.019L12.4884 304.651C8.39387 305.688 4.90495 307.991 2.71229 311.106C0.519628 314.22 -0.216981 317.919 0.64824 321.471ZM330.545 441.862C312.281 435.966 294.393 427.082 277.406 414.873C273.763 412.321 270.069 409.103 266.375 405.575C250.673 390.208 236.549 367.861 232.308 350.529C200.16 217.896 368.598 131.408 491.67 214.686C493.667 216.077 495.677 217.465 497.66 218.927C516.237 232.433 535.621 260.32 540.798 280.569C543.395 290.736 544.873 301.088 545.212 311.491C547.701 411.058 434.63 475.361 330.545 441.862Z" fill="#14E1B7" fill-opacity="0.1"/>
</svg>
