<svg fill="none" width="771" height="771" viewBox="0 0 771 771" xmlns="http://www.w3.org/2000/svg" >
<style>
 .nonMainGearSvg{
    animation:spin  120s linear 0s normal none infinite running;
    -webkit-animation:spin  120s linear 0s normal none infinite running;
    -moz-animation:spin  120s linear 0s normal none infinite running;
    transform-origin: 49% 49%;
    transform-box: fill-box;
}
 @keyframes spin{

    from{
        transform: rotate(0deg);
        -webkit-transform: rotate(0deg);
        -moz-transform: rotate(0deg);
        -ms-transform: rotate(0deg);
        -o-transform: rotate(0deg);
}

    to{
        transform: rotate(-360deg);
        -webkit-transform: rotate(-360deg);
        -moz-transform: rotate(-360deg);
        -ms-transform: rotate(-360deg);
        -o-transform: rotate(-360deg);
}
}
</style>
<path class="nonMainGearSvg" d="M0.822777 252.898L1.83681 312.931L1.87212 314.356C1.94093 317.874 3.52669 321.248 6.32915 323.839C9.1316 326.431 12.9562 328.06 17.0789 328.417L75.7243 333.338C76.6982 333.423 77.6353 333.565 78.5368 333.779C84.8089 335.315 89.7042 339.819 90.5406 345.434C96.0637 378.428 109.257 410.16 129.353 438.783C130.173 439.978 130.761 441.242 131.162 442.511C131.877 444.936 131.843 447.477 131.065 449.888C130.287 452.3 128.789 454.5 126.718 456.278L91.6817 485.51C89.4784 487.403 87.9288 489.774 87.2016 492.363C86.4744 494.953 86.5974 497.661 87.5572 500.195C88.1954 501.711 89.0891 503.252 90.3598 504.637L135.125 552.823C137.791 555.698 141.632 557.617 145.887 558.199C150.142 558.782 154.5 557.986 158.096 555.968L212.594 525.379C215.23 523.904 218.307 523.1 221.463 523.06C224.619 523.021 227.722 523.749 230.406 525.157C253.333 536.9 278.043 545.929 303.849 551.994L303.922 552.025C307.266 552.793 310.254 554.406 312.491 556.651C314.728 558.895 316.108 561.665 316.446 564.592L323.101 620.834L323.471 623.662C323.87 627.187 325.811 630.457 328.912 632.825C332.012 635.194 336.046 636.489 340.218 636.454L412.329 635.843C416.576 635.791 420.652 634.412 423.776 631.969C426.901 629.526 428.855 626.191 429.265 622.602L435.459 567.081C435.766 564.089 437.187 561.258 439.514 558.997C441.842 556.735 444.957 555.161 448.407 554.502C478.053 548.581 506.431 538.772 532.52 525.428C539.193 522.094 547.664 523.015 553.158 527.779L594.116 563.174C597.079 565.753 601.064 567.306 605.299 567.534C609.534 567.762 613.719 566.648 617.044 564.408L673.753 526.388C676.972 524.209 679.112 521.086 679.754 517.634C680.395 514.183 679.491 510.652 677.218 507.739L634.796 453.031C633.026 450.76 632.036 448.116 631.936 445.394C631.837 442.672 632.632 439.981 634.233 437.62C645.908 420.508 655.18 402.293 661.858 383.349C662.747 380.652 664.582 378.248 667.12 376.458C669.657 374.668 672.777 373.576 676.062 373.328L755.501 366.887C759.701 366.538 763.593 364.863 766.406 362.192C769.219 359.521 770.747 356.051 770.687 352.469L769.704 290.876C769.618 287.719 768.32 284.672 766.009 282.198C763.697 279.724 760.498 277.959 756.896 277.169C756.141 277.017 755.319 276.838 754.498 276.82L682.081 270.694C678.791 270.448 675.66 269.384 673.079 267.634C670.498 265.885 668.583 263.528 667.572 260.859C667.375 260.38 667.173 259.916 667.092 259.404C666.715 257.914 666.387 256.515 665.828 255.035C661.03 237.632 654.056 220.714 645.024 204.569C641.902 199.209 643.313 192.705 648.438 188.498L692.183 151.805C698.393 146.625 698.939 138.192 693.485 132.354L683.553 121.623L648.769 84.2598C646.153 81.4253 642.378 79.5291 638.192 78.9474C634.006 78.3656 629.714 79.1407 626.169 81.1189L572.484 111.251C566.772 114.51 559.336 114.232 553.763 110.779C538.855 101.51 522.966 93.4363 506.301 86.66C493.836 81.5843 480.964 77.2632 467.78 73.7293L466.41 61.9203L460.67 13.4971C460.359 10.6089 458.998 7.87445 456.775 5.67278C454.552 3.47112 451.577 1.91121 448.263 1.20924C446.86 0.894939 445.41 0.754806 443.96 0.793087L371.361 1.28715C362.777 1.40486 355.742 7.03758 354.868 14.2325L350.719 52.1774C350.008 58.582 344.169 63.9111 336.684 64.8726C305.786 68.8027 275.823 76.8912 247.923 88.8333C241.345 91.656 233.511 90.5894 228.586 86.1528L176.807 41.3997C174.005 38.9899 170.257 37.5402 166.276 37.3271C162.296 37.1139 158.362 38.1522 155.224 40.244L97.9697 78.7609C94.7005 80.9353 92.5198 84.0783 91.8647 87.5597C91.2097 91.0411 92.1287 94.6036 94.4376 97.5333L138.591 154.442C140.466 156.822 141.453 159.627 141.423 162.492C141.394 165.356 140.349 168.146 138.425 170.499C129.935 181.073 122.45 192.202 116.04 203.783C112.524 210.07 109.319 216.478 106.432 222.991C105.323 225.47 103.426 227.638 100.952 229.256C98.4785 230.874 95.5247 231.878 92.4196 232.155L16.2701 238.349C12.0171 238.691 8.06962 240.375 5.20896 243.069C2.34831 245.763 0.782975 249.271 0.822777 252.898ZM297.038 425.4C280.464 416.604 264.938 404.939 251.056 390.161C248.063 387.057 245.172 383.291 242.352 379.22C230.448 361.556 221.683 337.304 221.471 319.601C220.147 184.182 405.094 127.106 506.861 229.097C508.504 230.791 510.158 232.484 511.771 234.245C526.919 250.558 539.582 281.113 540.049 301.831C540.281 312.234 539.372 322.633 537.335 332.894C517.094 430.984 391.519 475.425 297.038 425.4Z" fill="#14E1B7" fill-opacity="0.2"/>
</svg>

