<svg width="779" height="779" viewBox="0 0 779 682" fill="none" xmlns="http://www.w3.org/2000/svg">
<style>
.nonMainGearSvg{
    animation:spin  120s linear 0s normal none infinite running;
    -webkit-animation:spin  120s linear 0s normal none infinite running;
    -moz-animation:spin  120s linear 0s normal none infinite running;
    transform-origin: 49% 49%;
    transform-box: fill-box;
}
 @keyframes spin{

    from{
        transform: rotate(0deg);
        -webkit-transform: rotate(0deg);
        -moz-transform: rotate(0deg);
        -ms-transform: rotate(0deg);
        -o-transform: rotate(0deg);
}

    to{
        transform: rotate(-360deg);
        -webkit-transform: rotate(-360deg);
        -moz-transform: rotate(-360deg);
        -ms-transform: rotate(-360deg);
        -o-transform: rotate(-360deg);
}
}
</style>
<path class="nonMainGearSvg" d="M0.648234 341.127L15.3191 403.563L15.6784 405.043C16.5473 408.7 18.8717 411.941 22.2113 414.153C25.551 416.364 29.6741 417.393 33.8001 417.043L92.4547 411.896C93.4294 411.814 94.3811 411.798 95.3143 411.863C101.817 412.365 107.646 416.204 109.746 421.915C122.68 455.359 142.852 486.142 169.088 512.473C170.164 513.576 171.03 514.79 171.712 516.044C172.966 518.448 173.512 521.104 173.297 523.755C173.083 526.407 172.115 528.965 170.488 531.182L142.775 567.811C141.045 570.173 140.065 572.917 139.942 575.745C139.818 578.573 140.556 581.377 142.075 583.851C143.046 585.32 144.274 586.771 145.836 587.993L200.729 630.404C204 632.935 208.205 634.263 212.512 634.124C216.819 633.986 220.913 632.392 223.982 629.657L270.478 588.2C272.728 586.2 275.563 584.821 278.65 584.227C281.737 583.633 284.947 583.848 287.902 584.846C313.069 593.074 339.367 598.16 366.066 599.963L366.145 599.982C369.6 600.197 372.899 601.356 375.605 603.305C378.311 605.254 380.295 607.901 381.294 610.894L400.635 668.387L401.642 671.272C402.837 674.879 405.486 677.949 409.067 679.876C412.649 681.802 416.901 682.446 420.986 681.679L491.591 668.4C495.745 667.602 499.429 665.449 501.938 662.353C504.447 659.258 505.605 655.437 505.189 651.621L498.617 592.628C498.237 589.454 498.986 586.252 500.754 583.486C502.523 580.719 505.219 578.531 508.455 577.239C536.189 565.867 561.795 550.662 584.349 532.171C590.137 527.524 598.656 526.999 605.131 531.006L653.376 560.742C656.87 562.912 661.133 563.834 665.34 563.33C669.547 562.825 673.399 560.93 676.15 558.01L723.123 508.415C725.784 505.578 727.173 501.946 727.016 498.233C726.858 494.521 725.167 490.997 722.274 488.357L668.193 438.733C665.939 436.675 664.365 434.091 663.648 431.27C662.931 428.448 663.098 425.501 664.131 422.759C671.686 402.865 676.632 382.242 678.868 361.312C679.126 358.343 680.379 355.515 682.46 353.203C684.542 350.891 687.353 349.206 690.52 348.371L766.985 327.728C771.026 326.628 774.463 324.198 776.614 320.92C778.766 317.641 779.474 313.753 778.599 310.028L763.603 245.96C762.799 242.682 760.832 239.732 758.001 237.557C755.17 235.382 751.629 234.101 747.916 233.909C747.14 233.882 746.293 233.84 745.483 233.965L673.044 240.27C669.76 240.59 666.446 240.029 663.516 238.657C660.585 237.284 658.169 235.162 656.569 232.556C656.267 232.09 655.963 231.641 655.767 231.122C655.058 229.634 654.417 228.233 653.532 226.787C644.86 209.476 634.164 193.054 621.626 177.798C617.341 172.755 617.244 165.724 621.314 160.437L655.87 114.5C660.783 108.008 659.397 99.1171 652.716 93.9837L640.528 84.5322L597.892 51.6608C594.68 49.163 590.544 47.847 586.305 47.974C582.066 48.101 578.033 49.6617 575.005 52.3463L529.203 93.1843C524.341 97.5849 516.983 98.5982 510.728 95.9733C493.992 88.9198 476.565 83.2838 458.672 79.1375C445.287 76.0285 431.674 73.7781 417.936 72.4032L413.902 60.3268L397.239 10.8282C396.276 7.87029 394.318 5.25694 391.635 3.35031C388.953 1.44369 385.679 0.338209 382.268 0.187046C380.82 0.105169 379.366 0.213048 377.952 0.507226L306.842 13.7484C298.448 15.3759 292.829 22.484 293.611 30.1414L298.185 70.4446C298.946 77.2492 294.432 83.831 287.307 86.146C257.891 95.6611 230.338 109.35 205.688 126.696C199.877 130.793 191.949 131.053 186.107 127.289L125.114 89.6889C121.817 87.6666 117.81 86.8117 113.856 87.2871C109.902 87.7626 106.279 89.5351 103.678 92.2667L56.2834 142.476C53.5715 145.317 52.1481 148.977 52.2986 152.723C52.4491 156.469 54.1623 160.023 57.0948 162.674L113.375 214.289C115.757 216.444 117.364 219.196 117.988 222.189C118.611 225.181 118.222 228.275 116.871 231.066C110.951 243.582 106.143 256.502 102.492 269.705C100.475 276.878 98.7904 284.124 97.4423 291.423C96.9188 294.202 95.552 296.796 93.4936 298.917C91.4352 301.038 88.7661 302.603 85.7831 303.437L12.4884 323.246C8.39386 324.347 4.90495 326.796 2.71229 330.107C0.519624 333.419 -0.216984 337.351 0.648234 341.127ZM330.545 469.121C312.281 462.852 294.393 453.407 277.406 440.428C273.763 437.714 270.069 434.293 266.375 430.542C250.673 414.205 236.549 390.447 232.308 372.02C200.16 231.012 368.598 139.063 491.67 227.599C493.667 229.078 495.676 230.554 497.66 232.108C516.237 246.467 535.621 276.115 540.798 297.642C543.395 308.452 544.873 319.458 545.212 330.517C547.701 436.371 434.63 504.735 330.545 469.121Z" fill="#14E1B7" fill-opacity="0.2"/>
</svg>
