<svg width="550" height="550" viewBox="0 0 765 640" fill="none" xmlns="http://www.w3.org/2000/svg">
<style>
.nonMainGearSvg{
    animation:spin  120s linear 0s normal none infinite running;
    -webkit-animation:spin  120s linear 0s normal none infinite running;
    -moz-animation:spin  120s linear 0s normal none infinite running;
    transform-origin: 49% 49%;
    transform-box: fill-box;
}
 @keyframes spin{

    from{
        transform: rotate(0deg);
        -webkit-transform: rotate(0deg);
        -moz-transform: rotate(0deg);
        -ms-transform: rotate(0deg);
        -o-transform: rotate(0deg);
}

    to{
        transform: rotate(360deg);
        -webkit-transform: rotate(360deg);
        -moz-transform: rotate(360deg);
        -ms-transform: rotate(360deg);
        -o-transform: rotate(360deg);
}
}
</style>
<path class="nonMainGearSvg" d="M1.31044 227.614L0.124345 287.931L0.107367 289.363C0.0471909 292.899 1.50006 296.392 4.19089 299.183C6.88171 301.974 10.6237 303.868 14.7084 304.507L72.8198 313.426C73.7847 313.578 74.711 313.784 75.5992 314.06C81.7773 316.027 86.4784 320.879 87.1046 326.571C91.3885 360.058 103.342 392.798 122.271 422.889C123.042 424.144 123.581 425.452 123.933 426.752C124.555 429.235 124.429 431.782 123.567 434.15C122.705 436.517 121.136 438.624 119.012 440.267L83.1195 467.225C80.8603 468.977 79.2334 471.251 78.416 473.8C77.5986 476.349 77.6218 479.076 78.4833 481.683C79.0622 483.248 79.8942 484.856 81.1066 486.332L123.84 537.729C126.385 540.795 130.133 542.981 134.341 543.855C138.549 544.728 142.909 544.225 146.558 542.444L201.845 515.444C204.519 514.143 207.606 513.545 210.745 513.719C213.883 513.894 216.94 514.835 219.557 516.43C241.917 529.771 266.147 540.51 291.576 548.348L291.648 548.384C294.943 549.382 297.854 551.204 299.996 553.608C302.137 556.013 303.407 558.886 303.637 561.846L308.196 618.741L308.46 621.604C308.728 625.169 310.538 628.583 313.533 631.17C316.528 633.757 320.491 635.331 324.638 635.579L396.337 639.86C400.56 640.096 404.661 638.988 407.856 636.749C411.051 634.509 413.116 631.295 413.654 627.721L421.84 572.421C422.255 569.44 423.77 566.695 426.166 564.584C428.562 562.472 431.716 561.104 435.17 560.677C464.853 556.747 493.418 548.829 519.836 537.208C526.592 534.315 534.978 535.813 540.264 540.968L579.682 579.269C582.532 582.058 586.436 583.888 590.638 584.404C594.839 584.921 599.039 584.087 602.425 582.064L660.182 547.756C663.461 545.788 665.703 542.799 666.466 539.379C667.23 535.958 666.46 532.354 664.308 529.276L624.141 471.493C622.464 469.094 621.577 466.373 621.578 463.635C621.579 460.896 622.467 458.249 624.145 455.989C636.375 439.608 646.256 421.957 653.586 403.398C654.568 400.752 656.481 398.464 659.068 396.84C661.656 395.216 664.796 394.332 668.071 394.305L747.266 393.233C751.453 393.168 755.383 391.751 758.276 389.261C761.17 386.772 762.816 383.393 762.887 379.794L764.161 317.914C764.19 314.74 763.012 311.594 760.805 308.954C758.598 306.315 755.482 304.325 751.931 303.289C751.186 303.085 750.376 302.85 749.56 302.775L677.804 291.713C674.543 291.242 671.47 289.962 668.969 288.031C666.467 286.1 664.65 283.605 663.742 280.858C663.564 280.363 663.381 279.884 663.318 279.365C662.998 277.844 662.723 276.418 662.222 274.894C658.089 257.103 651.775 239.651 643.388 222.836C640.48 217.245 642.121 210.813 647.368 206.938L692.19 173.084C698.552 168.307 699.403 159.881 694.195 153.651L684.716 142.207L651.507 102.35C649.01 99.3278 645.327 97.1686 641.188 96.3006C637.048 95.4327 632.755 95.9193 629.158 97.664L574.696 124.26C568.899 127.143 561.519 126.36 556.105 122.516C541.626 112.202 526.128 103.021 509.811 95.0892C497.607 89.1493 484.971 83.939 471.996 79.4977L471.066 67.5534L467.13 18.5673C466.927 15.6476 465.674 12.811 463.544 10.4506C461.415 8.09017 458.515 6.32277 455.247 5.39333C453.864 4.98268 452.428 4.74368 450.985 4.68366L378.807 0.252057C370.27 -0.212417 363.071 4.96293 361.94 12.1243L356.43 49.9235C355.488 56.3027 349.49 61.2546 342.015 61.7115C311.16 63.5586 281.082 69.6424 252.914 79.7336C246.273 82.1199 238.525 80.5178 233.792 75.731L183.961 27.3034C181.265 24.6948 177.592 22.9855 173.643 22.5014C169.694 22.0173 165.746 22.7923 162.551 24.6786L104.235 59.4475C100.906 61.4078 98.6235 64.414 97.8452 67.8634C97.0669 71.3128 97.8501 74.9505 100.038 78.0473L141.844 138.156C143.621 140.673 144.5 143.555 144.366 146.427C144.232 149.299 143.092 152.029 141.093 154.26C132.268 164.295 124.422 174.957 117.627 186.144C113.902 192.214 110.482 198.428 107.375 204.769C106.182 207.181 104.217 209.228 101.699 210.684C99.1813 212.14 96.2087 212.946 93.1122 213.014L17.1961 214.062C12.9564 214.116 8.97117 215.539 6.02933 218.048C3.08749 220.558 1.40342 223.972 1.31044 227.614ZM289.433 420.839C273.28 410.886 258.275 398.126 245.016 382.353C242.155 379.034 239.419 375.058 236.764 370.782C225.578 352.246 217.752 327.313 218.188 309.532C221.822 173.539 407.737 128.811 505.162 238.074C506.734 239.886 508.316 241.697 509.855 243.574C524.315 260.974 535.786 292.497 535.492 313.321C535.342 323.777 534.059 334.152 531.659 344.311C507.956 441.379 381.514 477.456 289.433 420.839Z" fill="#14E1B7" fill-opacity="0.1"/>
</svg>
