<svg width="777" height="777" viewBox="0 0 777 640" fill="none" xmlns="http://www.w3.org/2000/svg">
<style>
.nonMainGearSvg{
    animation:spin  120s linear 0s normal none infinite running;
    -webkit-animation:spin  120s linear 0s normal none infinite running;
    -moz-animation:spin  120s linear 0s normal none infinite running;
    transform-origin: 49% 49%;
    transform-box: fill-box;
}
 @keyframes spin{

    from{
        transform: rotate(0deg);
        -webkit-transform: rotate(0deg);
        -moz-transform: rotate(0deg);
        -ms-transform: rotate(0deg);
        -o-transform: rotate(0deg);
}

    to{
        transform: rotate(-360deg);
        -webkit-transform: rotate(-360deg);
        -moz-transform: rotate(-360deg);
        -ms-transform: rotate(-360deg);
        -o-transform: rotate(-360deg);
}
}
</style>
<path class="nonMainGearSvg" d="M0.88093 272.932L5.84451 332.823L5.97356 334.244C6.2738 337.753 8.07914 341.047 11.0477 343.5C14.0164 345.954 17.9422 347.398 22.0819 347.559L80.9592 349.679C81.9372 349.717 82.8821 349.814 83.7963 349.985C90.1597 351.22 95.3437 355.483 96.5484 361.05C104.234 393.729 119.495 424.782 141.444 452.404C142.341 453.558 143.012 454.791 143.495 456.039C144.369 458.427 144.503 460.965 143.884 463.41C143.265 465.855 141.915 468.123 139.964 469.996L106.907 500.851C104.832 502.847 103.441 505.288 102.885 507.908C102.329 510.527 102.63 513.226 103.755 515.71C104.492 517.193 105.486 518.69 106.846 520.012L154.712 565.99C157.563 568.733 161.525 570.466 165.811 570.845C170.098 571.224 174.396 570.221 177.855 568.036L230.254 534.898C232.788 533.3 235.808 532.351 238.956 532.161C242.104 531.971 245.25 532.55 248.023 533.828C271.687 544.46 296.952 552.298 323.117 557.125L323.192 557.152C326.581 557.759 329.671 559.228 332.052 561.362C334.434 563.497 335.993 566.197 336.524 569.102L346.87 624.939L347.425 627.746C348.055 631.246 350.209 634.418 353.46 636.635C356.712 638.852 360.825 639.953 364.987 639.72L436.946 635.674C441.182 635.42 445.161 633.849 448.12 631.261C451.079 628.673 452.811 625.25 452.984 621.647L455.514 565.918C455.624 562.917 456.855 560.023 459.031 557.654C461.206 555.285 464.212 553.565 467.614 552.743C496.823 545.419 524.511 534.273 549.681 519.708C556.124 516.061 564.643 516.577 570.441 521.072L613.665 554.46C616.793 556.894 620.873 558.255 625.117 558.281C629.361 558.307 633.466 556.995 636.637 554.6L690.756 513.938C693.826 511.609 695.757 508.389 696.171 504.912C696.584 501.436 695.448 497.954 692.988 495.154L647.031 442.552C645.115 440.369 643.952 437.776 643.674 435.063C643.395 432.351 644.012 429.625 645.455 427.193C655.986 409.551 664.044 390.923 669.465 371.69C670.175 368.955 671.849 366.468 674.265 364.56C676.681 362.652 679.723 361.413 682.987 361.008L761.878 350.793C766.048 350.245 769.824 348.387 772.457 345.586C775.09 342.786 776.387 339.248 776.091 335.674L771.056 274.226C770.762 271.077 769.266 268.097 766.795 265.737C764.324 263.377 761.013 261.767 757.366 261.15C756.602 261.034 755.769 260.895 754.948 260.916L682.241 258.249C678.94 258.16 675.744 257.246 673.052 255.623C670.361 253.999 668.293 251.737 667.108 249.121C666.88 248.651 666.648 248.197 666.533 247.691C666.059 246.221 665.639 244.84 664.984 243.389C659.048 226.241 650.971 209.682 640.891 193.993C637.42 188.79 638.402 182.229 643.242 177.784L684.503 139.066C690.362 133.598 690.353 125.152 684.523 119.582L673.9 109.341L636.711 73.6939C633.913 70.9885 630.019 69.2751 625.801 68.8937C621.583 68.5122 617.35 69.4905 613.94 71.6345L562.323 104.277C556.834 107.803 549.392 107.879 543.6 104.697C528.105 96.1533 511.71 88.8487 494.625 82.8769C481.845 78.4029 468.709 74.7018 455.314 71.8014L453.168 60.0762L444.25 12.0024C443.75 9.1335 442.211 6.46822 439.846 4.3759C437.482 2.28358 434.409 0.867836 431.054 0.324849C429.632 0.077875 428.176 0.00699641 426.73 0.114311L354.278 4.06586C345.715 4.59228 339.061 10.5513 338.663 17.7766L337.018 55.8595C336.729 62.288 331.25 67.8869 323.84 69.2035C293.249 74.5992 263.865 84.1023 236.795 97.3547C230.413 100.486 222.522 99.7945 217.312 95.5995L162.669 53.3831C159.713 51.1105 155.875 49.8417 151.887 49.8185C147.899 49.7953 144.039 51.0194 141.044 53.2573L86.4144 94.4411C83.2935 96.7679 81.3231 100.01 80.8982 103.517C80.4733 107.024 81.6254 110.537 84.1234 113.352L131.953 168.068C133.982 170.356 135.152 173.109 135.311 175.97C135.47 178.831 134.61 181.667 132.844 184.109C125.064 195.07 118.323 206.539 112.685 218.407C109.588 224.851 106.81 231.402 104.356 238.042C103.412 240.569 101.661 242.825 99.2974 244.558C96.9339 246.291 94.0509 247.434 90.9688 247.859L15.3465 257.671C11.1227 258.214 7.29222 260.084 4.61337 262.91C1.93453 265.737 0.6025 269.313 0.88093 272.932ZM307.985 431.054C290.858 423.061 274.589 412.154 259.755 398.061C256.563 395.104 253.429 391.481 250.345 387.551C237.297 370.482 226.949 346.685 225.573 329.02C215.339 193.877 396.239 128.081 504.559 225.064C506.31 226.677 508.074 228.289 509.8 229.97C525.998 245.536 540.652 275.439 542.482 296.102C543.398 306.478 543.175 316.905 541.817 327.247C528.063 426.147 405.61 476.5 307.985 431.054Z" fill="#14E1B7" fill-opacity="0.1"/>
</svg>
