<svg fill="none" width="758" height="758" viewBox="0 0 758 645" xmlns="http://www.w3.org/2000/svg">
<style>
.nonMainGearSvg{
    animation:spin  120s linear 0s normal none infinite running;
    -webkit-animation:spin  120s linear 0s normal none infinite running;
    -moz-animation:spin  120s linear 0s normal none infinite running;
    transform-origin: 49% 49%;
    transform-box: fill-box;
}
 @keyframes spin{

    from{
        transform: rotate(0deg);
        -webkit-transform: rotate(0deg);
        -moz-transform: rotate(0deg);
        -ms-transform: rotate(0deg);
        -o-transform: rotate(0deg);
}

    to{
        transform: rotate(360deg);
        -webkit-transform: rotate(360deg);
        -moz-transform: rotate(360deg);
        -ms-transform: rotate(360deg);
        -o-transform: rotate(360deg);
}
}
</style>
<path class="nonMainGearSvg" d="M11.4525 434.563L45.379 490.534L46.1942 491.858C48.1906 495.133 51.4484 497.632 55.3506 498.88C59.2529 500.128 63.5289 500.039 67.3689 498.63L121.901 478.425C122.808 478.092 123.714 477.829 124.628 477.649C131.016 476.436 137.82 478.595 141.649 483.516C164.683 512.176 193.8 536.401 227.308 554.784C228.689 555.56 229.905 556.498 230.957 557.521C232.923 559.497 234.292 561.898 234.93 564.493C235.569 567.088 235.457 569.789 234.604 572.336L219.727 614.632C218.822 617.344 218.757 620.227 219.539 622.968C220.321 625.708 221.92 628.201 224.162 630.175C225.56 631.329 227.198 632.399 229.083 633.162L295.153 659.48C299.091 661.052 303.541 661.229 307.621 659.975C311.702 658.72 315.115 656.127 317.183 652.709L348.512 600.899C350.03 598.397 352.306 596.339 355.073 594.966C357.84 593.593 360.983 592.963 364.13 593.149C390.851 594.475 417.654 592.496 443.796 587.269L443.878 587.267C447.255 586.573 450.783 586.824 453.995 587.985C457.207 589.147 459.95 591.165 461.859 593.772L498.685 643.793L500.568 646.293C502.859 649.436 506.374 651.686 510.417 652.599C514.46 653.511 518.738 653.02 522.405 651.221L585.792 620.117C589.516 618.271 592.359 615.25 593.776 611.632C595.193 608.014 595.085 604.053 593.473 600.508L568.399 545.724C567.024 542.784 566.722 539.522 567.534 536.413C568.347 533.303 570.233 530.505 572.92 528.425C595.86 510.312 615.54 489.082 631.252 465.501C635.316 459.543 643.307 456.821 650.784 458.972L706.452 474.884C710.489 476.053 714.865 475.825 718.733 474.247C722.601 472.668 725.687 469.85 727.392 466.337L756.586 406.609C758.231 403.199 758.405 399.359 757.072 395.845C755.74 392.33 752.999 389.397 749.388 387.622L681.799 354.184C678.985 352.8 676.656 350.735 675.07 348.22C673.485 345.705 672.707 342.84 672.823 339.945C673.725 318.925 671.896 297.888 667.374 277.262C666.676 274.352 666.975 271.317 668.233 268.561C669.49 265.805 671.646 263.458 674.413 261.834L741.068 222.151C744.587 220.046 747.105 216.824 748.121 213.124C749.138 209.424 748.579 205.516 746.555 202.176L711.798 144.727C709.984 141.798 707.161 139.485 703.757 138.139C700.354 136.793 696.555 136.489 692.938 137.272C692.187 137.449 691.362 137.629 690.626 137.959L623.262 162.863C620.219 164.025 616.867 164.35 613.624 163.799C610.381 163.248 607.391 161.845 605.029 159.766C604.591 159.399 604.158 159.048 603.805 158.602C602.652 157.361 601.592 156.186 600.284 155.032C586.469 140.714 570.997 127.772 554.133 116.428C548.425 112.714 546.094 106.006 548.308 99.8837L566.776 46.8921C569.414 39.3962 565.257 31.2422 557.224 28.0661L542.543 22.1891L491.248 1.81388C487.377 0.258402 482.997 0.0751616 478.978 1.3008C474.959 2.52643 471.593 5.0714 469.549 8.43082L438.687 59.4677C435.432 64.9481 428.709 67.8347 421.883 66.9499C403.61 64.5539 385.127 63.6951 366.672 64.3843C352.864 64.8929 339.111 66.283 325.517 68.5443L317.809 58.03L286.094 14.9673C284.23 12.3854 281.523 10.3927 278.347 9.26544C275.171 8.13818 271.684 7.93215 268.369 8.67583C266.956 8.97453 265.598 9.45645 264.338 10.1065L200.455 41.3062C192.934 45.0509 189.816 53.3214 193.003 60.4508L210.214 97.8558C213.109 104.174 210.882 111.653 204.796 115.725C179.654 132.498 157.627 152.783 139.543 175.814C135.282 181.251 127.773 183.565 120.98 181.482L50.6002 161.358C46.7988 160.28 42.6887 160.506 39.0539 161.99C35.419 163.475 32.5137 166.116 30.8923 169.41L1.48931 229.835C-0.203245 233.262 -0.40106 237.138 0.935596 240.686C2.27225 244.234 5.04447 247.192 8.69668 248.967L79.0252 283.739C81.9921 285.182 84.4077 287.399 85.9575 290.102C87.5073 292.806 88.1193 295.87 87.7139 298.895C86.0292 312.423 85.5381 326.048 86.2455 339.642C86.5974 347.037 87.2906 354.414 88.3234 361.755C88.7069 364.553 88.2239 367.394 86.9279 369.961C85.632 372.528 83.574 374.721 80.9828 376.297L17.0985 414.355C13.5281 416.476 10.9665 419.73 9.92094 423.472C8.87535 427.214 9.42195 431.172 11.4525 434.563ZM368.125 471.22C348.639 469.972 328.501 465.586 308.102 457.581C303.75 455.931 299.123 453.617 294.391 450.986C274.153 439.431 253.064 420.357 243.136 403.815C167.459 277.152 299.49 145.23 445.536 197.965C447.92 198.861 450.314 199.751 452.708 200.722C475.069 209.635 503.07 232.98 514.882 252.247C520.811 261.922 525.73 272.077 529.575 282.579C565.658 383.302 479.14 478.218 368.125 471.22Z" fill="#14E1B7" fill-opacity="0.15"/>
</svg>

