<svg viewBox="0 0 49 49" fill="none" xmlns="http://www.w3.org/2000/svg">
<path d="M24.5 48C37.4787 48 48 37.4787 48 24.5C48 11.5213 37.4787 1 24.5 1C11.5213 1 1 11.5213 1 24.5C1 37.4787 11.5213 48 24.5 48Z" stroke="white" stroke-width="2" stroke-miterlimit="10"/>
<path d="M18.874 4.12549H30.3994V6.86032L26.8832 7.44635V33.0365L28.2506 33.2319L27.0785 36.5528H22.3902L21.2182 33.2319L22.3902 33.0365V7.44635L18.874 6.86032V4.12549Z" fill="white" stroke="white" stroke-miterlimit="10"/>
<path d="M9.30225 16.6277H19.4602V19.5579L16.53 19.9486L24.7345 43.1946L32.939 19.9486L29.8135 19.3625V16.6277H39.9714V19.3625L37.4319 19.7532L27.274 46.9062H21.9997L11.8417 19.7532L9.30225 19.3625V16.6277Z" fill="white" stroke="white" stroke-miterlimit="10"/>
</svg>
