<svg xmlns="http://www.w3.org/2000/svg" fill="none" viewBox="0 0 676 443">
  <defs/>
  <rect width="610" height="395" fill="#14E1B7" rx="39"/>
  <path id="#gear" fill="#8498AF" d="M545.645 361.045l-.628 12.001-.013.285a2.879 2.879 0 002.391 2.981l9.878 1.649c.164.028.321.067.471.12 1.043.378 1.813 1.333 1.88 2.464a50.32 50.32 0 005.337 19.084c.123.248.206.507.257.765a2.923 2.923 0 01-.937 2.699l-6.33 5.44a2.91 2.91 0 00-.895 2.886c.088.31.219.628.416.919l6.948 10.132a2.92 2.92 0 003.853.889l9.648-5.49a2.808 2.808 0 013.023.158 50.024 50.024 0 0012.095 6.194l.012.007a2.9 2.9 0 011.956 2.652l.379 11.308.025.569a2.832 2.832 0 002.669 2.745l12.235.697a2.934 2.934 0 003.048-2.452l1.79-11.018a2.832 2.832 0 012.363-2.365 49.818 49.818 0 0014.649-4.851c1.176-.59 2.6-.31 3.468.704l6.473 7.534a2.918 2.918 0 001.838.998 2.92 2.92 0 002.033-.491l10.122-6.949a2.803 2.803 0 001.134-1.68 2.804 2.804 0 00-.298-2.005l-6.464-11.408a2.93 2.93 0 01.11-3.084 50.683 50.683 0 005.407-10.525 2.757 2.757 0 012.542-1.84l13.555-.384a2.86 2.86 0 002.767-2.707l.654-12.312a2.905 2.905 0 00-1.989-2.883c-.126-.039-.263-.084-.402-.097l-12.197-2.046a2.855 2.855 0 01-2.329-2.129c-.027-.098-.055-.193-.062-.296-.044-.302-.081-.585-.156-.887a50.282 50.282 0 00-2.855-10.315c-.458-1.106-.132-2.389.793-3.171l7.906-6.831c1.122-.964 1.327-2.642.48-3.87l-1.541-2.256-5.4-7.857a2.871 2.871 0 00-3.79-.884l-9.504 5.408c-1.012.586-2.269.446-3.168-.307a50.755 50.755 0 00-7.726-5.356 49.697 49.697 0 00-6.359-3.02l-.075-2.374-.328-9.736a2.8 2.8 0 00-2.664-2.727l-12.316-.726c-1.457-.074-2.725.971-2.969 2.398l-1.209 7.531c-.206 1.271-1.267 2.269-2.549 2.376a49.925 49.925 0 00-15.369 3.777c-1.153.489-2.467.187-3.243-.755l-8.183-9.526a2.763 2.763 0 00-3.644-.476l-10.221 7.042a2.797 2.797 0 00-.849 3.709l6.728 11.867a2.854 2.854 0 01-.242 3.205 48.183 48.183 0 00-4.239 6.393 49.836 49.836 0 00-1.885 3.727 2.87 2.87 0 01-2.498 1.671l-12.994.372a2.897 2.897 0 00-2.813 2.73zm47.926 37.816c-2.693-1.945-5.17-4.451-7.327-7.56-.466-.654-.906-1.439-1.33-2.284-1.783-3.663-2.946-8.606-2.746-12.144 1.58-27.06 33.699-36.358 49.595-14.833.256.357.514.714.764 1.084 2.351 3.43 4.091 9.676 3.894 13.819-.1 2.08-.392 4.147-.874 6.173-4.739 19.36-26.623 26.809-41.976 15.745z"/>
  <path id="#circle1" class="circle" fill="#666AF6" d="M136.89 305.445c0-6.321-5.124-11.445-11.445-11.445-6.321 0-11.445 5.124-11.445 11.445 0 6.321 5.124 11.445 11.445 11.445 6.321 0 11.445-5.124 11.445-11.445z"/>
  <path fill="url(#paint0_linear)" d="M275.97 202.175c1.484 27.339-51.987 82.931-117.894 62.355-30.652-9.571-28.056-25.456-51.364-46.391-13.893-12.478-33.855-21.913-39.406-40.051-4.796-15.654-1.855-32.481 6.46-43.426 18.7-24.615 56.453-41.47 93.651-2.687 37.198 38.781 104.717-.31 108.553 70.2z"/>
  <path fill="url(#paint1_linear)" d="M261.592 142.514c-5.232 9.298-16.689 10.576-35.044 8.809-13.805-1.332-26.393-2.362-40.199-9.858-9.663-5.242-17.312-12.336-22.895-19.226-6.049-7.463-14.493-15.981-10.354-24.444 5.689-11.624 38.586-21.415 70.53-5.404 35.091 17.593 43.079 41.036 37.962 50.123z"/>
  <path fill="url(#paint2_linear)" d="M129.04 255.489c-12.138-16.943-24.569-34.951-40.844-43.821-16.786-9.153-19.882-3.512-21.044 5.457-1.162 8.969 4.017 30.218 26.927 42.308 22.914 12.094 46.319 11.913 34.961-3.944z"/>
  <path id="#lt" fill="#fff" stroke="#E1E4E5" stroke-width="4" d="M269.457 254H72.543C66.721 254 62 249.294 62 243.491V120.509C62 114.706 66.722 110 72.543 110h196.914c5.822 0 10.543 4.706 10.543 10.509v122.982c0 5.803-4.721 10.509-10.543 10.509z"/>
  <path fill="#fff" stroke="#E1E4E5" stroke-width="4" d="M280 120.643c0 .89-.351 1.744-.974 2.374a3.314 3.314 0 01-2.352.983H65.326a3.313 3.313 0 01-2.352-.983 3.376 3.376 0 01-.974-2.374C62 114.766 66.722 110 72.543 110h196.914c5.822 0 10.543 4.766 10.543 10.643z"/>
  <path fill="#E1E4E5" d="M72.428 120a2.44 2.44 0 001.759-.721 2.512 2.512 0 00.731-1.779 2.535 2.535 0 00-.731-1.779 2.423 2.423 0 00-3.478.023A2.518 2.518 0 0070 117.5c0 .657.255 1.289.71 1.756a2.442 2.442 0 001.718.744zm10.245 0a2.44 2.44 0 001.76-.721 2.512 2.512 0 00.73-1.779 2.535 2.535 0 00-.73-1.779 2.423 2.423 0 00-3.478.023 2.518 2.518 0 00-.71 1.756c0 .657.255 1.289.71 1.756a2.442 2.442 0 001.718.744zm9.837 0a2.44 2.44 0 001.759-.721A2.512 2.512 0 0095 117.5a2.535 2.535 0 00-.731-1.779 2.423 2.423 0 00-3.478.023 2.518 2.518 0 00-.71 1.756c0 .657.256 1.289.71 1.756a2.442 2.442 0 001.719.744z"/>
  <path id="#ltlb" fill="#666AF6" d="M133.638 143H51.362c-2.409 0-4.362 2.015-4.362 4.5v27c0 2.485 1.953 4.5 4.362 4.5h82.276c2.409 0 4.362-2.015 4.362-4.5v-27c0-2.485-1.953-4.5-4.362-4.5z"/>
  <path id="#ltlb-cont" fill="#fff" d="M126.932 154H75.068c-1.142 0-2.068.895-2.068 2s.926 2 2.068 2h51.864c1.142 0 2.068-.895 2.068-2s-.926-2-2.068-2zM106.947 163H75.053c-1.134 0-2.053 1.119-2.053 2.5s.92 2.5 2.053 2.5h31.894c1.134 0 2.053-1.119 2.053-2.5s-.919-2.5-2.053-2.5zM61.5 168c3.59 0 6.5-3.134 6.5-7s-2.91-7-6.5-7-6.5 3.134-6.5 7 2.91 7 6.5 7z"/>
  <path id="#ltr-bt" fill="#666AF6" d="M263.575 183h-74.15c-2.444 0-4.425 1.969-4.425 4.397v68.206c0 2.428 1.981 4.397 4.425 4.397h74.15c2.444 0 4.425-1.969 4.425-4.397v-68.206c0-2.428-1.981-4.397-4.425-4.397z"/>
  <path id="#ltr-bt-cont" fill="#fff" d="M257.153 236h-46.306c-1.02 0-1.847.895-1.847 2s.827 2 1.847 2h46.306c1.02 0 1.847-.895 1.847-2s-.827-2-1.847-2zM209 197.87v28.26c0 1.033.895 1.87 2 1.87s2-.837 2-1.87v-28.26c0-1.033-.895-1.87-2-1.87s-2 .837-2 1.87zM225 197.87v28.26c0 1.033.895 1.87 2 1.87s2-.837 2-1.87v-28.26c0-1.033-.895-1.87-2-1.87s-2 .837-2 1.87zM242 197.87v28.26c0 1.033.672 1.87 1.5 1.87.829 0 1.5-.837 1.5-1.87v-28.26c0-1.033-.671-1.87-1.5-1.87-.828 0-1.5.837-1.5 1.87zM240.118 244h-29.236c-1.04 0-1.882.895-1.882 2s.842 2 1.882 2h29.236c1.04 0 1.882-.895 1.882-2s-.842-2-1.882-2zM217 208.68v17.64c0 .928.895 1.68 2 1.68s2-.752 2-1.68v-17.64c0-.928-.895-1.68-2-1.68s-2 .752-2 1.68zM234 208.68v17.64c0 .928.671 1.68 1.5 1.68s1.5-.752 1.5-1.68v-17.64c0-.928-.671-1.68-1.5-1.68s-1.5.752-1.5 1.68zM250 208.68v17.64c0 .928.671 1.68 1.5 1.68s1.5-.752 1.5-1.68v-17.64c0-.928-.671-1.68-1.5-1.68s-1.5.752-1.5 1.68zM199 248a6 6 0 100-12 6 6 0 000 12z"/>
  <path id="#ltr-tt" fill="#fff" stroke="#E1E4E5" stroke-width="4" d="M287.864 120h-77.728c-3.941 0-7.136 3.167-7.136 7.073v19.854c0 3.906 3.195 7.073 7.136 7.073h77.728c3.941 0 7.136-3.167 7.136-7.073v-19.854c0-3.906-3.195-7.073-7.136-7.073z"/>
  <path id="#ltr-tt-cont" fill="#E1E4E5" d="M283.895 130h-52.79c-1.163 0-2.105.895-2.105 2s.942 2 2.105 2h52.79c1.163 0 2.105-.895 2.105-2s-.942-2-2.105-2zM263.89 139h-32.78c-1.165 0-2.11 1.119-2.11 2.5s.945 2.5 2.11 2.5h32.78c1.165 0 2.11-1.119 2.11-2.5s-.945-2.5-2.11-2.5z"/>
  <path id="#ltr-bt-cont-check" fill="#666AF6" fill-rule="evenodd" d="M217 146a9 9 0 11.001-18.001A9 9 0 01217 146z" clip-rule="evenodd"/>
  <path id="#ltr-bt-cont-check-cont" stroke="#fff" stroke-linecap="round" stroke-linejoin="round" stroke-width="3.568" d="M220 135l-3.749 4-2.251-2.4"/>
  <path fill="#E1E4E5" d="M202.9 175.622a7.609 7.609 0 01-1.621-.904.707.707 0 01-.252-.763.701.701 0 01.129-.252.606.606 0 01.837-.119 6.3 6.3 0 001.347.754l.062.024c1.313.5 2.442.294 3.354-.614.507-.504.952-.963 1.345-1.368 1.737-1.793 2.694-2.78 4.521-3.038 1.864-.262 3.088 1.23 4.168 2.548.775.945 1.508 1.838 2.258 1.799l.164-.008.099.053c.128.035 1.39.3 3.203-2.164 1.135-1.544 2.21-2.375 3.285-2.539.717-.11 1.327.085 1.852.373.08.043.151.104.207.179a.694.694 0 01.121.254.728.728 0 01-.084.552.633.633 0 01-.368.282.586.586 0 01-.448-.054c-.777-.437-1.84-.546-3.567 1.802-2.207 3.001-3.982 2.797-4.523 2.64-1.298-.003-2.24-1.152-3.152-2.264-.954-1.163-1.856-2.263-3.049-2.095-1.413.199-2.163.973-3.805 2.668-.45.466-.904.928-1.362 1.386-1.279 1.272-2.898 1.577-4.682.883l-.039-.015z"/>
  <path fill="#E1E4E5" d="M228.9 171.622a7.584 7.584 0 01-1.621-.904.667.667 0 01-.184-.207.73.73 0 01-.068-.556.701.701 0 01.129-.252.606.606 0 01.837-.119 6.3 6.3 0 001.347.754l.062.024c1.313.5 2.442.294 3.354-.614.507-.504.952-.963 1.345-1.368 1.737-1.793 2.694-2.78 4.521-3.037 1.864-.263 3.088 1.23 4.168 2.547.775.945 1.508 1.838 2.258 1.799l.164-.008.099.054c.128.034 1.39.299 3.203-2.165 1.135-1.544 2.21-2.375 3.285-2.539.717-.109 1.327.085 1.852.373.08.043.151.104.207.179a.698.698 0 01.121.255.74.74 0 01-.084.551.634.634 0 01-.368.283.59.59 0 01-.448-.055c-.777-.437-1.84-.546-3.567 1.803-2.207 3-3.982 2.796-4.523 2.64-1.298-.004-2.24-1.153-3.152-2.265-.954-1.164-1.856-2.263-3.049-2.095-1.413.199-2.163.973-3.805 2.668-.45.466-.904.928-1.362 1.386-1.279 1.272-2.898 1.577-4.682.883l-.039-.015z"/>
  <path id="#lt-cont" stroke="#E1E4E5" stroke-linecap="round" stroke-linejoin="round" stroke-width="5.5" d="M114 221.471H92.31m-9.716-28.342l-4.438 4.449L76 195.421l6.594-2.292zM92.209 191h13.115-13.115zm.102 6.529H114 92.31zm-9.717 10.835l-4.438 4.449L76 210.656l6.594-2.292zm9.615-2.128h13.115-13.115zm.102 6.529H114 92.31zM114 228H92.209 114zM79.5 231a4.5 4.5 0 100-9 4.5 4.5 0 000 9zM171 221.471h-21.69m-9.716-28.342l-4.438 4.449-2.156-2.157 6.594-2.292zm9.614-2.129h13.116-13.116zm.102 6.529H171h-21.69zm-9.716 10.835l-4.438 4.449-2.156-2.157 6.594-2.292zm9.614-2.128h13.116-13.116zm.102 6.529H171h-21.69zM171 228h-21.792H171zM136 231c2.209 0 4-2.015 4-4.5 0-2.486-1.791-4.5-4-4.5s-4 2.014-4 4.5c0 2.485 1.791 4.5 4 4.5z"/>
  <path fill="#E1E4E5" d="M254.541 167.459a2.452 2.452 0 002.855-1.97 2.454 2.454 0 10-2.855 1.97z"/>
  <path fill="#E1E4E5" fill-rule="evenodd" d="M196.619 157.461h-.873a.38.38 0 01-.381-.38v-.871a.38.38 0 01.381-.38h.873a.382.382 0 01.381.38v.871a.384.384 0 01-.235.352.365.365 0 01-.146.028zm-3.026 0h-.873a.38.38 0 01-.381-.38v-.871a.38.38 0 01.381-.38h.873a.383.383 0 01.381.38v.871a.382.382 0 01-.381.38zm-3.029 0h-.872a.38.38 0 01-.381-.38v-.871a.38.38 0 01.381-.38h.872c.21 0 .382.171.382.38v.871a.384.384 0 01-.236.352.362.362 0 01-.146.028zm-3.026 0h-.872a.385.385 0 01-.27-.111.386.386 0 01-.112-.269v-.871a.38.38 0 01.382-.38h.872c.211 0 .383.171.383.38v.871a.385.385 0 01-.383.38zm-3.026 0h-.873a.38.38 0 01-.383-.38v-.871c0-.211.172-.38.383-.38h.873a.383.383 0 01.381.38v.871a.382.382 0 01-.381.38zm8.97-3.293h-.873a.381.381 0 01-.381-.38v-.873c0-.209.172-.381.381-.381h.873c.211 0 .381.172.381.381v.871a.383.383 0 01-.111.27.375.375 0 01-.27.112zm-3.026 0h-.873a.386.386 0 01-.269-.112.377.377 0 01-.112-.268v-.873c0-.209.171-.381.381-.381h.873c.209 0 .381.172.381.381v.871a.384.384 0 01-.381.382zm-3.027 0h-.873a.385.385 0 01-.383-.38v-.873c0-.209.172-.381.383-.381h.873c.209 0 .381.172.381.381v.871a.38.38 0 01-.381.382zm3.135 6.832h-.872a.382.382 0 01-.381-.38v-.871a.38.38 0 01.381-.381h.872c.21 0 .382.172.382.381v.871a.379.379 0 01-.382.38zm-3.026 0h-.872a.386.386 0 01-.382-.38v-.871c0-.211.172-.381.382-.381h.872c.211 0 .383.172.383.381v.871a.386.386 0 01-.383.38zm-6.175-17.073h-.873a.38.38 0 01-.381-.38v-.871a.38.38 0 01.381-.38h.873a.38.38 0 01.381.38v.871a.388.388 0 01-.111.269.394.394 0 01-.27.111zm-3.026 0h-.873a.38.38 0 01-.381-.38v-.871a.38.38 0 01.381-.38h.873a.382.382 0 01.381.38v.871a.384.384 0 01-.381.38zm-3.028 0h-.873a.377.377 0 01-.269-.112.375.375 0 01-.112-.268v-.871a.38.38 0 01.381-.38h.873c.209 0 .381.171.381.38v.871a.388.388 0 01-.112.269.379.379 0 01-.269.111zm-3.027 0h-.873a.38.38 0 01-.381-.38v-.871a.38.38 0 01.381-.38h.873c.211 0 .383.171.383.38v.871a.386.386 0 01-.383.38zm-3.026 0h-.873a.385.385 0 01-.383-.38v-.871c0-.211.172-.38.383-.38h.873a.382.382 0 01.381.38v.871a.384.384 0 01-.381.38zm8.97-3.294h-.873a.38.38 0 01-.381-.38v-.873c0-.209.172-.38.381-.38h.873a.38.38 0 01.381.38v.871a.384.384 0 01-.381.382zm-3.026 0h-.873a.38.38 0 01-.381-.38v-.873c0-.209.171-.38.381-.38h.873c.209 0 .38.171.38.38v.871a.387.387 0 01-.11.271.394.394 0 01-.27.111zm-3.027 0h-.873a.385.385 0 01-.383-.38v-.873c0-.209.172-.38.383-.38h.873c.209 0 .381.171.381.38v.871c0 .101-.04.198-.111.27a.386.386 0 01-.27.112zm3.136 6.833h-.873a.38.38 0 01-.381-.381v-.871c0-.21.171-.38.381-.38h.873c.209 0 .381.171.381.38v.871a.384.384 0 01-.236.352.379.379 0 01-.145.029zm-3.027 0h-.873a.388.388 0 01-.269-.112.388.388 0 01-.112-.269v-.871c0-.21.172-.38.381-.38h.873c.211 0 .383.171.383.38v.871a.387.387 0 01-.383.381z" clip-rule="evenodd"/>
  <path id="#lt-loadempty" fill="url(#paint3_linear)" d="M146.903 165.848c1.42 5.304 6.867 8.452 12.167 7.03 5.3-1.421 8.445-6.873 7.025-12.177-1.42-5.305-6.867-8.452-12.167-7.031-5.3 1.421-8.445 6.873-7.025 12.178z"/>
  <path fill="#fff" d="M149.645 165.112a7.095 7.095 0 1013.708-3.676 7.095 7.095 0 00-8.69-5.022 7.102 7.102 0 00-5.018 8.698z"/>
  <path fill="#666AF6" d="M158.749 172.659a8.731 8.731 0 01-4.535.08 9.129 9.129 0 01-4.035-2.221 10.051 10.051 0 01-2.581-3.995 10.684 10.684 0 01-.518-4.828c.2-1.631.773-3.183 1.667-4.52a9.55 9.55 0 013.458-3.144 8.83 8.83 0 014.434-1.026A8.867 8.867 0 01161 154.34l-1.4 2.598a6.21 6.21 0 00-3.053-.935 6.166 6.166 0 00-3.103.719 6.678 6.678 0 00-2.422 2.2 7.293 7.293 0 00-1.167 3.164 7.479 7.479 0 00.363 3.38 7.038 7.038 0 001.808 2.797 6.387 6.387 0 002.824 1.554 6.124 6.124 0 003.174-.055l.725 2.897zM38.896 84.448C38.896 77.573 33.323 72 26.448 72S14 77.573 14 84.448s5.573 12.448 12.448 12.448 12.448-5.573 12.448-12.448z"/>
  <path fill="#F8AE9D" d="M506.86 240.441c4.081 1.247 10.814-2.267 10.814-2.267s-3.434-2.582-3.238-8.262l-3.155 2.46-2.143 1.67s.009.986.243 2.712c.062.454.175 1.163-.176 1.526-1.367 1.411-2.345 2.161-2.345 2.161z"/>
  <path fill="#F8AE9D" d="M508.175 234.101s6.736 1.072 7.369-2.954c.632-4.026 1.927-6.599-2.347-7.453-4.274-.854-5.354.561-5.906 1.856-.552 1.294-.852 8.169.884 8.551z"/>
  <path fill="url(#paint4_linear)" d="M429 335c68.483 0 124-2.256 124-5.038 0-2.783-55.517-5.039-124-5.039s-124 2.256-124 5.039c0 2.782 55.517 5.038 124 5.038z"/>
  <path id="#graph1" fill="#fff" d="M490.279 225.856l-29.299 4.938.082 18.618-18.379-8.317-8.762 14.862-.724-.296-50.528-19.914-1.35 28.215-31.424 3.379-.197-1.838 29.842-3.198 1.416-29.215 52.191 20.57 8.795-14.927 17.259 7.824-.082-17.322 28.986-4.872-3.146-16.42 1.812-.344 3.508 18.257z"/>
  <path id="#gr1circles" fill="#666AF6" d="M384.327 230.659a3.338 3.338 0 011.675 4.414 3.358 3.358 0 01-4.45 1.652c-1.692-.768-2.431-2.747-1.659-4.415a3.323 3.323 0 011.872-1.745 3.358 3.358 0 012.562.094zm-2.316 29.005c1.692.769 2.431 2.747 1.659 4.415a3.359 3.359 0 01-4.451 1.651c-1.692-.768-2.431-2.747-1.659-4.414a3.374 3.374 0 014.451-1.652zm53.511-9.516c1.691.769 2.43 2.747 1.659 4.415a3.346 3.346 0 01-4.435 1.651c-1.692-.768-2.431-2.747-1.659-4.414.755-1.684 2.743-2.42 4.435-1.652zm8.376-14.012a3.339 3.339 0 011.675 4.415 3.342 3.342 0 01-1.881 1.745 3.378 3.378 0 01-2.57-.094 3.34 3.34 0 01-1.675-4.415 3.374 3.374 0 014.451-1.651zm17.328-9.564a3.335 3.335 0 011.658 4.431 3.347 3.347 0 01-4.434 1.651c-1.692-.769-2.431-2.747-1.659-4.415a3.32 3.32 0 011.868-1.754 3.352 3.352 0 012.567.087zm29.251-4.808c1.692.768 2.431 2.747 1.659 4.414a3.346 3.346 0 01-1.881 1.746 3.364 3.364 0 01-2.57-.094 3.355 3.355 0 01-1.753-1.873 3.326 3.326 0 01.094-2.558c.772-1.668 2.759-2.403 4.451-1.635zm-3.104-17.462c1.675.769 2.431 2.747 1.675 4.415a3.359 3.359 0 01-4.451 1.651 3.335 3.335 0 01-1.658-4.431c.755-1.651 2.742-2.403 4.434-1.635zM351.561 263.85c1.675.752 2.43 2.746 1.659 4.414a3.346 3.346 0 01-4.435 1.651 3.338 3.338 0 01-1.675-4.414 3.359 3.359 0 014.451-1.651z"/>
  <path id="#columns1" fill="#fff" stroke="#fff" stroke-width="4" d="M398.774 325.463v-62.541h8.704v62.541h-8.704zm14.146-.123v-62.436h10.015v62.436H412.92zm15.358.123v-75.006h9.109v75.006h-9.109zm14.551-.124v-41.978h10.015v41.978h-10.015zm15.358 0v-85.35h8.961v85.35h-8.961zm14.147.001v-62.436h10.015v62.436h-10.015zm-81.095-27.582v27.703l-17.043.182.204-27.885h16.839zm-25.223-14.478v41.762l-17.039.27.207-42.032h16.832z"/>
  <path id="#columns2" fill="#666AF6" d="M419.247 304.798h-20.132v21.555h20.132v-21.555zm-26.322 0h-20.132v21.555h20.132v-21.555zm-26.605-10.826h-20.227v32.391h20.227v-32.391zm76.933 7.511h-18.285v24.871h18.285v-24.871zm23.956 10.225h-20.115v14.645h20.115v-14.645z"/>
  <path id="#rhand" fill="#F8AE9D" d="M480.914 238.557c.184 1.399.675 3.085 1.471 3.658.902.65 1.181 1.34 1.181 1.34l.917-.279 1.096-.333s.002-.11-.005-.294a7.623 7.623 0 00-.059-.724s-.209-.443.084-.874c.293-.43.427-1.167.221-1.682-.205-.514-.247-1.677-.441-1.687-.471-.026-.149 1.632-.408 1.866-.234.213-.433.076-.469.047l-.007-.006c-1.138-.838-1.981-4.151-2.755-3.906-.289.092-.905 2.278-.826 2.874zm46.279 34.423s-.972 1.658-.537 2.615c.434.957 1.941 2.233 2.329 2.733.387.5 1.701 1.82 2.231.971.529-.848-.405-3.102-1.053-3.951-.648-.852-.709-2.313-.709-2.313l-2.261-.055z"/>
  <path fill="#F8AE9D" d="M526.326 275.258s.093 2.001.203 2.535c.112.536.221.372.647.012.425-.359.42-1.406.58-1.475.16-.069-1.43-1.072-1.43-1.072z"/>
  <path fill="#31446C" d="M509.511 238.55s-11.324 12.077-14.849 13.97l-8.881-10.374s-1.667.116-2.711 1.507c0 0 3.446 14.631 9.733 16.657 6.287 2.027 19.104-12.219 19.104-12.219l-2.396-9.541zm-10.558 88.533h11.628c.559-.652.353-3.058.269-3.845-.017-.159-.029-.25-.029-.25s-3.971-3.034-4.516-.711a2.625 2.625 0 01-.059.215c-.686 2.173-3.769 3.161-5.548 3.436-1.158.178-1.586.753-1.745 1.155z"/>
  <path fill="#31446C" d="M506.86 327.082h11.174c.537-.66.339-3.099.259-3.896l-.028-.254s-3.816-3.075-4.34-.72a2.795 2.795 0 01-.057.218c-.659 2.202-3.621 3.203-5.331 3.482-1.113.181-1.524.763-1.677 1.17z"/>
  <path fill="#666AF6" d="M502.535 275.363s.542 5.936 1.179 13.07c.865 9.693 1.906 21.599 2.009 23.854.179 3.917.892 10.181.892 10.181s1.694 1.489 5.084.861c0 0 3.022-8.943 3.885-18.406l.04-.467c.803-9.633 2.05-29.917 2.05-29.917l-15.139.824z"/>
  <path fill="#666AF6" d="M505.419 275.559s1.036 5.934 2.267 13.066c1.673 9.69 3.705 21.594 3.993 23.854.499 3.926 1.739 10.179 1.739 10.179s1.869 1.394 5.319.559c0 0 2.402-9.171 2.533-18.734l.003-.472c.055-9.73-.287-30.192-.287-30.192l-15.567 1.74z"/>
  <path fill="#31446C" d="M501.941 277.453c.116.098.25.158.404.158 1.442-.02 5.645.804 9.201.428 2.998-.296 5.653-1.209 8.502-2.522.379-.175 1.249-.653 1.231-1.087a60.676 60.676 0 00-.117-2.037c-.202-3.025-.553-8.226-.21-14.228a65.28 65.28 0 00.098-3.317c.029-8.134-1.539-15.288-4.692-17.709-.27-.197-1.923.633-3.442 1.402-1.403.712-2.504.787-3.83.511l-1.628 1.208c-1.614 1.541-3.383 3.637-4.152 6.817-.654 2.708-1.038 7.589-1.249 12.648a210.876 210.876 0 00-.193 6.798v.078c-.018.218-.018.455-.018.673-.078 5.634 0 10.1.095 10.179z"/>
  <path fill="#31446C" d="M528.2 273.746c-1.243.167-2.569-.005-2.569-.005s-2.997-11.361-3.407-12.405c-.411-1.045-10.072-13.695-10.072-13.695l4.943-10.447s10.129 19.174 11.116 21.843c1.63 4.41 1.719 14.095 1.719 14.095s-.754.484-1.73.614zm-11.949-43.972c-.357.73-1.39.837-1.295.033.108-.915.107-2.113-.645-1.89-.752.222-.791.819-1.1.471-.308-.348-.314-1.814-2.553-1.917-2.24-.102-3.15.669-4.19.215-.623-.271-.893-.938-1.01-1.43-.033-.14.07-.335.164-.226.089.103.313.096.249-.023-.394-.741-.984-2.357.519-3.562 2.012-1.611 4.062-.557 5.226-.487 2.564.153 4.221.305 5.058 1.973.694 1.383.575 4.8-.423 6.843z"/>
  <path id="#stars" fill="#E1E4E5" d="M425.723 232.17h.049c.286 3.828 3.303 3.886 3.303 3.886s-3.327.062-3.327 4.485c0-4.423-3.327-4.485-3.327-4.485s3.016-.058 3.302-3.886zm-32.385 14.3h.03c.181 2.712 2.087 2.753 2.087 2.753s-2.102.044-2.102 3.177c0-3.133-2.101-3.177-2.101-3.177s1.905-.041 2.086-2.753zm-8.066 29.996h.051c.301 3.988 3.477 4.049 3.477 4.049s-3.502.064-3.502 4.671c0-4.607-3.502-4.671-3.502-4.671s3.175-.061 3.476-4.049zm-48.68 6.627h.051c.302 3.988 3.478 4.049 3.478 4.049s-3.503.064-3.503 4.671c0-4.607-3.502-4.671-3.502-4.671s3.175-.061 3.476-4.049zm29.945-35.228h.048c.287 4.147 3.304 4.211 3.304 4.211s-3.327.066-3.327 4.858c0-4.792-3.327-4.858-3.327-4.858s3.016-.064 3.302-4.211zm110.842-35.228h.051c.301 3.988 3.477 4.049 3.477 4.049s-3.502.064-3.502 4.671c0-4.607-3.502-4.671-3.502-4.671s3.174-.061 3.476-4.049z"/>
  <path id="#circle2" class="circle" fill="#666AF6" d="M547.165 257c-3.405 0-6.165 2.772-6.165 6.191s2.76 6.191 6.165 6.191c3.404 0 6.164-2.772 6.164-6.191s-2.76-6.191-6.164-6.191z"/>
  <path fill="#fff" fill-rule="evenodd" d="M27.251 325.788h2.866c.693 0 1.252.564 1.252 1.251v2.866a1.254 1.254 0 01-1.252 1.252h-2.866A1.257 1.257 0 0126 329.905v-2.866a1.25 1.25 0 011.251-1.251zm9.938 0h2.865a1.256 1.256 0 011.252 1.251v2.866a1.254 1.254 0 01-1.252 1.252H37.19a1.257 1.257 0 01-1.252-1.252v-2.866a1.258 1.258 0 011.252-1.251zm9.944 0h2.866a1.254 1.254 0 011.25 1.251v2.866a1.255 1.255 0 01-1.25 1.252h-2.867a1.256 1.256 0 01-1.25-1.252v-2.866a1.245 1.245 0 01.771-1.157c.152-.063.315-.095.48-.094zm9.937 0h2.866a1.252 1.252 0 011.25 1.251v2.866a1.254 1.254 0 01-1.25 1.252H57.07a1.259 1.259 0 01-1.257-1.252v-2.866a1.265 1.265 0 011.257-1.251zm9.938 0h2.867c.692 0 1.256.564 1.256 1.251v2.866a1.254 1.254 0 01-1.257 1.252h-2.866a1.256 1.256 0 01-1.25-1.252v-2.866a1.254 1.254 0 011.25-1.251zm-29.455 10.837h2.866a1.256 1.256 0 011.251 1.251v2.873A1.254 1.254 0 0140.42 342h-2.867a1.25 1.25 0 01-1.251-1.251v-2.867a1.25 1.25 0 011.251-1.257zm9.938 0h2.865a1.255 1.255 0 011.251 1.251v2.873a1.253 1.253 0 01-1.25 1.251H47.49a1.253 1.253 0 01-1.252-1.251v-2.867a1.252 1.252 0 011.252-1.257zm9.937 0h2.867c.693 0 1.257.564 1.257 1.251v2.873A1.257 1.257 0 0160.295 342h-2.867a1.256 1.256 0 01-1.25-1.251v-2.867c0-.693.564-1.257 1.25-1.257zm-10.295-22.48h2.866a1.26 1.26 0 011.25 1.251v2.867a1.25 1.25 0 01-1.25 1.251h-2.867a1.256 1.256 0 01-1.25-1.251v-2.867a1.25 1.25 0 011.25-1.251zm9.937 0h2.866a1.256 1.256 0 011.25 1.251v2.867a1.25 1.25 0 01-1.25 1.251H57.07a1.259 1.259 0 01-1.257-1.251v-2.867a1.265 1.265 0 011.257-1.251zm122.05-4.502h2.866c.693 0 1.251.563 1.251 1.25v2.867a1.251 1.251 0 01-1.251 1.252h-2.866a1.257 1.257 0 01-1.251-1.252v-2.867a1.232 1.232 0 01.365-.885 1.252 1.252 0 01.886-.365zm9.937 0h2.866a1.257 1.257 0 011.252 1.25v2.867a1.26 1.26 0 01-.367.885 1.26 1.26 0 01-.885.367h-2.866a1.26 1.26 0 01-1.251-1.252v-2.867a1.252 1.252 0 011.251-1.25zm9.944 0h2.867a1.257 1.257 0 011.25 1.25v2.867a1.254 1.254 0 01-1.25 1.252h-2.867a1.26 1.26 0 01-1.251-1.252v-2.867a1.252 1.252 0 011.251-1.25zm9.937 0h2.867a1.255 1.255 0 011.251 1.25v2.867a1.26 1.26 0 01-.367.885 1.26 1.26 0 01-.884.367h-2.867c-.332 0-.651-.132-.886-.367a1.25 1.25 0 01-.37-.885v-2.867a1.262 1.262 0 011.256-1.25zm9.939 0h2.866c.693 0 1.257.563 1.257 1.25v2.867a1.254 1.254 0 01-1.257 1.252h-2.866a1.258 1.258 0 01-1.251-1.252v-2.867a1.253 1.253 0 011.251-1.25zm-29.455 10.837h2.866c.331.001.649.133.883.368.235.234.367.552.368.883v2.873a1.252 1.252 0 01-.368.883 1.252 1.252 0 01-.883.368h-2.866c-.332 0-.65-.132-.884-.367a1.247 1.247 0 01-.367-.884v-2.867a1.24 1.24 0 01.364-.889 1.25 1.25 0 01.887-.368zm9.937 0h2.866a1.254 1.254 0 011.252 1.251v2.873a1.26 1.26 0 01-1.252 1.251h-2.866a1.252 1.252 0 01-.883-.368 1.252 1.252 0 01-.368-.883v-2.867a1.26 1.26 0 01.364-.889 1.262 1.262 0 01.887-.368zm9.938 0h2.867c.692 0 1.256.564 1.256 1.251v2.873a1.254 1.254 0 01-1.256 1.251h-2.867a1.26 1.26 0 01-1.251-1.251v-2.867c0-.693.564-1.257 1.251-1.257zM199.001 298h2.867a1.253 1.253 0 011.25 1.251v2.867a1.254 1.254 0 01-1.25 1.251h-2.867a1.26 1.26 0 01-1.251-1.251v-2.867a1.252 1.252 0 011.251-1.251zm9.937 0h2.867a1.26 1.26 0 011.251 1.251v2.867a1.25 1.25 0 01-1.251 1.251h-2.867a1.257 1.257 0 01-1.256-1.251v-2.867a1.262 1.262 0 011.256-1.251z" clip-rule="evenodd"/>
  <path fill="#E1E4E5" d="M274.637 325.103l10.435-10.435a.973.973 0 10-1.376-1.376l-10.435 10.435a.973.973 0 101.376 1.376zM275.658 317.632l3.01-3.009a.973.973 0 10-1.376-1.376l-3.01 3.009a.973.973 0 000 1.376h.001c.38.38.996.38 1.375 0z"/>
  <path fill="#666AF6" d="M162.383 435H99.617c-4.752 0-8.617-3.865-8.617-8.617v-62.766c0-4.752 3.865-8.617 8.617-8.617h62.766c4.752 0 8.617 3.865 8.617 8.617v62.766a8.614 8.614 0 01-8.617 8.617z"/>
  <path stroke="#fff" stroke-linecap="round" stroke-linejoin="round" stroke-width="6" d="M135.773 380.946l-7.929 28.649m-10.033-4.776l-9.514-9.549 9.514-9.55v19.099zm28.541-19.099l9.513 9.55-9.513 9.549V385.72z"/>
  <path id="#rt" fill="#fff" stroke="#E1E4E5" stroke-width="4" d="M556.151 153.936H404.142c-4.476 0-8.106-3.645-8.106-8.141V50.141c0-4.496 3.63-8.141 8.106-8.141h152.009c4.476 0 8.106 3.645 8.106 8.14v95.655c0 4.496-3.63 8.141-8.106 8.141z"/>
  <path fill="#fff" stroke="#E1E4E5" stroke-width="4" d="M564.257 52.686H396.036v-2.545c0-4.496 3.63-8.141 8.106-8.141h152.009c4.476 0 8.106 3.645 8.106 8.14v2.546z"/>
  <path id="#rt-cont" fill="#E1E4E5" d="M404.158 49.617a1.875 1.875 0 001.737-1.166 1.905 1.905 0 000-1.445 1.89 1.89 0 00-1.018-1.022 1.876 1.876 0 00-2.049.41 1.895 1.895 0 00.001 2.67c.352.354.83.553 1.329.553zm7.834 0a1.871 1.871 0 001.345-.544 1.898 1.898 0 000-2.688 1.875 1.875 0 00-2.659.017 1.894 1.894 0 000 2.653c.347.354.819.556 1.314.562zm7.52 0a1.871 1.871 0 001.346-.544 1.892 1.892 0 00-1.346-3.233 1.876 1.876 0 00-1.314.562 1.894 1.894 0 000 2.653c.348.354.82.556 1.314.562zm-14.356 13.682l3.719 1.318v1.834l-5.618-2.392v-1.546l5.618-2.392v1.835l-3.719 1.343zm5.866 4.87h-1.403l3.498-10.361h1.402l-3.497 10.36zm8.254-4.89l-3.791-1.33v-1.822l5.683 2.392v1.54l-5.683 2.399v-1.829l3.791-1.35zM468.708 61.575h-41.362a1.57 1.57 0 00-1.567 1.574c0 .869.701 1.573 1.567 1.573h41.362a1.57 1.57 0 001.567-1.573 1.57 1.57 0 00-1.567-1.574zM468.708 88.954h-41.362a1.57 1.57 0 00-1.567 1.574c0 .869.701 1.573 1.567 1.573h41.362a1.57 1.57 0 001.567-1.573 1.57 1.57 0 00-1.567-1.574zM501.296 116.333h41.362c.865 0 1.567.705 1.567 1.574a1.57 1.57 0 01-1.567 1.573h-41.362a1.57 1.57 0 01-1.567-1.573c0-.869.702-1.574 1.567-1.574zM501.296 70.702h41.362a1.57 1.57 0 011.567 1.573 1.57 1.57 0 01-1.567 1.574h-41.362a1.57 1.57 0 01-1.567-1.574 1.57 1.57 0 011.567-1.573zM501.296 98.08h41.362a1.57 1.57 0 011.567 1.574c0 .869-.702 1.574-1.567 1.574h-41.362a1.571 1.571 0 01-1.567-1.574 1.57 1.57 0 011.567-1.573zM468.708 125.46h-41.362a1.57 1.57 0 00-1.567 1.573 1.57 1.57 0 001.567 1.574h41.362c.865 0 1.567-.705 1.567-1.574a1.57 1.57 0 00-1.567-1.573zM501.296 79.828h41.362a1.57 1.57 0 011.567 1.574 1.57 1.57 0 01-1.567 1.573h-41.362a1.57 1.57 0 01-1.567-1.573c0-.87.702-1.574 1.567-1.574zM501.296 107.207h41.362a1.57 1.57 0 011.567 1.573c0 .869-.702 1.574-1.567 1.574h-41.362a1.571 1.571 0 01-1.567-1.574 1.57 1.57 0 011.567-1.573zM468.708 134.586h-41.362a1.57 1.57 0 00-1.567 1.573 1.57 1.57 0 001.567 1.574h41.362c.865 0 1.567-.705 1.567-1.574a1.57 1.57 0 00-1.567-1.573zM492.209 61.575h-14.727a1.57 1.57 0 00-1.567 1.574c0 .869.701 1.573 1.567 1.573h14.727a1.57 1.57 0 001.567-1.573 1.57 1.57 0 00-1.567-1.574zM492.209 88.954h-14.727a1.57 1.57 0 00-1.567 1.574c0 .869.701 1.573 1.567 1.573h14.727a1.57 1.57 0 001.567-1.573 1.57 1.57 0 00-1.567-1.574zM477.795 116.333h14.727c.865 0 1.567.705 1.567 1.574a1.57 1.57 0 01-1.567 1.573h-14.727a1.57 1.57 0 01-1.567-1.573 1.57 1.57 0 011.567-1.574zM477.795 70.702h14.727a1.57 1.57 0 011.567 1.573 1.57 1.57 0 01-1.567 1.574h-14.727a1.57 1.57 0 01-1.567-1.574 1.57 1.57 0 011.567-1.573zM477.795 98.08h14.727a1.57 1.57 0 011.567 1.574c0 .869-.702 1.574-1.567 1.574h-14.727a1.57 1.57 0 01-1.567-1.574 1.57 1.57 0 011.567-1.573zM492.209 125.46h-14.727a1.57 1.57 0 00-1.567 1.573 1.57 1.57 0 001.567 1.574h14.727c.865 0 1.567-.705 1.567-1.574a1.57 1.57 0 00-1.567-1.573zM448.653 79.828h43.869a1.57 1.57 0 011.567 1.574 1.57 1.57 0 01-1.567 1.573h-43.869a1.57 1.57 0 01-1.566-1.573c0-.87.701-1.574 1.566-1.574zM448.653 107.207h43.869a1.57 1.57 0 011.567 1.573c0 .869-.702 1.574-1.567 1.574h-43.869a1.57 1.57 0 01-1.566-1.574 1.57 1.57 0 011.566-1.573zM521.35 134.586h-43.868a1.57 1.57 0 00-1.567 1.573 1.57 1.57 0 001.567 1.574h43.868a1.57 1.57 0 001.567-1.574 1.57 1.57 0 00-1.567-1.573zM521.35 61.575h-20.367a1.57 1.57 0 00-1.567 1.574c0 .869.701 1.573 1.567 1.573h20.367a1.57 1.57 0 001.567-1.573 1.57 1.57 0 00-1.567-1.574zM521.35 88.954h-20.367a1.57 1.57 0 00-1.567 1.574c0 .869.701 1.573 1.567 1.573h20.367a1.57 1.57 0 001.567-1.573 1.57 1.57 0 00-1.567-1.574zM448.654 116.333h20.367c.865 0 1.567.705 1.567 1.574a1.57 1.57 0 01-1.567 1.573h-20.367a1.57 1.57 0 01-1.567-1.573 1.57 1.57 0 011.567-1.574zM448.654 70.702h20.367a1.57 1.57 0 011.567 1.573 1.57 1.57 0 01-1.567 1.574h-20.367a1.57 1.57 0 01-1.567-1.574 1.57 1.57 0 011.567-1.573zM448.654 98.08h20.367a1.57 1.57 0 011.567 1.574c0 .869-.702 1.574-1.567 1.574h-20.367a1.57 1.57 0 01-1.567-1.574 1.57 1.57 0 011.567-1.573zM521.35 125.46h-20.367a1.57 1.57 0 00-1.567 1.573 1.57 1.57 0 001.567 1.574h20.367a1.57 1.57 0 001.567-1.574 1.57 1.57 0 00-1.567-1.573zM542.658 61.575h-12.534a1.57 1.57 0 00-1.567 1.574c0 .869.702 1.573 1.567 1.573h12.534a1.57 1.57 0 001.567-1.573 1.57 1.57 0 00-1.567-1.574zM542.658 88.954h-12.534a1.57 1.57 0 00-1.567 1.574c0 .869.702 1.573 1.567 1.573h12.534a1.57 1.57 0 001.567-1.573 1.57 1.57 0 00-1.567-1.574zM427.346 116.333h12.534a1.57 1.57 0 011.566 1.574 1.57 1.57 0 01-1.566 1.573h-12.534a1.57 1.57 0 01-1.567-1.573 1.57 1.57 0 011.567-1.574zM427.346 70.702h12.534a1.57 1.57 0 011.566 1.573 1.57 1.57 0 01-1.566 1.574h-12.534a1.57 1.57 0 01-1.567-1.574 1.57 1.57 0 011.567-1.573zM427.346 98.08h12.534a1.57 1.57 0 011.566 1.574 1.57 1.57 0 01-1.566 1.574h-12.534a1.57 1.57 0 01-1.567-1.574 1.57 1.57 0 011.567-1.573zM542.658 125.46h-12.534a1.57 1.57 0 00-1.567 1.573c0 .869.702 1.574 1.567 1.574h12.534c.865 0 1.567-.705 1.567-1.574a1.57 1.57 0 00-1.567-1.573zM427.346 79.828h12.534a1.57 1.57 0 011.566 1.574 1.57 1.57 0 01-1.566 1.573h-12.534a1.57 1.57 0 01-1.567-1.573c0-.87.701-1.574 1.567-1.574zM427.346 107.207h12.534a1.57 1.57 0 011.566 1.573 1.57 1.57 0 01-1.566 1.574h-12.534a1.57 1.57 0 01-1.567-1.574 1.57 1.57 0 011.567-1.573zM542.658 134.586h-12.534a1.57 1.57 0 00-1.567 1.573c0 .869.702 1.574 1.567 1.574h12.534c.865 0 1.567-.705 1.567-1.574a1.57 1.57 0 00-1.567-1.573z"/>
  <path id="#cklick-and-shield" fill="#666AF6" fill-rule="evenodd" d="M550.441 164.027l-10.402-33.359c-1.097-3.519 2.492-6.673 5.822-5.114l31.019 14.539c3.676 1.722 3.058 7.153-.912 7.994l-12.771 2.713-4.737 13.377c-1.365 3.841-6.804 3.735-8.019-.15zM415.246 96.922c0 11.186-8.372 21.646-19.623 24.186-11.251-2.54-19.623-13-19.623-24.186v-8.787c0-.979.29-1.935.833-2.747a4.906 4.906 0 012.216-1.813l12.264-5.04a11.331 11.331 0 018.62 0l12.264 5.04a4.909 4.909 0 012.216 1.813c.543.812.833 1.768.833 2.746v8.788z" clip-rule="evenodd"/>
  <path id="#shield-cont" stroke="#fff" stroke-linecap="round" stroke-linejoin="round" stroke-width="13.957" d="M402.28 95.278l-7.502 7.495-4.502-4.497"/>
  <path id="#circle3" class="circle" fill="#666AF6" d="M566.871 57.548a6.12 6.12 0 01-8.381-2.255c-1.695-2.948-.689-6.716 2.245-8.418a6.122 6.122 0 018.382 2.255c1.694 2.948.689 6.717-2.246 8.418z"/>
  <path fill="#E1E4E5" d="M556.677 72.138a2.752 2.752 0 01-3.769-1.015 2.778 2.778 0 011.01-3.785 2.752 2.752 0 013.769 1.014 2.778 2.778 0 01-1.01 3.786z"/>
  <path id="#circle4" class="circle" fill="#666AF6" d="M576.835 99.84c-3.404 0-6.164 2.772-6.164 6.191 0 3.42 2.76 6.192 6.164 6.192 3.405 0 6.165-2.772 6.165-6.192 0-3.419-2.76-6.19-6.165-6.19z"/>
  <path fill="#E1E4E5" d="M557.561 94.592a1.847 1.847 0 01.672 2.516 1.83 1.83 0 01-2.506.675 1.847 1.847 0 01-.671-2.517 1.83 1.83 0 012.505-.674zM409.256 123.953c-.806 0-1.46.657-1.46 1.467 0 .809.654 1.466 1.46 1.466.807 0 1.46-.657 1.46-1.466 0-.81-.653-1.467-1.46-1.467zM391.736 152.302a3.739 3.739 0 013.731 3.747 3.74 3.74 0 01-3.731 3.748 3.74 3.74 0 01-3.731-3.748 3.739 3.739 0 013.731-3.747zM409.256 142.527a2.438 2.438 0 01-2.433-2.444 2.438 2.438 0 012.433-2.444 2.439 2.439 0 012.434 2.444c0 1.35-1.09 2.444-2.434 2.444z"/>
  <path id="#circle5" class="circle" fill="#666AF6" d="M342.89 136.445c0-6.321-5.124-11.445-11.445-11.445-6.321 0-11.445 5.124-11.445 11.445 0 6.321 5.124 11.445 11.445 11.445 6.321 0 11.445-5.124 11.445-11.445z"/>
  <path fill="#fff" fill-rule="evenodd" d="M124.251 61.788h2.866c.693 0 1.252.564 1.252 1.25v2.867a1.254 1.254 0 01-1.252 1.252h-2.866A1.256 1.256 0 01123 65.905V63.04a1.25 1.25 0 011.251-1.251zm9.938 0h2.865a1.257 1.257 0 011.252 1.25v2.867a1.25 1.25 0 01-1.252 1.252h-2.865a1.258 1.258 0 01-1.252-1.252V63.04a1.256 1.256 0 011.252-1.251zm9.943 0h2.867a1.255 1.255 0 011.251 1.25v2.867a1.25 1.25 0 01-1.251 1.252h-2.867a1.258 1.258 0 01-1.25-1.252V63.04a1.232 1.232 0 01.365-.886 1.244 1.244 0 01.885-.365zm9.938 0h2.866a1.255 1.255 0 011.251 1.25v2.867a1.25 1.25 0 01-1.251 1.252h-2.866a1.258 1.258 0 01-1.257-1.252V63.04a1.266 1.266 0 011.257-1.251zm9.938 0h2.867c.692 0 1.256.564 1.256 1.25v2.867a1.254 1.254 0 01-1.256 1.252h-2.867a1.256 1.256 0 01-1.251-1.252V63.04a1.26 1.26 0 011.251-1.251zm-29.455 10.837h2.866a1.257 1.257 0 011.252 1.251v2.873A1.257 1.257 0 01137.419 78h-2.866a1.253 1.253 0 01-1.251-1.251v-2.867a1.258 1.258 0 01.364-.889 1.25 1.25 0 01.887-.368zm9.938 0h2.865a1.257 1.257 0 011.252 1.251v2.873A1.257 1.257 0 01147.356 78h-2.865a1.257 1.257 0 01-1.252-1.251v-2.867a1.258 1.258 0 01.364-.889 1.26 1.26 0 01.888-.368zm9.937 0h2.867c.693 0 1.257.564 1.257 1.251v2.873A1.258 1.258 0 01157.295 78h-2.867a1.258 1.258 0 01-1.25-1.251v-2.867c0-.693.563-1.257 1.25-1.257zm-10.296-22.48h2.867a1.255 1.255 0 011.251 1.251v2.867a1.25 1.25 0 01-1.251 1.252l-2.867-.001a1.257 1.257 0 01-1.25-1.251v-2.867a1.232 1.232 0 01.365-.885 1.243 1.243 0 01.885-.366zm9.938 0h2.866a1.255 1.255 0 011.251 1.251v2.867a1.25 1.25 0 01-1.251 1.252l-2.866-.001a1.257 1.257 0 01-1.257-1.251v-2.867a1.266 1.266 0 011.257-1.25zm122.05-4.503h2.866c.693 0 1.251.564 1.251 1.252v2.866a1.25 1.25 0 01-1.251 1.252h-2.866a1.258 1.258 0 01-1.251-1.252v-2.866a1.231 1.231 0 01.365-.886 1.246 1.246 0 01.886-.366zm9.937 0h2.866a1.257 1.257 0 011.252 1.252v2.866a1.254 1.254 0 01-1.252 1.252h-2.866a1.255 1.255 0 01-1.251-1.252v-2.866a1.252 1.252 0 011.251-1.252zm9.944 0h2.867a1.258 1.258 0 011.25 1.252v2.866a1.253 1.253 0 01-1.25 1.252h-2.867a1.256 1.256 0 01-1.251-1.252v-2.866a1.25 1.25 0 011.251-1.252zm9.937 0h2.867a1.256 1.256 0 011.251 1.252v2.866a1.254 1.254 0 01-1.251 1.252h-2.867a1.255 1.255 0 01-1.256-1.252v-2.866a1.262 1.262 0 011.256-1.252zm9.939 0h2.866c.693 0 1.257.564 1.257 1.252v2.866a1.254 1.254 0 01-1.257 1.252h-2.866a1.254 1.254 0 01-1.251-1.252v-2.866a1.252 1.252 0 011.251-1.252zM286.422 56.48h2.866a1.254 1.254 0 011.251 1.251v2.873a1.252 1.252 0 01-1.251 1.25h-2.866a1.249 1.249 0 01-1.251-1.25v-2.867a1.24 1.24 0 01.364-.889 1.239 1.239 0 01.887-.368zm9.937 0h2.866a1.257 1.257 0 011.252 1.251v2.873a1.257 1.257 0 01-1.252 1.25h-2.866a1.255 1.255 0 01-1.251-1.25v-2.867a1.258 1.258 0 01.364-.889 1.25 1.25 0 01.887-.368zm9.938 0h2.867c.692 0 1.256.564 1.256 1.251v2.873a1.252 1.252 0 01-1.256 1.25h-2.867a1.255 1.255 0 01-1.251-1.25v-2.867c0-.693.564-1.257 1.251-1.257zM296.001 34h2.867a1.258 1.258 0 011.25 1.251v2.867a1.253 1.253 0 01-1.25 1.251h-2.867a1.256 1.256 0 01-1.251-1.251V35.25A1.25 1.25 0 01296.001 34zm9.937 0h2.867a1.256 1.256 0 011.251 1.251v2.867a1.254 1.254 0 01-1.251 1.252l-2.867-.001a1.255 1.255 0 01-1.256-1.251V35.25A1.262 1.262 0 01305.938 34z" clip-rule="evenodd"/>
  <path id="#circle6" class="circle" fill="#666AF6" d="M351.449 371.754a6.12 6.12 0 01-8.381-2.255c-1.694-2.948-.689-6.716 2.246-8.418a6.12 6.12 0 018.381 2.256c1.695 2.947.689 6.716-2.246 8.417z"/>
  <rect width="617" height="402" x="34.5" y="22.5" stroke="#fff" stroke-width="7" rx="42.5"/>
  <defs>
    <linearGradient id="paint0_linear" x1="212.061" x2="112.114" y1="366.051" y2="-85.049" gradientUnits="userSpaceOnUse">
      <stop stop-color="#fff"/>
      <stop offset="1" stop-color="#EEE"/>
    </linearGradient>
    <linearGradient id="paint1_linear" x1="226.35" x2="180.088" y1="202.773" y2="-5.971" gradientUnits="userSpaceOnUse">
      <stop stop-color="#fff"/>
      <stop offset="1" stop-color="#EEE"/>
    </linearGradient>
    <linearGradient id="paint2_linear" x1="115.487" x2="75.833" y1="311.109" y2="127.318" gradientUnits="userSpaceOnUse">
      <stop stop-color="#fff"/>
      <stop offset="1" stop-color="#EEE"/>
    </linearGradient>
    <linearGradient id="paint3_linear" x1="136.252" x2="186.931" y1="169.143" y2="154.941" gradientUnits="userSpaceOnUse">
      <stop stop-color="#fff"/>
      <stop offset="1" stop-color="#EEE"/>
    </linearGradient>
    <linearGradient id="paint4_linear" x1="434.288" x2="434.275" y1="340.65" y2="313.958" gradientUnits="userSpaceOnUse">
      <stop stop-color="#fff"/>
      <stop offset="1" stop-color="#EEE"/>
    </linearGradient>
  </defs>
</svg>


