<svg width="676" height="443" viewBox="0 0 676 443" fill="none" xmlns="http://www.w3.org/2000/svg">
<rect width="610" height="395" rx="39" fill="#14E1B7"/>
<path d="M545.645 361.045L545.017 373.046L545.004 373.331C544.968 374.034 545.192 374.726 545.633 375.275C546.074 375.825 546.7 376.193 547.395 376.312L557.273 377.961C557.437 377.989 557.594 378.028 557.744 378.081C558.787 378.459 559.557 379.414 559.624 380.545C560.12 387.197 561.935 393.684 564.961 399.629C565.084 399.877 565.167 400.136 565.218 400.394C565.306 400.886 565.267 401.393 565.103 401.866C564.939 402.339 564.656 402.761 564.281 403.093L557.951 408.533C557.552 408.886 557.257 409.342 557.1 409.851C556.942 410.359 556.927 410.902 557.056 411.419C557.144 411.729 557.275 412.047 557.472 412.338L564.42 422.47C564.833 423.074 565.459 423.501 566.173 423.666C566.886 423.83 567.636 423.721 568.273 423.359L577.921 417.869C578.387 417.604 578.92 417.478 579.455 417.506C579.991 417.534 580.507 417.715 580.944 418.027C584.675 420.632 588.744 422.716 593.039 424.221L593.051 424.228C593.607 424.419 594.092 424.775 594.442 425.249C594.791 425.723 594.988 426.291 595.007 426.88L595.386 438.188L595.411 438.757C595.431 439.465 595.717 440.14 596.211 440.649C596.705 441.157 597.372 441.461 598.08 441.502L610.315 442.199C611.035 442.237 611.745 442.007 612.307 441.555C612.869 441.103 613.245 440.459 613.363 439.747L615.153 428.729C615.245 428.135 615.523 427.585 615.948 427.16C616.373 426.735 616.922 426.456 617.516 426.364C622.621 425.518 627.563 423.881 632.165 421.513C633.341 420.923 634.765 421.203 635.633 422.217L642.106 429.751C642.574 430.299 643.229 430.655 643.944 430.749C644.659 430.842 645.383 430.667 645.977 430.258L656.099 423.309C656.673 422.91 657.078 422.311 657.233 421.629C657.387 420.947 657.281 420.231 656.935 419.624L650.471 408.216C650.201 407.742 650.068 407.203 650.088 406.658C650.107 406.113 650.278 405.585 650.581 405.132C652.788 401.847 654.603 398.314 655.988 394.607C656.174 394.078 656.518 393.619 656.972 393.29C657.426 392.962 657.969 392.779 658.53 392.767L672.085 392.383C672.801 392.361 673.484 392.07 673.996 391.569C674.509 391.068 674.814 390.392 674.852 389.676L675.506 377.364C675.533 376.732 675.354 376.109 674.995 375.589C674.636 375.068 674.117 374.679 673.517 374.481C673.391 374.442 673.254 374.397 673.115 374.384L660.918 372.338C660.363 372.251 659.846 372.003 659.432 371.624C659.018 371.246 658.724 370.753 658.589 370.209C658.562 370.111 658.534 370.016 658.527 369.913C658.483 369.611 658.446 369.328 658.371 369.026C657.789 365.496 656.832 362.038 655.516 358.711C655.058 357.605 655.384 356.322 656.309 355.54L664.215 348.709C665.337 347.745 665.542 346.067 664.695 344.839L663.154 342.583L657.754 334.726C657.348 334.13 656.733 333.708 656.031 333.545C655.329 333.381 654.591 333.487 653.964 333.842L644.46 339.25C643.448 339.836 642.191 339.696 641.292 338.943C638.887 336.922 636.301 335.129 633.566 333.587C631.52 332.431 629.395 331.422 627.207 330.567L627.132 328.193L626.804 318.457C626.789 317.876 626.595 317.315 626.247 316.85C625.9 316.385 625.416 316.04 624.864 315.862C624.63 315.783 624.386 315.739 624.14 315.73L611.824 315.004C610.367 314.93 609.099 315.975 608.855 317.402L607.646 324.933C607.44 326.204 606.379 327.202 605.097 327.309C599.805 327.743 594.617 329.018 589.728 331.086C588.575 331.575 587.261 331.273 586.485 330.331L578.302 320.805C577.859 320.292 577.242 319.96 576.57 319.872C575.898 319.784 575.217 319.947 574.658 320.329L564.437 327.371C563.853 327.768 563.442 328.371 563.284 329.059C563.127 329.746 563.235 330.468 563.588 331.08L570.316 342.947C570.602 343.443 570.732 344.015 570.689 344.586C570.646 345.158 570.431 345.704 570.074 346.152C568.493 348.167 567.076 350.305 565.835 352.545C565.155 353.76 564.526 355.004 563.95 356.272C563.729 356.754 563.378 357.166 562.937 357.461C562.496 357.756 561.982 357.922 561.452 357.943L548.458 358.315C547.732 358.335 547.04 358.626 546.519 359.132C545.998 359.637 545.686 360.32 545.645 361.045ZM593.571 398.861C590.878 396.916 588.401 394.41 586.244 391.301C585.778 390.647 585.338 389.862 584.914 389.017C583.131 385.354 581.968 380.411 582.168 376.873C583.748 349.813 615.867 340.515 631.763 362.04C632.019 362.397 632.277 362.754 632.527 363.124C634.878 366.554 636.618 372.8 636.421 376.943C636.321 379.023 636.029 381.09 635.547 383.116C630.808 402.476 608.924 409.925 593.571 398.861Z" fill="#8498AF"/>
<path d="M136.89 305.445C136.89 299.124 131.766 294 125.445 294C119.124 294 114 299.124 114 305.445C114 311.766 119.124 316.89 125.445 316.89C131.766 316.89 136.89 311.766 136.89 305.445Z" fill="#666AF6"/>
<path d="M275.97 202.175C277.454 229.514 223.983 285.106 158.076 264.53C127.424 254.959 130.02 239.074 106.712 218.139C92.8193 205.661 72.8575 196.226 67.3057 178.088C62.5095 162.434 65.4507 145.607 73.7656 134.662C92.466 110.047 130.219 93.1926 167.417 131.975C204.615 170.756 272.134 131.665 275.97 202.175Z" fill="url(#paint0_linear)"/>
<path d="M261.592 142.514C256.36 151.812 244.903 153.09 226.548 151.323C212.743 149.991 200.155 148.961 186.349 141.465C176.686 136.223 169.037 129.129 163.454 122.239C157.405 114.776 148.961 106.258 153.1 97.7955C158.789 86.1709 191.686 76.3804 223.63 92.3912C258.721 109.984 266.709 133.427 261.592 142.514Z" fill="url(#paint1_linear)"/>
<path d="M129.04 255.489C116.902 238.546 104.471 220.538 88.1964 211.668C71.4099 202.515 68.3138 208.156 67.1519 217.125C65.9899 226.094 71.1692 247.343 94.0785 259.433C116.993 271.527 140.398 271.346 129.04 255.489Z" fill="url(#paint2_linear)"/>
<path d="M269.457 254H72.5433C66.7215 254 62 249.294 62 243.491V120.509C62 114.706 66.7215 110 72.5433 110H269.457C275.279 110 280 114.706 280 120.509V243.491C280 249.294 275.279 254 269.457 254Z" fill="white" stroke="#E1E4E5" stroke-width="4"/>
<path d="M280 120.643C280 121.533 279.649 122.387 279.026 123.017C278.402 123.646 277.556 124 276.674 124H65.3261C64.444 124 63.5981 123.646 62.9743 123.017C62.3506 122.387 62.0001 121.533 62 120.643C62 114.766 66.7215 110 72.5433 110H269.457C275.279 110 280 114.766 280 120.643Z" fill="white" stroke="#E1E4E5" stroke-width="4"/>
<path d="M72.4276 120C72.7531 120.004 73.0763 119.942 73.3782 119.819C73.6802 119.695 73.955 119.512 74.1867 119.279C74.4184 119.046 74.6023 118.769 74.7279 118.464C74.8534 118.159 74.9181 117.831 74.9181 117.5C74.9181 117.169 74.8534 116.841 74.7279 116.536C74.6023 116.231 74.4184 115.954 74.1867 115.721C73.955 115.488 73.6802 115.305 73.3782 115.181C73.0763 115.057 72.7531 114.996 72.4276 115C71.7809 115.009 71.1635 115.276 70.7091 115.744C70.2548 116.211 70 116.842 70 117.5C70 118.157 70.2548 118.789 70.7091 119.256C71.1635 119.724 71.7809 119.991 72.4276 120ZM82.6733 120C82.9988 120.004 83.322 119.942 83.6239 119.819C83.9259 119.695 84.2007 119.512 84.4324 119.279C84.6641 119.046 84.848 118.769 84.9736 118.464C85.0991 118.159 85.1638 117.831 85.1638 117.5C85.1638 117.169 85.0991 116.841 84.9736 116.536C84.848 116.231 84.6641 115.954 84.4324 115.721C84.2007 115.488 83.9259 115.305 83.6239 115.181C83.322 115.057 82.9988 114.996 82.6733 115C82.0266 115.009 81.4092 115.276 80.9548 115.744C80.5005 116.211 80.2457 116.842 80.2457 117.5C80.2457 118.157 80.5005 118.789 80.9548 119.256C81.4092 119.724 82.0266 119.991 82.6733 120ZM92.5095 120C92.835 120.004 93.1582 119.942 93.4601 119.819C93.7621 119.695 94.0369 119.512 94.2686 119.279C94.5003 119.046 94.6842 118.769 94.8098 118.464C94.9353 118.159 95 117.831 95 117.5C95 117.169 94.9353 116.841 94.8098 116.536C94.6842 116.231 94.5003 115.954 94.2686 115.721C94.0369 115.488 93.7621 115.305 93.4601 115.181C93.1582 115.057 92.835 114.996 92.5095 115C91.8628 115.009 91.2454 115.276 90.791 115.744C90.3367 116.211 90.0819 116.842 90.0819 117.5C90.0819 118.157 90.3367 118.789 90.791 119.256C91.2454 119.724 91.8628 119.991 92.5095 120Z" fill="#E1E4E5"/>
<path d="M133.638 143H51.3622C48.953 143 47 145.015 47 147.5V174.5C47 176.985 48.953 179 51.3622 179H133.638C136.047 179 138 176.985 138 174.5V147.5C138 145.015 136.047 143 133.638 143Z" fill="#666AF6"/>
<path d="M126.932 154H75.0683C73.926 154 73 154.895 73 156C73 157.105 73.926 158 75.0683 158H126.932C128.074 158 129 157.105 129 156C129 154.895 128.074 154 126.932 154Z" fill="white"/>
<path d="M106.947 163H75.0528C73.9191 163 73 164.119 73 165.5C73 166.881 73.9191 168 75.0528 168H106.947C108.081 168 109 166.881 109 165.5C109 164.119 108.081 163 106.947 163Z" fill="white"/>
<path d="M61.5 168C65.0898 168 68 164.866 68 161C68 157.134 65.0898 154 61.5 154C57.9101 154 55 157.134 55 161C55 164.866 57.9101 168 61.5 168Z" fill="white"/>
<path d="M263.575 183H189.425C186.981 183 185 184.969 185 187.397V255.603C185 258.031 186.981 260 189.425 260H263.575C266.019 260 268 258.031 268 255.603V187.397C268 184.969 266.019 183 263.575 183Z" fill="#666AF6"/>
<path d="M257.153 236H210.847C209.827 236 209 236.895 209 238C209 239.105 209.827 240 210.847 240H257.153C258.173 240 259 239.105 259 238C259 236.895 258.173 236 257.153 236Z" fill="white"/>
<path d="M209 197.87V226.13C209 227.163 209.895 228 211 228H211C212.105 228 213 227.163 213 226.13V197.87C213 196.837 212.105 196 211 196H211C209.895 196 209 196.837 209 197.87Z" fill="white"/>
<path d="M225 197.87V226.13C225 227.163 225.895 228 227 228H227C228.105 228 229 227.163 229 226.13V197.87C229 196.837 228.105 196 227 196H227C225.895 196 225 196.837 225 197.87Z" fill="white"/>
<path d="M242 197.87V226.13C242 227.163 242.672 228 243.5 228H243.5C244.329 228 245 227.163 245 226.13V197.87C245 196.837 244.329 196 243.5 196H243.5C242.672 196 242 196.837 242 197.87Z" fill="white"/>
<path d="M240.118 244H210.882C209.842 244 209 244.895 209 246C209 247.105 209.842 248 210.882 248H240.118C241.158 248 242 247.105 242 246C242 244.895 241.158 244 240.118 244Z" fill="white"/>
<path d="M217 208.68V226.32C217 227.248 217.895 228 219 228H219C220.105 228 221 227.248 221 226.32V208.68C221 207.752 220.105 207 219 207H219C217.895 207 217 207.752 217 208.68Z" fill="white"/>
<path d="M234 208.68V226.32C234 227.248 234.671 228 235.5 228H235.5C236.329 228 237 227.248 237 226.32V208.68C237 207.752 236.329 207 235.5 207H235.5C234.671 207 234 207.752 234 208.68Z" fill="white"/>
<path d="M250 208.68V226.32C250 227.248 250.671 228 251.5 228H251.5C252.329 228 253 227.248 253 226.32V208.68C253 207.752 252.329 207 251.5 207H251.5C250.671 207 250 207.752 250 208.68Z" fill="white"/>
<path d="M199 248C202.314 248 205 245.314 205 242C205 238.686 202.314 236 199 236C195.686 236 193 238.686 193 242C193 245.314 195.686 248 199 248Z" fill="white"/>
<path d="M287.864 120H210.136C206.195 120 203 123.167 203 127.073V146.927C203 150.833 206.195 154 210.136 154H287.864C291.805 154 295 150.833 295 146.927V127.073C295 123.167 291.805 120 287.864 120Z" fill="white" stroke="#E1E4E5" stroke-width="4"/>
<path d="M283.895 130H231.105C229.942 130 229 130.895 229 132C229 133.105 229.942 134 231.105 134H283.895C285.058 134 286 133.105 286 132C286 130.895 285.058 130 283.895 130Z" fill="#E1E4E5"/>
<path d="M263.89 139H231.11C229.945 139 229 140.119 229 141.5C229 142.881 229.945 144 231.11 144H263.89C265.055 144 266 142.881 266 141.5C266 140.119 265.055 139 263.89 139Z" fill="#E1E4E5"/>
<path fill-rule="evenodd" clip-rule="evenodd" d="M217 146C212.03 146 208 141.97 208 137C208 132.03 212.03 128 217 128C221.97 128 226 132.03 226 137C226 141.97 221.97 146 217 146Z" fill="#666AF6"/>
<path d="M220 135L216.251 139L214 136.6" stroke="white" stroke-width="3.568" stroke-linecap="round" stroke-linejoin="round"/>
<path d="M202.9 175.622C202.234 175.357 201.669 175.001 201.279 174.718C201.205 174.664 201.142 174.593 201.095 174.511C201.047 174.429 201.017 174.337 201.005 174.241C200.994 174.145 201.001 174.047 201.027 173.955C201.053 173.862 201.097 173.776 201.156 173.703C201.258 173.577 201.399 173.495 201.553 173.473C201.707 173.451 201.864 173.491 201.993 173.584C202.315 173.818 202.788 174.119 203.34 174.338L203.402 174.362C204.715 174.862 205.844 174.656 206.756 173.748C207.263 173.244 207.708 172.785 208.101 172.38C209.838 170.587 210.795 169.6 212.622 169.342C214.486 169.08 215.71 170.572 216.79 171.89C217.565 172.835 218.298 173.728 219.048 173.689L219.212 173.681L219.311 173.734C219.439 173.769 220.701 174.034 222.514 171.57C223.649 170.026 224.724 169.195 225.799 169.031C226.516 168.921 227.126 169.116 227.651 169.404C227.731 169.447 227.802 169.508 227.858 169.583C227.915 169.658 227.956 169.744 227.979 169.837C228.002 169.931 228.006 170.028 227.992 170.123C227.977 170.218 227.944 170.309 227.895 170.389C227.809 170.529 227.678 170.629 227.527 170.671C227.377 170.714 227.217 170.694 227.079 170.617C226.302 170.18 225.239 170.071 223.512 172.419C221.305 175.42 219.53 175.216 218.989 175.059C217.691 175.056 216.749 173.907 215.837 172.795C214.883 171.632 213.981 170.532 212.788 170.7C211.375 170.899 210.625 171.673 208.983 173.368C208.533 173.834 208.079 174.296 207.621 174.754C206.342 176.026 204.723 176.331 202.939 175.637C202.925 175.631 202.913 175.627 202.9 175.622Z" fill="#E1E4E5"/>
<path d="M228.9 171.622C228.233 171.357 227.669 171.001 227.279 170.718C227.205 170.664 227.142 170.593 227.095 170.511C227.048 170.429 227.017 170.336 227.005 170.241C226.994 170.145 227.001 170.047 227.027 169.955C227.053 169.862 227.097 169.776 227.156 169.703C227.258 169.577 227.399 169.495 227.553 169.473C227.707 169.451 227.864 169.491 227.993 169.584C228.315 169.818 228.788 170.119 229.34 170.338L229.402 170.362C230.715 170.862 231.844 170.656 232.756 169.748C233.263 169.244 233.708 168.785 234.101 168.38C235.838 166.587 236.795 165.6 238.622 165.343C240.486 165.08 241.71 166.573 242.79 167.89C243.565 168.835 244.298 169.728 245.048 169.689L245.212 169.681L245.311 169.735C245.439 169.769 246.701 170.034 248.514 167.57C249.649 166.026 250.724 165.195 251.799 165.031C252.516 164.922 253.126 165.116 253.651 165.404C253.731 165.447 253.802 165.508 253.858 165.583C253.915 165.658 253.956 165.745 253.979 165.838C254.002 165.931 254.006 166.028 253.992 166.123C253.977 166.218 253.944 166.309 253.895 166.389C253.809 166.529 253.678 166.63 253.527 166.672C253.377 166.714 253.217 166.694 253.079 166.617C252.302 166.18 251.239 166.071 249.512 168.42C247.305 171.42 245.53 171.216 244.989 171.06C243.691 171.056 242.749 169.907 241.837 168.795C240.883 167.631 239.981 166.532 238.788 166.7C237.375 166.899 236.625 167.673 234.983 169.368C234.533 169.834 234.079 170.296 233.621 170.754C232.342 172.026 230.723 172.331 228.939 171.637C228.925 171.631 228.913 171.627 228.9 171.622Z" fill="#E1E4E5"/>
<path d="M114 221.471H92.3109M82.5936 193.129L78.1559 197.578L76 195.421L82.5936 193.129ZM92.2086 191H105.324H92.2086ZM92.3109 197.529H114H92.3109ZM82.5936 208.364L78.1559 212.813L76 210.656L82.5936 208.364ZM92.2086 206.236H105.324H92.2086ZM92.3109 212.765H114H92.3109ZM114 228H92.2086H114Z" stroke="#E1E4E5" stroke-width="5.5" stroke-linecap="round" stroke-linejoin="round"/>
<path fill-rule="evenodd" clip-rule="evenodd" d="M196.619 157.461H195.746C195.645 157.461 195.548 157.421 195.477 157.35C195.406 157.279 195.365 157.182 195.365 157.081V156.21C195.365 155.999 195.537 155.83 195.746 155.83H196.619C196.72 155.83 196.817 155.871 196.888 155.942C196.959 156.013 197 156.109 197 156.21V157.081C197 157.131 196.99 157.181 196.971 157.227C196.952 157.273 196.924 157.315 196.889 157.351C196.853 157.386 196.811 157.414 196.765 157.433C196.719 157.452 196.669 157.462 196.619 157.461ZM193.593 157.461H192.72C192.619 157.461 192.522 157.421 192.451 157.35C192.38 157.279 192.339 157.182 192.339 157.081V156.21C192.339 155.999 192.511 155.83 192.72 155.83H193.593C193.694 155.83 193.79 155.871 193.862 155.942C193.933 156.013 193.973 156.109 193.974 156.21V157.081C193.973 157.182 193.933 157.279 193.862 157.35C193.79 157.421 193.694 157.461 193.593 157.461ZM190.564 157.461H189.692C189.591 157.461 189.494 157.421 189.423 157.35C189.351 157.279 189.311 157.182 189.311 157.081V156.21C189.311 155.999 189.482 155.83 189.692 155.83H190.564C190.774 155.83 190.946 156.001 190.946 156.21V157.081C190.946 157.131 190.936 157.181 190.917 157.227C190.898 157.273 190.87 157.315 190.834 157.35C190.799 157.386 190.757 157.414 190.71 157.433C190.664 157.452 190.615 157.462 190.564 157.461ZM187.538 157.461H186.666C186.565 157.461 186.468 157.421 186.396 157.35C186.325 157.279 186.285 157.182 186.284 157.081V156.21C186.284 155.999 186.456 155.83 186.666 155.83H187.538C187.749 155.83 187.921 156.001 187.921 156.21V157.081C187.92 157.182 187.879 157.279 187.808 157.35C187.736 157.421 187.639 157.461 187.538 157.461ZM184.512 157.461H183.639C183.538 157.461 183.441 157.422 183.369 157.35C183.297 157.279 183.257 157.182 183.256 157.081V156.21C183.256 155.999 183.428 155.83 183.639 155.83H184.512C184.613 155.83 184.709 155.871 184.781 155.942C184.852 156.013 184.892 156.109 184.893 156.21V157.081C184.892 157.182 184.852 157.279 184.781 157.35C184.709 157.421 184.613 157.461 184.512 157.461ZM193.482 154.168H192.609C192.508 154.167 192.412 154.127 192.34 154.056C192.269 153.985 192.228 153.888 192.228 153.788V152.915C192.228 152.706 192.4 152.534 192.609 152.534H193.482C193.693 152.534 193.863 152.706 193.863 152.915V153.786C193.863 153.836 193.854 153.886 193.835 153.932C193.816 153.978 193.788 154.02 193.752 154.056C193.717 154.091 193.675 154.12 193.628 154.139C193.582 154.158 193.532 154.168 193.482 154.168ZM190.456 154.168H189.583C189.482 154.167 189.385 154.127 189.314 154.056C189.242 153.985 189.202 153.888 189.202 153.788V152.915C189.202 152.706 189.373 152.534 189.583 152.534H190.456C190.665 152.534 190.837 152.706 190.837 152.915V153.786C190.837 153.836 190.827 153.886 190.808 153.932C190.789 153.978 190.761 154.02 190.726 154.056C190.69 154.091 190.648 154.12 190.602 154.139C190.555 154.158 190.506 154.168 190.456 154.168ZM187.429 154.168H186.556C186.455 154.168 186.358 154.128 186.286 154.057C186.214 153.985 186.174 153.889 186.173 153.788V152.915C186.173 152.706 186.345 152.534 186.556 152.534H187.429C187.638 152.534 187.81 152.706 187.81 152.915V153.786C187.81 153.887 187.77 153.984 187.699 154.055C187.627 154.127 187.53 154.167 187.429 154.168ZM190.564 161H189.692C189.591 161 189.494 160.959 189.423 160.888C189.351 160.817 189.311 160.72 189.311 160.62V159.749C189.311 159.538 189.482 159.368 189.692 159.368H190.564C190.774 159.368 190.946 159.54 190.946 159.749V160.62C190.946 160.67 190.936 160.719 190.917 160.765C190.898 160.811 190.87 160.853 190.834 160.889C190.799 160.924 190.757 160.952 190.71 160.971C190.664 160.99 190.615 161 190.564 161ZM187.538 161H186.666C186.565 161 186.468 160.959 186.396 160.888C186.325 160.817 186.285 160.72 186.284 160.62V159.749C186.284 159.538 186.456 159.368 186.666 159.368H187.538C187.749 159.368 187.921 159.54 187.921 159.749V160.62C187.92 160.72 187.879 160.817 187.808 160.888C187.736 160.959 187.639 160.999 187.538 161ZM181.363 143.927H180.49C180.389 143.927 180.292 143.887 180.221 143.816C180.15 143.744 180.11 143.648 180.109 143.547V142.676C180.109 142.465 180.281 142.296 180.49 142.296H181.363C181.464 142.296 181.561 142.336 181.632 142.407C181.703 142.479 181.744 142.575 181.744 142.676V143.547C181.744 143.597 181.734 143.646 181.715 143.693C181.696 143.739 181.668 143.781 181.633 143.816C181.597 143.851 181.555 143.879 181.509 143.898C181.463 143.918 181.413 143.927 181.363 143.927ZM178.337 143.927H177.464C177.363 143.927 177.266 143.887 177.195 143.815C177.124 143.744 177.083 143.648 177.083 143.547V142.676C177.083 142.465 177.255 142.296 177.464 142.296H178.337C178.438 142.296 178.534 142.336 178.606 142.407C178.677 142.479 178.717 142.575 178.718 142.676V143.547C178.717 143.648 178.677 143.744 178.606 143.815C178.534 143.887 178.438 143.927 178.337 143.927ZM175.309 143.927H174.436C174.335 143.927 174.238 143.887 174.167 143.815C174.095 143.744 174.055 143.648 174.055 143.547V142.676C174.055 142.465 174.226 142.296 174.436 142.296H175.309C175.518 142.296 175.69 142.467 175.69 142.676V143.547C175.69 143.597 175.68 143.646 175.661 143.693C175.642 143.739 175.614 143.781 175.578 143.816C175.543 143.851 175.501 143.879 175.454 143.898C175.408 143.917 175.359 143.927 175.309 143.927ZM172.282 143.927H171.409C171.308 143.927 171.212 143.887 171.14 143.815C171.069 143.744 171.029 143.648 171.028 143.547V142.676C171.028 142.465 171.2 142.296 171.409 142.296H172.282C172.493 142.296 172.665 142.467 172.665 142.676V143.547C172.664 143.648 172.623 143.744 172.551 143.815C172.48 143.886 172.383 143.926 172.282 143.927ZM169.256 143.927H168.383C168.282 143.927 168.185 143.887 168.113 143.816C168.041 143.745 168.001 143.648 168 143.547V142.676C168 142.465 168.172 142.296 168.383 142.296H169.256C169.357 142.296 169.453 142.336 169.525 142.407C169.596 142.479 169.636 142.575 169.637 142.676V143.547C169.636 143.648 169.596 143.744 169.525 143.815C169.453 143.887 169.357 143.927 169.256 143.927ZM178.226 140.633H177.353C177.252 140.633 177.155 140.593 177.084 140.522C177.013 140.451 176.972 140.354 176.972 140.253V139.38C176.972 139.171 177.144 139 177.353 139H178.226C178.437 139 178.607 139.171 178.607 139.38V140.251C178.607 140.301 178.597 140.351 178.578 140.397C178.559 140.444 178.531 140.486 178.496 140.522C178.461 140.557 178.418 140.585 178.372 140.604C178.326 140.624 178.276 140.633 178.226 140.633ZM175.2 140.633H174.327C174.226 140.633 174.129 140.593 174.058 140.522C173.986 140.451 173.946 140.354 173.946 140.253V139.38C173.946 139.171 174.117 139 174.327 139H175.2C175.409 139 175.58 139.171 175.58 139.38V140.251C175.581 140.301 175.571 140.351 175.552 140.397C175.533 140.444 175.505 140.486 175.47 140.522C175.434 140.557 175.392 140.585 175.346 140.604C175.299 140.624 175.25 140.633 175.2 140.633ZM172.173 140.633H171.3C171.199 140.633 171.102 140.593 171.03 140.522C170.958 140.451 170.918 140.354 170.917 140.253V139.38C170.917 139.171 171.089 139 171.3 139H172.173C172.382 139 172.554 139.171 172.554 139.38V140.251C172.554 140.352 172.514 140.449 172.443 140.521C172.371 140.592 172.274 140.633 172.173 140.633ZM175.309 147.466H174.436C174.335 147.465 174.238 147.425 174.167 147.354C174.095 147.282 174.055 147.186 174.055 147.085V146.214C174.055 146.004 174.226 145.834 174.436 145.834H175.309C175.518 145.834 175.69 146.005 175.69 146.214V147.085C175.69 147.135 175.68 147.185 175.661 147.231C175.642 147.277 175.614 147.319 175.578 147.354C175.543 147.39 175.501 147.418 175.454 147.437C175.408 147.456 175.359 147.466 175.309 147.466ZM172.282 147.466H171.409C171.308 147.465 171.212 147.425 171.14 147.354C171.069 147.282 171.029 147.186 171.028 147.085V146.214C171.028 146.004 171.2 145.834 171.409 145.834H172.282C172.493 145.834 172.665 146.005 172.665 146.214V147.085C172.664 147.186 172.623 147.282 172.551 147.353C172.48 147.424 172.383 147.465 172.282 147.466Z" fill="#E1E4E5"/>
<path d="M79.4998 231C81.9852 231 84 228.985 84 226.5C84 224.014 81.9852 222 79.4998 222C77.0148 222 75 224.014 75 226.5C75 228.985 77.0148 231 79.4998 231Z" stroke="#E1E4E5" stroke-width="5.5" stroke-linecap="round" stroke-linejoin="round"/>
<path d="M171 221.471H149.31M139.594 193.129L135.156 197.578L133 195.421L139.594 193.129ZM149.208 191H162.324H149.208ZM149.31 197.529H171H149.31ZM139.594 208.364L135.156 212.813L133 210.656L139.594 208.364ZM149.208 206.236H162.324H149.208ZM149.31 212.765H171H149.31ZM171 228H149.208H171Z" stroke="#E1E4E5" stroke-width="5.5" stroke-linecap="round" stroke-linejoin="round"/>
<path d="M136 231C138.209 231 140 228.985 140 226.5C140 224.014 138.209 222 136 222C133.791 222 132 224.014 132 226.5C132 228.985 133.791 231 136 231Z" stroke="#E1E4E5" stroke-width="5.5" stroke-linecap="round" stroke-linejoin="round"/>
<path d="M254.541 167.459C255.873 167.704 257.151 166.822 257.396 165.489C257.641 164.155 256.76 162.876 255.428 162.631C254.096 162.385 252.817 163.267 252.572 164.601C252.327 165.934 253.209 167.213 254.541 167.459Z" fill="#E1E4E5"/>
<path d="M146.903 165.848C148.323 171.152 153.77 174.3 159.07 172.878C164.37 171.457 167.515 166.005 166.095 160.701C164.675 155.396 159.228 152.249 153.928 153.67C148.628 155.091 145.483 160.543 146.903 165.848Z" fill="url(#paint3_linear)"/>
<path d="M149.645 165.112C150.659 168.901 154.55 171.149 158.336 170.134C162.121 169.119 164.368 165.225 163.353 161.436C162.339 157.647 158.448 155.399 154.663 156.414C150.877 157.429 148.63 161.324 149.645 165.112Z" fill="white"/>
<path d="M158.749 172.659C157.267 173.085 155.709 173.112 154.214 172.739C152.719 172.365 151.333 171.603 150.179 170.518C149.026 169.434 148.139 168.062 147.598 166.523C147.058 164.983 146.88 163.325 147.08 161.695C147.28 160.064 147.853 158.512 148.747 157.175C149.641 155.839 150.829 154.759 152.205 154.031C153.582 153.304 155.105 152.952 156.639 153.005C158.173 153.059 159.671 153.517 161 154.34L159.6 156.938C158.67 156.362 157.621 156.041 156.547 156.003C155.473 155.966 154.407 156.212 153.444 156.722C152.48 157.231 151.648 157.987 151.022 158.922C150.396 159.858 149.995 160.945 149.855 162.086C149.715 163.228 149.84 164.388 150.218 165.466C150.597 166.543 151.218 167.504 152.026 168.263C152.833 169.022 153.803 169.555 154.85 169.817C155.896 170.078 156.986 170.059 158.024 169.762L158.749 172.659Z" fill="#666AF6"/>
<path d="M38.896 84.448C38.896 77.5732 33.3228 72 26.448 72C19.5732 72 14 77.5732 14 84.448C14 91.3228 19.5732 96.896 26.448 96.896C33.3228 96.896 38.896 91.3228 38.896 84.448Z" fill="#666AF6"/>
<path d="M506.86 240.441C510.941 241.688 517.674 238.174 517.674 238.174C517.674 238.174 514.24 235.592 514.436 229.912L511.281 232.372L509.138 234.042C509.138 234.042 509.147 235.028 509.381 236.754C509.443 237.208 509.556 237.917 509.205 238.28C507.838 239.691 506.86 240.441 506.86 240.441Z" fill="#F8AE9D"/>
<path d="M508.175 234.101C508.175 234.101 514.911 235.173 515.544 231.147C516.176 227.121 517.471 224.548 513.197 223.694C508.923 222.84 507.843 224.255 507.291 225.55C506.739 226.844 506.439 233.719 508.175 234.101Z" fill="#F8AE9D"/>
<path d="M429 335C497.483 335 553 332.744 553 329.962C553 327.179 497.483 324.923 429 324.923C360.517 324.923 305 327.179 305 329.962C305 332.744 360.517 335 429 335Z" fill="url(#paint4_linear)"/>
<path d="M490.279 225.856L460.98 230.794L461.062 249.412L442.683 241.095L433.921 255.957L433.197 255.661L382.669 235.747L381.319 263.962L349.895 267.341L349.698 265.503L379.54 262.305L380.956 233.09L433.147 253.66L441.942 238.733L459.201 246.557L459.119 229.235L488.105 224.363L484.959 207.943L486.771 207.599L490.279 225.856Z" fill="white"/>
<path d="M384.327 230.659C386.019 231.427 386.758 233.406 386.002 235.073C385.23 236.758 383.243 237.493 381.552 236.725C379.86 235.957 379.121 233.978 379.893 232.31C380.074 231.911 380.332 231.551 380.654 231.251C380.975 230.952 381.353 230.719 381.765 230.565C382.177 230.412 382.616 230.341 383.055 230.357C383.495 230.373 383.927 230.476 384.327 230.659ZM382.011 259.664C383.703 260.433 384.442 262.411 383.67 264.079C382.898 265.763 380.911 266.499 379.219 265.73C377.527 264.962 376.788 262.983 377.56 261.316C378.332 259.648 380.32 258.896 382.011 259.664ZM435.522 250.148C437.213 250.917 437.952 252.895 437.181 254.563C436.408 256.247 434.421 256.983 432.746 256.214C431.054 255.446 430.315 253.467 431.087 251.8C431.842 250.116 433.83 249.38 435.522 250.148ZM443.898 236.136C445.59 236.904 446.329 238.883 445.573 240.551C445.39 240.95 445.13 241.311 444.807 241.61C444.484 241.91 444.105 242.143 443.692 242.296C443.278 242.449 442.839 242.52 442.398 242.504C441.957 242.488 441.523 242.385 441.122 242.202C439.431 241.433 438.691 239.455 439.447 237.787C440.219 236.12 442.206 235.368 443.898 236.136ZM461.226 226.572C461.627 226.753 461.989 227.012 462.29 227.334C462.591 227.655 462.825 228.032 462.979 228.444C463.133 228.856 463.204 229.294 463.188 229.733C463.172 230.172 463.069 230.603 462.884 231.003C462.112 232.686 460.125 233.422 458.45 232.654C456.758 231.885 456.019 229.907 456.791 228.239C456.971 227.838 457.228 227.477 457.549 227.176C457.87 226.875 458.247 226.64 458.659 226.485C459.072 226.33 459.511 226.258 459.951 226.273C460.392 226.287 460.825 226.389 461.226 226.572ZM490.477 221.764C492.169 222.532 492.908 224.511 492.136 226.178C491.953 226.578 491.693 226.938 491.37 227.238C491.047 227.538 490.668 227.771 490.255 227.924C489.841 228.078 489.401 228.148 488.96 228.132C488.519 228.116 488.086 228.013 487.685 227.83C487.283 227.648 486.922 227.389 486.621 227.068C486.32 226.746 486.086 226.369 485.932 225.957C485.778 225.546 485.707 225.108 485.723 224.669C485.739 224.23 485.842 223.798 486.026 223.399C486.798 221.731 488.785 220.996 490.477 221.764ZM487.373 204.302C489.048 205.071 489.804 207.049 489.048 208.717C488.276 210.401 486.289 211.137 484.597 210.368C484.196 210.187 483.834 209.928 483.533 209.606C483.232 209.285 482.998 208.908 482.844 208.496C482.69 208.084 482.619 207.646 482.635 207.207C482.651 206.768 482.755 206.337 482.939 205.937C483.694 204.286 485.681 203.534 487.373 204.302ZM351.561 263.85C353.236 264.602 353.991 266.596 353.22 268.264C352.448 269.948 350.46 270.684 348.785 269.915C347.093 269.147 346.354 267.169 347.11 265.501C347.882 263.817 349.869 263.081 351.561 263.85Z" fill="#666AF6"/>
<path d="M398.774 325.463V262.922H407.478V325.463H398.774ZM412.92 325.34V262.904H422.935V325.34H412.92ZM428.278 325.463V250.457H437.387V325.463H428.278ZM442.829 325.339V283.361H452.844V325.339H442.829ZM458.187 325.339V239.989H467.148V325.339H458.187ZM472.334 325.34V262.904H482.349V325.34H472.334ZM391.239 297.758V325.461L374.196 325.643L374.4 297.758H391.239ZM366.016 283.28V325.042L348.977 325.312L349.184 283.28H366.016Z" fill="white" stroke="white" stroke-width="4"/>
<path d="M419.247 304.798H399.115V326.353H419.247V304.798ZM392.925 304.798H372.793V326.353H392.925V304.798ZM366.32 293.972H346.093V326.363H366.32V293.972ZM443.253 301.483H424.968V326.354H443.253V301.483ZM467.209 311.708H447.094V326.353H467.209V311.708Z" fill="#666AF6"/>
<path d="M480.914 238.557C481.098 239.956 481.589 241.642 482.385 242.215C483.287 242.865 483.566 243.555 483.566 243.555L484.483 243.276L485.579 242.943C485.579 242.943 485.581 242.833 485.574 242.649C485.566 242.407 485.546 242.165 485.515 241.925C485.515 241.925 485.306 241.482 485.599 241.051C485.892 240.621 486.026 239.884 485.82 239.369C485.615 238.855 485.573 237.692 485.379 237.682C484.908 237.656 485.23 239.314 484.971 239.548C484.737 239.761 484.538 239.624 484.502 239.595L484.495 239.589C483.357 238.751 482.514 235.438 481.74 235.683C481.451 235.775 480.835 237.961 480.914 238.557ZM527.193 272.98C527.193 272.98 526.221 274.638 526.656 275.595C527.09 276.552 528.597 277.828 528.985 278.328C529.372 278.828 530.686 280.148 531.216 279.299C531.745 278.451 530.811 276.197 530.163 275.348C529.515 274.496 529.454 273.035 529.454 273.035L527.193 272.98Z" fill="#F8AE9D"/>
<path d="M526.326 275.258C526.326 275.258 526.419 277.259 526.529 277.793C526.641 278.329 526.75 278.165 527.176 277.805C527.601 277.446 527.596 276.399 527.756 276.33C527.916 276.261 526.326 275.258 526.326 275.258Z" fill="#F8AE9D"/>
<path d="M509.511 238.55C509.511 238.55 498.187 250.627 494.662 252.52L485.781 242.146C485.781 242.146 484.114 242.262 483.07 243.653C483.07 243.653 486.516 258.284 492.803 260.31C499.09 262.337 511.907 248.091 511.907 248.091L509.511 238.55ZM498.953 327.083H510.581C511.14 326.431 510.934 324.025 510.85 323.238C510.833 323.079 510.821 322.988 510.821 322.988C510.821 322.988 506.85 319.954 506.305 322.277C506.288 322.35 506.269 322.421 506.246 322.492C505.56 324.665 502.477 325.653 500.698 325.928C499.54 326.106 499.112 326.681 498.953 327.083Z" fill="#31446C"/>
<path d="M506.86 327.082H518.034C518.571 326.422 518.373 323.983 518.293 323.186C518.276 323.025 518.265 322.932 518.265 322.932C518.265 322.932 514.449 319.857 513.925 322.212C513.909 322.285 513.89 322.358 513.868 322.43C513.209 324.632 510.247 325.633 508.537 325.912C507.424 326.093 507.013 326.675 506.86 327.082Z" fill="#31446C"/>
<path d="M502.535 275.363C502.535 275.363 503.077 281.299 503.714 288.433C504.579 298.126 505.62 310.032 505.723 312.287C505.902 316.204 506.615 322.468 506.615 322.468C506.615 322.468 508.309 323.957 511.699 323.329C511.699 323.329 514.721 314.386 515.584 304.923L515.624 304.456C516.427 294.823 517.674 274.539 517.674 274.539L502.535 275.363Z" fill="#666AF6"/>
<path d="M505.419 275.559C505.419 275.559 506.455 281.493 507.686 288.625C509.359 298.315 511.391 310.219 511.679 312.479C512.178 316.405 513.418 322.658 513.418 322.658C513.418 322.658 515.287 324.052 518.737 323.217C518.737 323.217 521.139 314.046 521.27 304.483L521.273 304.011C521.328 294.281 520.986 273.819 520.986 273.819L505.419 275.559Z" fill="#666AF6"/>
<path d="M501.941 277.453C502.057 277.551 502.191 277.611 502.345 277.611C503.787 277.591 507.99 278.415 511.546 278.039C514.544 277.743 517.199 276.83 520.048 275.517C520.427 275.342 521.297 274.864 521.279 274.43C521.266 273.953 521.22 273.263 521.162 272.393C520.96 269.368 520.609 264.167 520.952 258.165C521.013 257.048 521.046 255.94 521.05 254.848C521.079 246.714 519.511 239.56 516.358 237.139C516.088 236.942 514.435 237.772 512.916 238.541C511.513 239.253 510.412 239.328 509.086 239.052L507.458 240.26C505.844 241.801 504.075 243.897 503.306 247.077C502.652 249.785 502.268 254.666 502.057 259.725C501.961 262.018 501.884 264.331 501.864 266.523V266.601C501.846 266.819 501.846 267.056 501.846 267.274C501.768 272.908 501.846 277.374 501.941 277.453Z" fill="#31446C"/>
<path d="M528.2 273.746C526.957 273.913 525.631 273.741 525.631 273.741C525.631 273.741 522.634 262.38 522.224 261.336C521.813 260.291 512.152 247.641 512.152 247.641L517.095 237.194C517.095 237.194 527.224 256.368 528.211 259.037C529.841 263.447 529.93 273.132 529.93 273.132C529.93 273.132 529.176 273.616 528.2 273.746ZM516.251 229.774C515.894 230.504 514.861 230.611 514.956 229.807C515.064 228.892 515.063 227.694 514.311 227.917C513.559 228.139 513.52 228.736 513.211 228.388C512.903 228.04 512.897 226.574 510.658 226.471C508.418 226.369 507.508 227.14 506.468 226.686C505.845 226.415 505.575 225.748 505.458 225.256C505.425 225.116 505.528 224.921 505.622 225.03C505.711 225.133 505.935 225.126 505.871 225.007C505.477 224.266 504.887 222.65 506.39 221.445C508.402 219.834 510.452 220.888 511.616 220.958C514.18 221.111 515.837 221.263 516.674 222.931C517.368 224.314 517.249 227.731 516.251 229.774Z" fill="#31446C"/>
<path d="M425.723 232.17H425.772C426.058 235.998 429.075 236.056 429.075 236.056C429.075 236.056 425.748 236.118 425.748 240.541C425.748 236.118 422.421 236.056 422.421 236.056C422.421 236.056 425.437 235.998 425.723 232.17ZM393.338 246.47H393.368C393.549 249.182 395.455 249.223 395.455 249.223C395.455 249.223 393.353 249.267 393.353 252.4C393.353 249.267 391.252 249.223 391.252 249.223C391.252 249.223 393.157 249.182 393.338 246.47ZM385.272 276.466H385.323C385.624 280.454 388.8 280.515 388.8 280.515C388.8 280.515 385.298 280.579 385.298 285.186C385.298 280.579 381.796 280.515 381.796 280.515C381.796 280.515 384.971 280.454 385.272 276.466ZM336.592 283.093H336.643C336.945 287.081 340.121 287.142 340.121 287.142C340.121 287.142 336.618 287.206 336.618 291.813C336.618 287.206 333.116 287.142 333.116 287.142C333.116 287.142 336.291 287.081 336.592 283.093ZM366.537 247.865H366.585C366.872 252.012 369.889 252.076 369.889 252.076C369.889 252.076 366.562 252.142 366.562 256.934C366.562 252.142 363.235 252.076 363.235 252.076C363.235 252.076 366.251 252.012 366.537 247.865ZM477.379 212.637H477.43C477.731 216.625 480.907 216.686 480.907 216.686C480.907 216.686 477.405 216.75 477.405 221.357C477.405 216.75 473.903 216.686 473.903 216.686C473.903 216.686 477.077 216.625 477.379 212.637Z" fill="#E1E4E5"/>
<path d="M547.165 257C543.76 257 541 259.772 541 263.191C541 266.61 543.76 269.382 547.165 269.382C550.569 269.382 553.329 266.61 553.329 263.191C553.329 259.772 550.569 257 547.165 257Z" fill="#666AF6"/>
<path fill-rule="evenodd" clip-rule="evenodd" d="M27.2514 325.788H30.1172C30.8102 325.788 31.3686 326.352 31.3686 327.039V329.905C31.3683 330.237 31.2364 330.555 31.0017 330.79C30.7671 331.025 30.449 331.157 30.1172 331.157H27.2514C26.9199 331.156 26.6023 331.023 26.3679 330.789C26.1335 330.555 26.0013 330.237 26 329.905V327.039C25.9997 326.874 26.0318 326.711 26.0946 326.559C26.1574 326.408 26.2496 326.269 26.3659 326.153C26.4821 326.037 26.6202 325.945 26.7722 325.882C26.9242 325.819 27.087 325.787 27.2514 325.788ZM37.1887 325.788H40.0544C40.3859 325.789 40.7035 325.921 40.9379 326.155C41.1723 326.39 41.3046 326.707 41.3059 327.039V329.905C41.3055 330.237 41.1736 330.555 40.939 330.79C40.7044 331.025 40.3862 331.157 40.0544 331.157H37.1887C36.8571 331.156 36.5396 331.023 36.3052 330.789C36.0707 330.555 35.9385 330.237 35.9372 329.905V327.039C35.9385 326.707 36.0708 326.39 36.3052 326.155C36.5396 325.921 36.8572 325.789 37.1887 325.788ZM47.1325 325.788H49.9988C50.3302 325.789 50.6476 325.921 50.8819 326.156C51.1162 326.39 51.2484 326.707 51.2497 327.039V329.905C51.2493 330.237 51.1175 330.555 50.883 330.79C50.6485 331.024 50.3305 331.156 49.9988 331.157H47.1325C46.8011 331.156 46.4837 331.023 46.2494 330.789C46.0151 330.554 45.8829 330.237 45.8816 329.905V327.039C45.8813 326.874 45.9133 326.712 45.9761 326.56C46.0388 326.408 46.1309 326.27 46.2471 326.153C46.3634 326.037 46.5014 325.945 46.6533 325.882C46.8053 325.819 46.9681 325.787 47.1325 325.788ZM57.0697 325.788H59.9361C60.2674 325.789 60.5849 325.921 60.8192 326.156C61.0535 326.39 61.1856 326.707 61.1869 327.039V329.905C61.1866 330.237 61.0547 330.555 60.8202 330.79C60.5857 331.024 60.2678 331.156 59.9361 331.157H57.0697C56.7374 331.157 56.4186 331.025 56.1831 330.791C55.9476 330.556 55.8145 330.238 55.8129 329.905V327.039C55.8165 326.707 55.9503 326.39 56.1853 326.156C56.4204 325.922 56.738 325.79 57.0697 325.788ZM67.0081 325.788H69.8745C70.5675 325.788 71.1313 326.352 71.1313 327.039V329.905C71.131 330.07 71.0982 330.233 71.0349 330.385C70.9716 330.537 70.8789 330.675 70.7622 330.792C70.6455 330.908 70.507 331 70.3547 331.063C70.2024 331.125 70.0392 331.157 69.8745 331.157H67.0081C66.6767 331.156 66.3593 331.023 66.125 330.789C65.8907 330.554 65.7586 330.237 65.7573 329.905V327.039C65.7586 326.707 65.8908 326.39 66.1251 326.156C66.3594 325.921 66.6768 325.789 67.0081 325.788ZM37.5534 336.625H40.4192C40.7506 336.627 41.0682 336.759 41.3026 336.993C41.537 337.227 41.6693 337.545 41.6706 337.876V340.749C41.6693 341.081 41.537 341.398 41.3026 341.632C41.0682 341.867 40.7506 341.999 40.4192 342H37.5534C37.2216 342 36.9035 341.868 36.6689 341.633C36.4342 341.399 36.3023 341.081 36.302 340.749V337.882C36.301 337.717 36.3327 337.554 36.3952 337.401C36.4577 337.249 36.5497 337.11 36.6661 336.993C36.7824 336.877 36.9207 336.784 37.073 336.721C37.2252 336.658 37.3885 336.625 37.5534 336.625ZM47.4906 336.625H50.3564C50.6878 336.627 51.0054 336.759 51.2398 336.993C51.4743 337.227 51.6066 337.545 51.6078 337.876V340.749C51.6066 341.081 51.4743 341.398 51.2398 341.632C51.0054 341.867 50.6878 341.999 50.3564 342H47.4906C47.1592 341.999 46.8416 341.867 46.6072 341.632C46.3727 341.398 46.2405 341.081 46.2392 340.749V337.882C46.2383 337.717 46.2699 337.554 46.3324 337.401C46.3949 337.249 46.487 337.11 46.6033 336.993C46.7196 336.877 46.8579 336.784 47.0102 336.721C47.1625 336.658 47.3258 336.625 47.4906 336.625ZM57.4284 336.625H60.2948C60.9878 336.625 61.5516 337.189 61.5516 337.876V340.749C61.55 341.081 61.4169 341.4 61.1814 341.634C60.9459 341.868 60.6271 342 60.2948 342H57.4284C57.0971 341.999 56.7797 341.867 56.5454 341.632C56.3111 341.398 56.1789 341.08 56.1776 340.749V337.882C56.1776 337.189 56.7415 336.625 57.4284 336.625ZM47.1325 314.145H49.9988C50.3302 314.147 50.6476 314.279 50.8819 314.513C51.1162 314.747 51.2484 315.065 51.2497 315.396V318.263C51.2493 318.595 51.1175 318.913 50.883 319.147C50.6485 319.382 50.3305 319.514 49.9988 319.514L47.1325 319.514C46.8011 319.513 46.4837 319.38 46.2494 319.146C46.0151 318.912 45.8829 318.594 45.8816 318.263V315.396C45.8813 315.232 45.9133 315.069 45.9761 314.917C46.0388 314.765 46.1309 314.627 46.2471 314.511C46.3634 314.395 46.5014 314.302 46.6533 314.24C46.8053 314.177 46.9681 314.145 47.1325 314.145ZM57.0697 314.145H59.9361C60.2674 314.147 60.5849 314.279 60.8192 314.513C61.0535 314.747 61.1856 315.065 61.1869 315.396V318.263C61.1866 318.595 61.0547 318.913 60.8202 319.147C60.5857 319.382 60.2678 319.514 59.9361 319.514L57.0697 319.514C56.7374 319.514 56.4186 319.382 56.1831 319.148C55.9476 318.913 55.8145 318.595 55.8129 318.263V315.396C55.8165 315.065 55.9503 314.748 56.1853 314.514C56.4204 314.28 56.738 314.147 57.0697 314.145ZM179.12 309.643H181.986C182.679 309.643 183.237 310.206 183.237 310.893V313.76C183.237 314.092 183.105 314.41 182.87 314.645C182.636 314.879 182.318 315.011 181.986 315.012H179.12C178.788 315.01 178.471 314.878 178.236 314.644C178.002 314.409 177.87 314.092 177.869 313.76V310.893C177.868 310.729 177.9 310.566 177.963 310.414C178.026 310.262 178.118 310.124 178.234 310.008C178.35 309.892 178.488 309.8 178.64 309.737C178.792 309.674 178.955 309.642 179.12 309.643ZM189.057 309.643H191.923C192.255 309.644 192.572 309.776 192.807 310.01C193.041 310.244 193.173 310.562 193.175 310.893V313.76C193.174 314.092 193.042 314.41 192.808 314.645C192.573 314.879 192.255 315.011 191.923 315.012H189.057C188.726 315.01 188.408 314.878 188.174 314.644C187.939 314.409 187.807 314.092 187.806 313.76V310.893C187.807 310.562 187.939 310.244 188.174 310.01C188.408 309.776 188.726 309.644 189.057 309.643ZM199.001 309.643H201.868C202.199 309.644 202.516 309.776 202.751 310.01C202.985 310.245 203.117 310.562 203.118 310.893V313.76C203.118 314.092 202.986 314.41 202.752 314.645C202.517 314.879 202.199 315.011 201.868 315.012H199.001C198.67 315.01 198.352 314.878 198.118 314.644C197.884 314.409 197.752 314.092 197.75 313.76V310.893C197.75 310.729 197.782 310.566 197.845 310.414C197.907 310.262 198 310.124 198.116 310.008C198.232 309.892 198.37 309.8 198.522 309.737C198.674 309.674 198.837 309.642 199.001 309.643ZM208.938 309.643H211.805C212.136 309.644 212.454 309.776 212.688 310.01C212.922 310.245 213.054 310.562 213.056 310.893V313.76C213.055 314.092 212.923 314.41 212.689 314.645C212.454 314.879 212.136 315.011 211.805 315.012H208.938C208.606 315.012 208.287 314.88 208.052 314.645C207.816 314.411 207.683 314.093 207.682 313.76V310.893C207.685 310.562 207.819 310.245 208.054 310.011C208.289 309.777 208.607 309.645 208.938 309.643ZM218.877 309.643H221.743C222.436 309.643 223 310.206 223 310.893V313.76C223 313.925 222.967 314.088 222.904 314.24C222.84 314.392 222.748 314.53 222.631 314.646C222.514 314.763 222.376 314.855 222.223 314.917C222.071 314.98 221.908 315.012 221.743 315.012H218.877C218.545 315.01 218.228 314.878 217.994 314.644C217.759 314.409 217.627 314.092 217.626 313.76V310.893C217.627 310.562 217.759 310.245 217.994 310.01C218.228 309.776 218.545 309.644 218.877 309.643ZM189.422 320.48H192.288C192.619 320.481 192.937 320.613 193.171 320.848C193.406 321.082 193.538 321.4 193.539 321.731V324.604C193.538 324.935 193.406 325.253 193.171 325.487C192.937 325.722 192.619 325.854 192.288 325.855H189.422C189.09 325.855 188.772 325.723 188.538 325.488C188.303 325.254 188.171 324.936 188.171 324.604V321.737C188.17 321.572 188.201 321.409 188.264 321.256C188.326 321.104 188.418 320.965 188.535 320.848C188.651 320.731 188.789 320.639 188.942 320.575C189.094 320.512 189.257 320.48 189.422 320.48ZM199.359 320.48H202.225C202.557 320.481 202.874 320.613 203.109 320.848C203.343 321.082 203.475 321.4 203.477 321.731V324.604C203.475 324.935 203.343 325.253 203.109 325.487C202.874 325.722 202.557 325.854 202.225 325.855H199.359C199.028 325.854 198.71 325.722 198.476 325.487C198.241 325.253 198.109 324.935 198.108 324.604V321.737C198.107 321.572 198.139 321.409 198.201 321.256C198.264 321.104 198.356 320.965 198.472 320.848C198.588 320.731 198.727 320.639 198.879 320.575C199.031 320.512 199.194 320.48 199.359 320.48ZM209.297 320.48H212.164C212.856 320.48 213.42 321.044 213.42 321.731V324.604C213.419 324.936 213.286 325.254 213.05 325.489C212.815 325.723 212.496 325.855 212.164 325.855H209.297C208.966 325.853 208.648 325.721 208.414 325.487C208.18 325.253 208.048 324.935 208.046 324.604V321.737C208.046 321.044 208.61 320.48 209.297 320.48ZM199.001 298H201.868C202.199 298.001 202.516 298.133 202.751 298.368C202.985 298.602 203.117 298.92 203.118 299.251V302.118C203.118 302.449 202.986 302.767 202.752 303.002C202.517 303.237 202.199 303.369 201.868 303.369L199.001 303.369C198.67 303.367 198.352 303.235 198.118 303.001C197.884 302.766 197.752 302.449 197.75 302.118V299.251C197.75 299.087 197.782 298.924 197.845 298.772C197.907 298.62 198 298.482 198.116 298.366C198.232 298.249 198.37 298.157 198.522 298.094C198.674 298.032 198.837 298 199.001 298ZM208.938 298H211.805C212.136 298.001 212.454 298.133 212.688 298.368C212.922 298.602 213.054 298.92 213.056 299.251V302.118C213.055 302.449 212.923 302.767 212.689 303.002C212.454 303.237 212.136 303.369 211.805 303.369L208.938 303.369C208.606 303.369 208.287 303.237 208.052 303.003C207.816 302.768 207.683 302.45 207.682 302.118V299.251C207.685 298.919 207.819 298.602 208.054 298.368C208.289 298.134 208.607 298.002 208.938 298Z" fill="white"/>
<path d="M274.637 325.103L285.072 314.668C285.452 314.288 285.452 313.672 285.072 313.292L285.072 313.292C284.692 312.912 284.076 312.912 283.696 313.292L273.261 323.727C272.881 324.107 272.881 324.723 273.261 325.103L273.261 325.103C273.641 325.483 274.257 325.483 274.637 325.103Z" fill="#E1E4E5"/>
<path d="M275.658 317.632L278.668 314.623C279.048 314.243 279.048 313.627 278.668 313.247L278.668 313.247C278.288 312.867 277.672 312.867 277.292 313.247L274.282 316.256C273.902 316.636 273.902 317.252 274.282 317.632L274.283 317.632C274.663 318.012 275.279 318.012 275.658 317.632Z" fill="#E1E4E5"/>
<path d="M162.383 435H99.6171C94.8653 435 91 431.135 91 426.383V363.617C91 358.865 94.8653 355 99.6171 355H162.383C167.135 355 171 358.865 171 363.617V426.383C171 431.153 167.135 435 162.383 435Z" fill="#666AF6"/>
<path d="M135.773 380.946L127.844 409.595M117.811 404.819L108.297 395.27L117.811 385.72V404.819ZM146.352 385.72L155.865 395.27L146.352 404.819V385.72Z" stroke="white" stroke-width="6" stroke-linecap="round" stroke-linejoin="round"/>
<path d="M556.151 153.936H404.142C399.666 153.936 396.036 150.291 396.036 145.795V50.1407C396.036 45.6453 399.666 42 404.142 42H556.151C560.627 42 564.257 45.6453 564.257 50.1407V145.795C564.257 150.291 560.627 153.936 556.151 153.936Z" fill="white" stroke="#E1E4E5" stroke-width="4"/>
<path d="M564.257 52.686H396.036V50.1407C396.036 45.6453 399.666 42 404.142 42H556.151C560.627 42 564.257 45.6453 564.257 50.1407V52.686Z" fill="white" stroke="#E1E4E5" stroke-width="4"/>
<path d="M404.158 49.6169C404.405 49.6169 404.65 49.568 404.878 49.4731C405.106 49.3781 405.313 49.239 405.488 49.0636C405.662 48.8883 405.801 48.6801 405.895 48.451C405.989 48.2218 406.038 47.9763 406.038 47.7283C406.038 47.4803 405.989 47.2348 405.895 47.0057C405.8 46.7766 405.662 46.5685 405.487 46.3932C405.312 46.2179 405.105 46.0788 404.877 45.9839C404.649 45.8891 404.404 45.8403 404.157 45.8403C403.659 45.8404 403.181 46.0394 402.828 46.3936C402.476 46.7478 402.278 47.2282 402.278 47.729C402.278 48.2298 402.476 48.71 402.829 49.0641C403.181 49.4182 403.659 49.617 404.158 49.6169ZM411.992 49.6169C412.241 49.6202 412.488 49.5738 412.719 49.4803C412.95 49.3869 413.16 49.2483 413.337 49.0726C413.515 48.8969 413.655 48.6876 413.751 48.4568C413.847 48.226 413.897 47.9784 413.897 47.7283C413.897 47.4782 413.847 47.2306 413.751 46.9998C413.655 46.7691 413.514 46.5598 413.337 46.3842C413.16 46.2085 412.95 46.0699 412.719 45.9765C412.488 45.8831 412.24 45.8367 411.991 45.84C411.497 45.8466 411.025 46.0484 410.678 46.4019C410.33 46.7554 410.136 47.232 410.136 47.7286C410.136 48.2252 410.331 48.7018 410.678 49.0553C411.025 49.4087 411.497 49.6105 411.992 49.6169ZM419.512 49.6169C419.761 49.6202 420.008 49.5738 420.239 49.4803C420.47 49.3869 420.681 49.2483 420.858 49.0726C421.035 48.8969 421.176 48.6876 421.272 48.4568C421.368 48.226 421.417 47.9784 421.417 47.7283C421.417 47.4782 421.368 47.2306 421.272 46.9998C421.176 46.7691 421.035 46.5598 420.858 46.3842C420.68 46.2085 420.47 46.0699 420.239 45.9765C420.008 45.8831 419.761 45.8367 419.512 45.84C419.017 45.8466 418.545 46.0484 418.198 46.4019C417.851 46.7554 417.656 47.232 417.656 47.7286C417.656 48.2252 417.851 48.7018 418.198 49.0553C418.546 49.4087 419.018 49.6105 419.512 49.6169ZM405.156 63.2991L408.875 64.6165V66.4514L403.257 64.0593V62.5128L408.875 60.1207V61.9556L405.156 63.2991ZM411.022 68.1683H409.619L413.117 57.8075H414.519L411.022 68.1683ZM419.276 63.2795L415.485 61.9491V60.1273L421.168 62.5193V64.0593L415.485 66.4579V64.6295L419.276 63.2795Z" fill="#E1E4E5"/>
<path d="M468.708 61.5752H427.346C426.48 61.5752 425.779 62.2797 425.779 63.1487C425.779 64.0178 426.48 64.7223 427.346 64.7223H468.708C469.573 64.7223 470.275 64.0178 470.275 63.1487C470.275 62.2797 469.573 61.5752 468.708 61.5752Z" fill="#E1E4E5"/>
<path d="M468.708 88.9541H427.346C426.48 88.9541 425.779 89.6586 425.779 90.5276C425.779 91.3967 426.48 92.1012 427.346 92.1012H468.708C469.573 92.1012 470.275 91.3967 470.275 90.5276C470.275 89.6586 469.573 88.9541 468.708 88.9541Z" fill="#E1E4E5"/>
<path d="M501.296 116.333H542.658C543.523 116.333 544.225 117.038 544.225 117.907C544.225 118.776 543.523 119.48 542.658 119.48H501.296C500.431 119.48 499.729 118.776 499.729 117.907C499.729 117.038 500.431 116.333 501.296 116.333Z" fill="#E1E4E5"/>
<path d="M501.296 70.7019H542.658C543.523 70.7019 544.225 71.4064 544.225 72.2754C544.225 73.1445 543.523 73.849 542.658 73.849H501.296C500.431 73.849 499.729 73.1445 499.729 72.2754C499.729 71.4064 500.431 70.7019 501.296 70.7019Z" fill="#E1E4E5"/>
<path d="M501.296 98.0806H542.658C543.523 98.0806 544.225 98.7851 544.225 99.6541C544.225 100.523 543.523 101.228 542.658 101.228H501.296C500.431 101.228 499.729 100.523 499.729 99.6541C499.729 98.7851 500.431 98.0806 501.296 98.0806Z" fill="#E1E4E5"/>
<path d="M468.708 125.46H427.346C426.48 125.46 425.779 126.164 425.779 127.033C425.779 127.902 426.48 128.607 427.346 128.607H468.708C469.573 128.607 470.275 127.902 470.275 127.033C470.275 126.164 469.573 125.46 468.708 125.46Z" fill="#E1E4E5"/>
<path d="M501.296 79.8281H542.658C543.523 79.8281 544.225 80.5326 544.225 81.4017C544.225 82.2707 543.523 82.9752 542.658 82.9752H501.296C500.431 82.9752 499.729 82.2707 499.729 81.4017C499.729 80.5326 500.431 79.8281 501.296 79.8281Z" fill="#E1E4E5"/>
<path d="M501.296 107.207H542.658C543.523 107.207 544.225 107.911 544.225 108.78C544.225 109.649 543.523 110.354 542.658 110.354H501.296C500.431 110.354 499.729 109.649 499.729 108.78C499.729 107.911 500.431 107.207 501.296 107.207Z" fill="#E1E4E5"/>
<path d="M468.708 134.586H427.346C426.48 134.586 425.779 135.29 425.779 136.159C425.779 137.028 426.48 137.733 427.346 137.733H468.708C469.573 137.733 470.275 137.028 470.275 136.159C470.275 135.29 469.573 134.586 468.708 134.586Z" fill="#E1E4E5"/>
<path d="M492.209 61.5752H477.482C476.616 61.5752 475.915 62.2797 475.915 63.1487C475.915 64.0178 476.616 64.7223 477.482 64.7223H492.209C493.074 64.7223 493.776 64.0178 493.776 63.1487C493.776 62.2797 493.074 61.5752 492.209 61.5752Z" fill="#E1E4E5"/>
<path d="M492.209 88.9541H477.482C476.616 88.9541 475.915 89.6586 475.915 90.5276C475.915 91.3967 476.616 92.1012 477.482 92.1012H492.209C493.074 92.1012 493.776 91.3967 493.776 90.5276C493.776 89.6586 493.074 88.9541 492.209 88.9541Z" fill="#E1E4E5"/>
<path d="M477.795 116.333H492.522C493.387 116.333 494.089 117.038 494.089 117.907C494.089 118.776 493.387 119.48 492.522 119.48H477.795C476.929 119.48 476.228 118.776 476.228 117.907C476.228 117.038 476.929 116.333 477.795 116.333Z" fill="#E1E4E5"/>
<path d="M477.795 70.7019H492.522C493.387 70.7019 494.089 71.4064 494.089 72.2754C494.089 73.1445 493.387 73.849 492.522 73.849H477.795C476.929 73.849 476.228 73.1445 476.228 72.2754C476.228 71.4064 476.929 70.7019 477.795 70.7019Z" fill="#E1E4E5"/>
<path d="M477.795 98.0806H492.522C493.387 98.0806 494.089 98.7851 494.089 99.6541C494.089 100.523 493.387 101.228 492.522 101.228H477.795C476.929 101.228 476.228 100.523 476.228 99.6541C476.228 98.7851 476.929 98.0806 477.795 98.0806Z" fill="#E1E4E5"/>
<path d="M492.209 125.46H477.482C476.616 125.46 475.915 126.164 475.915 127.033C475.915 127.902 476.616 128.607 477.482 128.607H492.209C493.074 128.607 493.776 127.902 493.776 127.033C493.776 126.164 493.074 125.46 492.209 125.46Z" fill="#E1E4E5"/>
<path d="M448.653 79.8281H492.522C493.387 79.8281 494.089 80.5326 494.089 81.4017C494.089 82.2707 493.387 82.9752 492.522 82.9752H448.653C447.788 82.9752 447.087 82.2707 447.087 81.4017C447.087 80.5326 447.788 79.8281 448.653 79.8281Z" fill="#E1E4E5"/>
<path d="M448.653 107.207H492.522C493.387 107.207 494.089 107.911 494.089 108.78C494.089 109.649 493.387 110.354 492.522 110.354H448.653C447.788 110.354 447.087 109.649 447.087 108.78C447.087 107.911 447.788 107.207 448.653 107.207Z" fill="#E1E4E5"/>
<path d="M521.35 134.586H477.482C476.616 134.586 475.915 135.29 475.915 136.159C475.915 137.028 476.616 137.733 477.482 137.733H521.35C522.216 137.733 522.917 137.028 522.917 136.159C522.917 135.29 522.216 134.586 521.35 134.586Z" fill="#E1E4E5"/>
<path d="M521.35 61.5752H500.983C500.117 61.5752 499.416 62.2797 499.416 63.1487C499.416 64.0178 500.117 64.7223 500.983 64.7223H521.35C522.216 64.7223 522.917 64.0178 522.917 63.1487C522.917 62.2797 522.216 61.5752 521.35 61.5752Z" fill="#E1E4E5"/>
<path d="M521.35 88.9541H500.983C500.117 88.9541 499.416 89.6586 499.416 90.5276C499.416 91.3967 500.117 92.1012 500.983 92.1012H521.35C522.216 92.1012 522.917 91.3967 522.917 90.5276C522.917 89.6586 522.216 88.9541 521.35 88.9541Z" fill="#E1E4E5"/>
<path d="M448.654 116.333H469.021C469.886 116.333 470.588 117.038 470.588 117.907C470.588 118.776 469.886 119.48 469.021 119.48H448.654C447.788 119.48 447.087 118.776 447.087 117.907C447.087 117.038 447.788 116.333 448.654 116.333Z" fill="#E1E4E5"/>
<path d="M448.654 70.7019H469.021C469.886 70.7019 470.588 71.4064 470.588 72.2754C470.588 73.1445 469.886 73.849 469.021 73.849H448.654C447.788 73.849 447.087 73.1445 447.087 72.2754C447.087 71.4064 447.788 70.7019 448.654 70.7019Z" fill="#E1E4E5"/>
<path d="M448.654 98.0806H469.021C469.886 98.0806 470.588 98.7851 470.588 99.6541C470.588 100.523 469.886 101.228 469.021 101.228H448.654C447.788 101.228 447.087 100.523 447.087 99.6541C447.087 98.7851 447.788 98.0806 448.654 98.0806Z" fill="#E1E4E5"/>
<path d="M521.35 125.46H500.983C500.117 125.46 499.416 126.164 499.416 127.033C499.416 127.902 500.117 128.607 500.983 128.607H521.35C522.216 128.607 522.917 127.902 522.917 127.033C522.917 126.164 522.216 125.46 521.35 125.46Z" fill="#E1E4E5"/>
<path d="M542.658 61.5752H530.124C529.259 61.5752 528.557 62.2797 528.557 63.1487C528.557 64.0178 529.259 64.7223 530.124 64.7223H542.658C543.523 64.7223 544.225 64.0178 544.225 63.1487C544.225 62.2797 543.523 61.5752 542.658 61.5752Z" fill="#E1E4E5"/>
<path d="M542.658 88.9541H530.124C529.259 88.9541 528.557 89.6586 528.557 90.5276C528.557 91.3967 529.259 92.1012 530.124 92.1012H542.658C543.523 92.1012 544.225 91.3967 544.225 90.5276C544.225 89.6586 543.523 88.9541 542.658 88.9541Z" fill="#E1E4E5"/>
<path d="M427.346 116.333H439.88C440.745 116.333 441.446 117.038 441.446 117.907C441.446 118.776 440.745 119.48 439.88 119.48H427.346C426.48 119.48 425.779 118.776 425.779 117.907C425.779 117.038 426.48 116.333 427.346 116.333Z" fill="#E1E4E5"/>
<path d="M427.346 70.7019H439.88C440.745 70.7019 441.446 71.4064 441.446 72.2754C441.446 73.1445 440.745 73.849 439.88 73.849H427.346C426.48 73.849 425.779 73.1445 425.779 72.2754C425.779 71.4064 426.48 70.7019 427.346 70.7019Z" fill="#E1E4E5"/>
<path d="M427.346 98.0806H439.88C440.745 98.0806 441.446 98.7851 441.446 99.6541C441.446 100.523 440.745 101.228 439.88 101.228H427.346C426.48 101.228 425.779 100.523 425.779 99.6541C425.779 98.7851 426.48 98.0806 427.346 98.0806Z" fill="#E1E4E5"/>
<path d="M542.658 125.46H530.124C529.259 125.46 528.557 126.164 528.557 127.033C528.557 127.902 529.259 128.607 530.124 128.607H542.658C543.523 128.607 544.225 127.902 544.225 127.033C544.225 126.164 543.523 125.46 542.658 125.46Z" fill="#E1E4E5"/>
<path d="M427.346 79.8281H439.88C440.745 79.8281 441.446 80.5326 441.446 81.4017C441.446 82.2707 440.745 82.9752 439.88 82.9752H427.346C426.48 82.9752 425.779 82.2707 425.779 81.4017C425.779 80.5326 426.48 79.8281 427.346 79.8281Z" fill="#E1E4E5"/>
<path d="M427.346 107.207H439.88C440.745 107.207 441.446 107.911 441.446 108.78C441.446 109.649 440.745 110.354 439.88 110.354H427.346C426.48 110.354 425.779 109.649 425.779 108.78C425.779 107.911 426.48 107.207 427.346 107.207Z" fill="#E1E4E5"/>
<path d="M542.658 134.586H530.124C529.259 134.586 528.557 135.29 528.557 136.159C528.557 137.028 529.259 137.733 530.124 137.733H542.658C543.523 137.733 544.225 137.028 544.225 136.159C544.225 135.29 543.523 134.586 542.658 134.586Z" fill="#E1E4E5"/>
<path fill-rule="evenodd" clip-rule="evenodd" d="M550.441 164.027L540.039 130.668C538.942 127.149 542.531 123.995 545.861 125.554L576.88 140.093C580.556 141.815 579.938 147.246 575.968 148.087L563.197 150.8L558.46 164.177C557.095 168.018 551.656 167.912 550.441 164.027ZM415.246 96.9217C415.246 108.108 406.874 118.568 395.623 121.108C384.372 118.568 376 108.108 376 96.9217V88.1345C376 87.1563 376.29 86.2002 376.833 85.388C377.376 84.5759 378.147 83.9446 379.049 83.5746L391.313 78.5343C394.075 77.3987 397.171 77.3987 399.933 78.5343L412.197 83.5746C413.099 83.9449 413.87 84.5763 414.413 85.3883C414.956 86.2004 415.246 87.1564 415.246 88.1345V96.9217Z" fill="#666AF6"/>
<path d="M402.28 95.2783L394.778 102.773L390.276 98.2761" stroke="white" stroke-width="13.957" stroke-linecap="round" stroke-linejoin="round"/>
<path d="M566.871 57.5482C563.936 59.2498 560.184 58.24 558.49 55.2927C556.795 52.3454 557.801 48.5767 560.735 46.875C563.67 45.1734 567.423 46.1832 569.117 49.1305C570.811 52.0778 569.806 55.8466 566.871 57.5482Z" fill="#666AF6"/>
<path d="M556.677 72.1377C555.357 72.903 553.67 72.4489 552.908 71.1233C552.146 69.7978 552.598 68.1029 553.918 67.3376C555.238 66.5723 556.925 67.0265 557.687 68.352C558.449 69.6775 557.997 71.3724 556.677 72.1377Z" fill="#E1E4E5"/>
<path d="M576.835 99.8403C573.431 99.8403 570.671 102.612 570.671 106.031C570.671 109.451 573.431 112.223 576.835 112.223C580.24 112.223 583 109.451 583 106.031C583 102.612 580.24 99.8403 576.835 99.8403Z" fill="#666AF6"/>
<path d="M557.561 94.5917C558.439 95.1004 558.739 96.2272 558.233 97.1084C557.726 97.9896 556.604 98.2915 555.727 97.7828C554.85 97.274 554.549 96.1472 555.056 95.266C555.562 94.3849 556.684 94.0829 557.561 94.5917Z" fill="#E1E4E5"/>
<path d="M409.256 123.953C408.45 123.953 407.796 124.61 407.796 125.42C407.796 126.229 408.45 126.886 409.256 126.886C410.063 126.886 410.716 126.229 410.716 125.42C410.716 124.61 410.063 123.953 409.256 123.953Z" fill="#E1E4E5"/>
<path d="M391.736 152.302C393.797 152.302 395.467 153.98 395.467 156.049C395.467 158.119 393.797 159.797 391.736 159.797C389.675 159.797 388.005 158.119 388.005 156.049C388.005 153.98 389.675 152.302 391.736 152.302Z" fill="#E1E4E5"/>
<path d="M409.256 142.527C407.912 142.527 406.823 141.433 406.823 140.083C406.823 138.733 407.912 137.639 409.256 137.639C410.6 137.639 411.69 138.733 411.69 140.083C411.69 141.433 410.6 142.527 409.256 142.527Z" fill="#E1E4E5"/>
<path d="M342.89 136.445C342.89 130.124 337.766 125 331.445 125C325.124 125 320 130.124 320 136.445C320 142.766 325.124 147.89 331.445 147.89C337.766 147.89 342.89 142.766 342.89 136.445Z" fill="#666AF6"/>
<path fill-rule="evenodd" clip-rule="evenodd" d="M124.251 61.7878H127.117C127.81 61.7878 128.369 62.3517 128.369 63.0387V65.9054C128.368 66.2372 128.236 66.5554 128.002 66.79C127.767 67.0247 127.449 67.1567 127.117 67.157H124.251C123.92 67.1557 123.602 67.0234 123.368 66.789C123.134 66.5546 123.001 66.2369 123 65.9054V63.0387C123 62.8743 123.032 62.7114 123.095 62.5595C123.157 62.4075 123.25 62.2695 123.366 62.1533C123.482 62.037 123.62 61.9449 123.772 61.8822C123.924 61.8195 124.087 61.7874 124.251 61.7878ZM134.189 61.7878H137.054C137.386 61.7889 137.703 61.921 137.938 62.1554C138.172 62.3897 138.305 62.7073 138.306 63.0387V65.9054C138.306 66.2372 138.174 66.5554 137.939 66.79C137.704 67.0247 137.386 67.1567 137.054 67.157H134.189C133.857 67.1557 133.54 67.0234 133.305 66.789C133.071 66.5546 132.938 66.2369 132.937 65.9054V63.0387C132.938 62.7073 133.071 62.3897 133.305 62.1554C133.54 61.921 133.857 61.7889 134.189 61.7878ZM144.132 61.7878H146.999C147.33 61.789 147.648 61.9212 147.882 62.1556C148.116 62.3899 148.248 62.7074 148.25 63.0387V65.9054C148.249 66.2371 148.117 66.5552 147.883 66.7898C147.649 67.0245 147.331 67.1565 146.999 67.157H144.132C143.801 67.1556 143.484 67.0232 143.249 66.7888C143.015 66.5544 142.883 66.2368 142.882 65.9054V63.0387C142.881 62.8744 142.913 62.7115 142.976 62.5595C143.039 62.4076 143.131 62.2695 143.247 62.1533C143.363 62.0371 143.501 61.9449 143.653 61.8822C143.805 61.8195 143.968 61.7874 144.132 61.7878ZM154.07 61.7878H156.936C157.267 61.789 157.585 61.9212 157.819 62.1556C158.053 62.3899 158.186 62.7074 158.187 63.0387V65.9054C158.187 66.2371 158.055 66.5552 157.82 66.7898C157.586 67.0245 157.268 67.1565 156.936 67.157H154.07C153.737 67.1568 153.419 67.0251 153.183 66.7906C152.948 66.556 152.814 66.2378 152.813 65.9054V63.0387C152.817 62.7071 152.95 62.39 153.185 62.1561C153.42 61.9221 153.738 61.7898 154.07 61.7878ZM164.008 61.7878H166.875C167.567 61.7878 168.131 62.3517 168.131 63.0387V65.9054C168.131 66.0701 168.098 66.2332 168.035 66.3852C167.972 66.5373 167.879 66.6754 167.762 66.7916C167.645 66.9078 167.507 66.9999 167.355 67.0626C167.202 67.1253 167.039 67.1574 166.875 67.157H164.008C163.677 67.1556 163.359 67.0232 163.125 66.7888C162.891 66.5544 162.759 66.2368 162.757 65.9054V63.0387C162.759 62.7074 162.891 62.3899 163.125 62.1556C163.359 61.9212 163.677 61.789 164.008 61.7878ZM134.553 72.6254H137.419C137.751 72.6265 138.068 72.7587 138.303 72.993C138.537 73.2273 138.669 73.5449 138.671 73.8764V76.749C138.669 77.0805 138.537 77.3981 138.303 77.6324C138.068 77.8668 137.751 77.9989 137.419 78H134.553C134.222 77.9998 133.904 77.868 133.669 77.6335C133.434 77.3989 133.302 77.0808 133.302 76.749V73.8824C133.301 73.7175 133.333 73.5541 133.395 73.4015C133.458 73.2489 133.55 73.1102 133.666 72.9934C133.782 72.8765 133.921 72.7839 134.073 72.7207C134.225 72.6576 134.389 72.6252 134.553 72.6254ZM144.491 72.6254H147.356C147.688 72.6265 148.005 72.7587 148.24 72.993C148.474 73.2273 148.607 73.5449 148.608 73.8764V76.749C148.607 77.0805 148.474 77.3981 148.24 77.6324C148.005 77.8668 147.688 77.9989 147.356 78H144.491C144.159 77.9989 143.842 77.8668 143.607 77.6324C143.373 77.3981 143.24 77.0805 143.239 76.749V73.8824C143.238 73.7175 143.27 73.5541 143.332 73.4015C143.395 73.2489 143.487 73.1102 143.603 72.9934C143.72 72.8765 143.858 72.7839 144.01 72.7207C144.162 72.6576 144.326 72.6252 144.491 72.6254ZM154.428 72.6254H157.295C157.988 72.6254 158.552 73.1893 158.552 73.8764V76.749C158.55 77.0814 158.417 77.3995 158.181 77.634C157.946 77.8684 157.627 78 157.295 78H154.428C154.097 77.9987 153.78 77.8665 153.545 77.6322C153.311 77.3979 153.179 77.0804 153.178 76.749V73.8824C153.178 73.1893 153.741 72.6254 154.428 72.6254ZM144.132 50.1453H146.999C147.33 50.1465 147.648 50.2787 147.882 50.513C148.116 50.7474 148.248 51.0648 148.25 51.3962V54.2629C148.249 54.5946 148.117 54.9127 147.883 55.1473C147.649 55.382 147.331 55.514 146.999 55.5145L144.132 55.5138C143.801 55.5126 143.484 55.3804 143.249 55.1461C143.015 54.9117 142.883 54.5943 142.882 54.2629V51.3962C142.881 51.2318 142.913 51.069 142.976 50.917C143.039 50.7651 143.131 50.627 143.247 50.5108C143.363 50.3945 143.501 50.3024 143.653 50.2397C143.805 50.1769 143.968 50.1449 144.132 50.1453ZM154.07 50.1453H156.936C157.267 50.1465 157.585 50.2787 157.819 50.513C158.053 50.7474 158.186 51.0648 158.187 51.3962V54.2629C158.187 54.5946 158.055 54.9127 157.82 55.1473C157.586 55.382 157.268 55.514 156.936 55.5145L154.07 55.5138C153.737 55.5139 153.419 55.3822 153.183 55.1478C152.948 54.9134 152.814 54.5952 152.813 54.2629V51.3962C152.817 51.0645 152.95 50.7475 153.185 50.5135C153.42 50.2795 153.738 50.1473 154.07 50.1453ZM276.12 45.6425H278.986C279.679 45.6425 280.237 46.2064 280.237 46.8935V49.7602C280.237 50.092 280.105 50.4102 279.87 50.6448C279.636 50.8794 279.318 51.0114 278.986 51.0117H276.12C275.788 51.0103 275.471 50.878 275.236 50.6435C275.002 50.4091 274.87 50.0916 274.869 49.7602V46.8935C274.868 46.7291 274.9 46.5662 274.963 46.4143C275.026 46.2623 275.118 46.1243 275.234 46.008C275.35 45.8918 275.488 45.7997 275.64 45.7369C275.792 45.6742 275.955 45.6421 276.12 45.6425ZM286.057 45.6425H288.923C289.255 45.6436 289.572 45.7758 289.807 46.0101C290.041 46.2445 290.173 46.562 290.175 46.8935V49.7602C290.174 50.092 290.042 50.4102 289.808 50.6448C289.573 50.8794 289.255 51.0114 288.923 51.0117H286.057C285.726 51.0105 285.408 50.8782 285.174 50.6438C284.939 50.4093 284.807 50.0917 284.806 49.7602V46.8935C284.807 46.562 284.939 46.2445 285.174 46.0101C285.408 45.7758 285.726 45.6436 286.057 45.6425ZM296.001 45.6425H298.868C299.199 45.6438 299.516 45.776 299.751 46.0103C299.985 46.2446 300.117 46.5621 300.118 46.8935V49.7602C300.118 50.0919 299.986 50.4099 299.752 50.6446C299.517 50.8792 299.199 51.0112 298.868 51.0117H296.001C295.67 51.0103 295.352 50.878 295.118 50.6435C294.884 50.4091 294.752 50.0916 294.75 49.7602V46.8935C294.75 46.7291 294.782 46.5662 294.845 46.4143C294.907 46.2623 295 46.1243 295.116 46.008C295.232 45.8918 295.37 45.7997 295.522 45.7369C295.674 45.6742 295.837 45.6421 296.001 45.6425ZM305.938 45.6425H308.805C309.136 45.6438 309.454 45.776 309.688 46.0103C309.922 46.2446 310.054 46.5621 310.056 46.8935V49.7602C310.055 50.0919 309.923 50.4099 309.689 50.6446C309.454 50.8792 309.136 51.0112 308.805 51.0117H305.938C305.606 51.0116 305.287 50.8798 305.052 50.6453C304.816 50.4108 304.683 50.0925 304.682 49.7602V46.8935C304.685 46.5618 304.819 46.2448 305.054 46.0108C305.289 45.7768 305.607 45.6445 305.938 45.6425ZM315.877 45.6425H318.743C319.436 45.6425 320 46.2064 320 46.8935V49.7602C320 49.9249 319.967 50.0879 319.904 50.24C319.84 50.392 319.748 50.5301 319.631 50.6463C319.514 50.7626 319.376 50.8547 319.223 50.9174C319.071 50.98 318.908 51.0121 318.743 51.0117H315.877C315.545 51.0103 315.228 50.878 314.994 50.6435C314.759 50.4091 314.627 50.0916 314.626 49.7602V46.8935C314.627 46.5621 314.759 46.2446 314.994 46.0103C315.228 45.776 315.545 45.6438 315.877 45.6425ZM286.422 56.4802H289.288C289.619 56.4813 289.937 56.6134 290.171 56.8478C290.406 57.0821 290.538 57.3996 290.539 57.7311V60.6038C290.538 60.9353 290.406 61.2528 290.171 61.4872C289.937 61.7215 289.619 61.8536 289.288 61.8547H286.422C286.09 61.8546 285.772 61.7228 285.538 61.4882C285.303 61.2537 285.171 60.9356 285.171 60.6038V57.7371C285.17 57.5722 285.201 57.4088 285.264 57.2562C285.326 57.1037 285.418 56.965 285.535 56.8481C285.651 56.7313 285.789 56.6386 285.942 56.5755C286.094 56.5123 286.257 56.4799 286.422 56.4802ZM296.359 56.4802H299.225C299.557 56.4813 299.874 56.6134 300.109 56.8478C300.343 57.0821 300.475 57.3996 300.477 57.7311V60.6038C300.475 60.9353 300.343 61.2528 300.109 61.4872C299.874 61.7215 299.557 61.8536 299.225 61.8547H296.359C296.028 61.8536 295.71 61.7215 295.476 61.4872C295.241 61.2528 295.109 60.9353 295.108 60.6038V57.7371C295.107 57.5722 295.139 57.4088 295.201 57.2562C295.264 57.1037 295.356 56.965 295.472 56.8481C295.588 56.7313 295.727 56.6386 295.879 56.5755C296.031 56.5123 296.194 56.4799 296.359 56.4802ZM306.297 56.4802H309.164C309.856 56.4802 310.42 57.0441 310.42 57.7311V60.6038C310.419 60.9361 310.286 61.2543 310.05 61.4887C309.815 61.7231 309.496 61.8548 309.164 61.8547H306.297C305.966 61.8535 305.648 61.7213 305.414 61.487C305.18 61.2526 305.048 60.9352 305.046 60.6038V57.7371C305.046 57.0441 305.61 56.4802 306.297 56.4802ZM296.001 34H298.868C299.199 34.0013 299.516 34.1335 299.751 34.3678C299.985 34.6021 300.117 34.9196 300.118 35.251V38.1176C300.118 38.4494 299.986 38.7674 299.752 39.0021C299.517 39.2367 299.199 39.3687 298.868 39.3692L296.001 39.3686C295.67 39.3673 295.352 39.2351 295.118 39.0008C294.884 38.7665 294.752 38.449 294.75 38.1176V35.251C294.75 35.0866 294.782 34.9237 294.845 34.7718C294.907 34.6198 295 34.4818 295.116 34.3655C295.232 34.2493 295.37 34.1571 295.522 34.0944C295.674 34.0317 295.837 33.9996 296.001 34ZM305.938 34H308.805C309.136 34.0013 309.454 34.1335 309.688 34.3678C309.922 34.6021 310.054 34.9196 310.056 35.251V38.1176C310.055 38.4494 309.923 38.7674 309.689 39.0021C309.454 39.2367 309.136 39.3687 308.805 39.3692L305.938 39.3686C305.606 39.3686 305.287 39.237 305.052 39.0026C304.816 38.7681 304.683 38.45 304.682 38.1176V35.251C304.685 34.9193 304.819 34.6023 305.054 34.3683C305.289 34.1343 305.607 34.002 305.938 34Z" fill="white"/>
<path d="M351.449 371.754C348.515 373.456 344.762 372.446 343.068 369.499C341.374 366.551 342.379 362.783 345.314 361.081C348.248 359.379 352.001 360.389 353.695 363.337C355.39 366.284 354.384 370.053 351.449 371.754Z" fill="#666AF6"/>
<rect x="34.5" y="22.5" width="617" height="402" rx="42.5" stroke="white" stroke-width="7"/>
<defs>
<linearGradient id="paint0_linear" x1="212.061" y1="366.051" x2="112.114" y2="-85.0494" gradientUnits="userSpaceOnUse">
<stop stop-color="white"/>
<stop offset="1" stop-color="#EEEEEE"/>
</linearGradient>
<linearGradient id="paint1_linear" x1="226.35" y1="202.773" x2="180.088" y2="-5.97137" gradientUnits="userSpaceOnUse">
<stop stop-color="white"/>
<stop offset="1" stop-color="#EEEEEE"/>
</linearGradient>
<linearGradient id="paint2_linear" x1="115.487" y1="311.109" x2="75.8326" y2="127.318" gradientUnits="userSpaceOnUse">
<stop stop-color="white"/>
<stop offset="1" stop-color="#EEEEEE"/>
</linearGradient>
<linearGradient id="paint3_linear" x1="136.252" y1="169.143" x2="186.931" y2="154.941" gradientUnits="userSpaceOnUse">
<stop stop-color="white"/>
<stop offset="1" stop-color="#EEEEEE"/>
</linearGradient>
<linearGradient id="paint4_linear" x1="434.288" y1="340.65" x2="434.275" y2="313.958" gradientUnits="userSpaceOnUse">
<stop stop-color="white"/>
<stop offset="1" stop-color="#EEEEEE"/>
</linearGradient>
</defs>
</svg>
