<svg width="335" height="194" viewBox="0 0 335 194" fill="none" xmlns="http://www.w3.org/2000/svg">
<path d="M32.252 38.5427L7.47663 61.9422C6.57454 62.7942 6.57456 64.1755 7.47664 65.0275C8.37873 65.8795 9.84131 65.8795 10.7434 65.0275L35.5188 41.628C36.4209 40.776 36.4209 39.3947 35.5188 38.5427C34.6167 37.6907 33.1541 37.6907 32.252 38.5427Z" fill="#14E1B7" fill-opacity="0.2"/>
<path d="M29.8248 55.2972L22.6798 62.0454C21.7777 62.8973 21.7777 64.2787 22.6798 65.1307C23.5819 65.9827 25.0444 65.9827 25.9465 65.1307L33.0915 58.3825C33.9936 57.5305 33.9936 56.1492 33.0915 55.2972C32.1894 54.4452 30.7269 54.4452 29.8248 55.2972Z" fill="#14E1B7" fill-opacity="0.2"/>
<path d="M143.285 83H143.03C141.521 101.085 125.625 101.363 125.625 101.363C125.625 101.363 143.154 101.653 143.154 122.549C143.154 101.653 160.683 101.363 160.683 101.363C160.683 101.363 144.793 101.085 143.285 83V83Z" fill="#14E1B7" fill-opacity="0.2"/>
<path d="M267.318 44C271.352 44 274.622 40.6422 274.622 36.5C274.622 32.3579 271.352 29 267.318 29C263.285 29 260.015 32.3579 260.015 36.5C260.015 40.6422 263.285 44 267.318 44Z" fill="#14E1B7" fill-opacity="0.2"/>
<path d="M61.8384 154C65.8722 154 69.1422 150.642 69.1422 146.5C69.1422 142.358 65.8722 139 61.8384 139C57.8047 139 54.5347 142.358 54.5347 146.5C54.5347 150.642 57.8047 154 61.8384 154Z" fill="#14E1B7" fill-opacity="0.2"/>
<path d="M287.845 103H287.542C285.746 126.522 266.832 126.883 266.832 126.883C266.832 126.883 287.689 127.26 287.689 154.438C287.689 127.26 308.548 126.883 308.548 126.883C308.548 126.883 289.64 126.522 287.845 103V103Z" fill="#14E1B7" fill-opacity="0.2"/>
</svg>
