<svg width="111" height="73" viewBox="0 0 111 73" fill="none" xmlns="http://www.w3.org/2000/svg">
<path fill-rule="evenodd" clip-rule="evenodd" d="M104.046 58.8746V62.1177H107.854C108.621 62.1208 109.356 62.3818 109.899 62.8437C110.441 63.3056 110.747 63.9311 110.75 64.584C110.747 65.2368 110.441 65.8621 109.898 66.3238C109.356 66.7855 108.621 67.0464 107.854 67.0495H104.046V70.2926C104.043 70.9453 103.737 71.5706 103.194 72.0324C102.652 72.4941 101.917 72.7549 101.15 72.7581C100.383 72.7549 99.648 72.4941 99.1056 72.0324C98.5632 71.5706 98.2572 70.9453 98.254 70.2926V67.0631H94.429C93.6616 67.06 92.9267 66.799 92.3843 66.3371C91.8419 65.8752 91.5359 65.2497 91.533 64.5968C91.5362 63.944 91.8422 63.3187 92.3846 62.857C92.9269 62.3953 93.6617 62.1344 94.429 62.1313H98.238V58.8746C98.242 58.2197 98.5505 57.5928 99.0961 57.1308C99.6418 56.6688 100.38 56.4093 101.15 56.4091C101.917 56.4123 102.652 56.6731 103.194 57.1348C103.737 57.5966 104.043 58.2219 104.046 58.8746ZM76.612 24.9398V29.4802H82.198C84.529 29.4802 86.445 31.0371 86.445 32.9326C86.445 34.8272 84.529 36.3841 82.198 36.3841H76.612V40.9246C76.612 42.8192 74.696 44.3769 72.364 44.3769C70.033 44.3769 68.117 42.8192 68.117 40.9246V36.4028H62.508C60.176 36.4028 58.26 34.8459 58.26 32.9513C58.26 31.0558 60.176 29.499 62.508 29.499H68.094V24.9398C68.094 23.0452 70.01 21.4883 72.364 21.4883C74.696 21.4883 76.612 23.0452 76.612 24.9398ZM26.693 5.77827V12.6966H34.819C38.21 12.6966 40.997 15.0693 40.997 17.9568C40.997 20.8443 38.21 23.217 34.819 23.217H26.693V30.1362C26.693 33.0236 23.906 35.3964 20.515 35.3964C17.124 35.3964 14.337 33.0236 14.337 30.1362V23.2459H6.17804C2.78704 23.2459 0 20.8732 0 17.9857C0 15.0983 2.78704 12.7255 6.17804 12.7255H14.303V5.77827C14.303 2.89082 17.09 0.518066 20.515 0.518066C23.906 0.518066 26.693 2.89082 26.693 5.77827Z" fill="#14E1B7" fill-opacity="0.2"/>
</svg>
