<svg width="111" height="79" viewBox="0 0 111 79" fill="none" xmlns="http://www.w3.org/2000/svg">
<path fill-rule="evenodd" clip-rule="evenodd" d="M6.70398 63.9129V67.419H2.896C2.12855 67.4224 1.39359 67.7045 0.851196 68.2038C0.3088 68.7032 0.00289154 69.3795 0 70.0853C0.00315857 70.791 0.309196 71.467 0.851562 71.9662C1.39393 72.4654 2.12872 72.7474 2.896 72.7508H6.70398V76.2569C6.70714 76.9626 7.01318 77.6386 7.55554 78.1378C8.09791 78.637 8.8327 78.9189 9.59998 78.9223C10.3673 78.9189 11.102 78.637 11.6444 78.1378C12.1868 77.6386 12.4928 76.9626 12.496 76.2569V72.7655H16.321C17.0884 72.7621 17.8233 72.48 18.3657 71.9806C18.9081 71.4812 19.2141 70.805 19.217 70.0991C19.2138 69.3934 18.9078 68.7174 18.3654 68.2182C17.8231 67.719 17.0883 67.4371 16.321 67.4337H12.512V63.9129C12.508 63.2048 12.1995 62.5271 11.6539 62.0276C11.1082 61.5282 10.3698 61.2477 9.59998 61.2474C8.8327 61.2508 8.09791 61.5328 7.55554 62.032C7.01318 62.5312 6.70714 63.2072 6.70398 63.9129ZM34.138 27.2258V32.1345H28.552C26.221 32.1345 24.305 33.8177 24.305 35.8669C24.305 37.9152 26.221 39.5983 28.552 39.5983H34.138V44.507C34.138 46.5553 36.054 48.2394 38.386 48.2394C40.717 48.2394 42.633 46.5553 42.633 44.507V39.6185H48.242C50.574 39.6185 52.49 37.9354 52.49 35.8871C52.49 33.8379 50.574 32.1547 48.242 32.1547H42.656V27.2258C42.656 25.1775 40.74 23.4943 38.386 23.4943C36.054 23.4943 34.138 25.1775 34.138 27.2258ZM84.057 6.51019V13.9896H75.931C72.54 13.9896 69.753 16.5548 69.753 19.6764C69.753 22.7981 72.54 25.3633 75.931 25.3633H84.057V32.8436C84.057 35.9653 86.844 38.5305 90.235 38.5305C93.626 38.5305 96.413 35.9653 96.413 32.8436V25.3946H104.572C107.963 25.3946 110.75 22.8294 110.75 19.7077C110.75 16.5861 107.963 14.0209 104.572 14.0209H96.447V6.51019C96.447 3.38855 93.66 0.823364 90.235 0.823364C86.844 0.823364 84.057 3.38855 84.057 6.51019Z" fill="#14E1B7" fill-opacity="0.2"/>
</svg>
