<svg width="321" height="155" viewBox="0 0 321 155" fill="none" xmlns="http://www.w3.org/2000/svg">
<path d="M145.174 11.9699H6.72601C4.93166 11.943 3.22116 11.3007 1.96307 10.1812C0.704983 9.06173 0 7.55474 0 5.98493C0 4.41512 0.704983 2.90813 1.96307 1.78866C3.22116 0.669184 4.93166 0.0268363 6.72601 0H145.174C146.988 0.00115929 148.727 0.632192 150.009 1.75443C151.291 2.87668 152.012 4.3983 152.012 5.98493C151.968 9.2888 148.949 11.9699 145.174 11.9699ZM82.078 35.7932H6.72601C4.93166 35.7664 3.22116 35.1241 1.96307 34.0046C0.704983 32.8851 0 31.3781 0 29.8083C0 28.2385 0.704983 26.7315 1.96307 25.612C3.22116 24.4926 4.93166 23.8502 6.72601 23.8234H82.078C83.8918 23.8245 85.6309 24.4556 86.9131 25.5778C88.1954 26.7001 88.9157 28.2217 88.916 29.8083C88.871 33.1122 85.852 35.7932 82.078 35.7932ZM313.729 35.7932H109.831C108.016 35.7932 106.276 35.1627 104.993 34.0403C103.71 32.9179 102.989 31.3956 102.989 29.8083C102.989 28.221 103.71 26.6987 104.993 25.5763C106.276 24.4539 108.016 23.8234 109.831 23.8234H313.729C315.543 23.8245 317.282 24.4556 318.564 25.5778C319.846 26.7001 320.567 28.2217 320.567 29.8083C320.522 33.1122 317.503 35.7932 313.729 35.7932ZM123.328 59.6166H6.72601C4.93166 59.5898 3.22116 58.9474 1.96307 57.828C0.704983 56.7085 0 55.2015 0 53.6317C0 52.0619 0.704983 50.5549 1.96307 49.4354C3.22116 48.316 4.93166 47.6736 6.72601 47.6468H123.328C125.142 47.6479 126.881 48.279 128.163 49.4012C129.445 50.5234 130.166 52.0451 130.166 53.6317C130.122 56.9347 127.058 59.6166 123.328 59.6166ZM222.257 59.6166H148.992C145.218 59.6166 142.199 56.9347 142.199 53.6317C142.199 50.3278 145.263 47.6468 148.992 47.6468H222.301C226.076 47.6468 229.095 50.3278 229.095 53.6317C229.095 55.2183 228.374 56.7399 227.092 57.8622C225.81 58.9844 224.071 59.6155 222.257 59.6166ZM313.727 59.6166H246.235C244.441 59.5898 242.73 58.9474 241.472 57.828C240.214 56.7085 239.509 55.2015 239.509 53.6317C239.509 52.0619 240.214 50.5549 241.472 49.4354C242.73 48.316 244.441 47.6736 246.235 47.6468H313.727C315.541 47.6477 317.28 48.2787 318.562 49.401C319.845 50.5232 320.565 52.045 320.565 53.6317C320.521 56.9347 317.502 59.6166 313.727 59.6166ZM313.728 83.4418H6.72601C4.93166 83.4149 3.22116 82.7726 1.96307 81.6531C0.704983 80.5336 0 79.0266 0 77.4568C0 75.887 0.704983 74.3801 1.96307 73.2606C3.22116 72.1411 4.93166 71.4987 6.72601 71.4719H313.728C315.542 71.4731 317.281 72.1041 318.563 73.2264C319.845 74.3486 320.566 75.8702 320.566 77.4568C320.521 80.7598 317.502 83.4418 313.728 83.4418ZM175.679 107.264H6.72601C4.93166 107.237 3.22116 106.595 1.96307 105.476C0.704983 104.356 0 102.849 0 101.279C0 99.7095 0.704983 98.2025 1.96307 97.0831C3.22116 95.9636 4.93166 95.3213 6.72601 95.2944H175.679C177.473 95.3213 179.184 95.9636 180.442 97.0831C181.7 98.2025 182.405 99.7095 182.405 101.279C182.405 102.849 181.7 104.356 180.442 105.476C179.184 106.595 177.473 107.237 175.679 107.264ZM313.728 107.264H202.942C201.148 107.237 199.437 106.595 198.179 105.476C196.921 104.356 196.216 102.849 196.216 101.279C196.216 99.7095 196.921 98.2025 198.179 97.0831C199.437 95.9636 201.148 95.3213 202.942 95.2944H313.728C315.542 95.2956 317.281 95.9266 318.563 97.0489C319.845 98.1711 320.566 99.6927 320.566 101.279C320.521 104.583 317.502 107.264 313.728 107.264ZM106.011 131.049H6.72601C4.93166 131.022 3.22116 130.38 1.96307 129.261C0.704983 128.141 0 126.634 0 125.064C0 123.494 0.704983 121.987 1.96307 120.868C3.22116 119.749 4.93166 119.106 6.72601 119.079H106.011C107.825 119.08 109.564 119.712 110.846 120.834C112.128 121.956 112.849 123.478 112.849 125.064C112.805 128.407 109.741 131.049 106.011 131.049ZM232.116 131.049H132.876C131.082 131.022 129.371 130.38 128.113 129.261C126.855 128.141 126.15 126.634 126.15 125.064C126.15 123.494 126.855 121.987 128.113 120.868C129.371 119.749 131.082 119.106 132.876 119.079H232.16C233.974 119.08 235.713 119.711 236.995 120.833C238.278 121.956 238.998 123.478 238.998 125.064C238.954 128.407 235.89 131.049 232.116 131.049ZM313.727 131.049H256.137C254.343 131.022 252.632 130.38 251.374 129.261C250.116 128.141 249.411 126.634 249.411 125.064C249.411 123.494 250.116 121.987 251.374 120.868C252.632 119.749 254.343 119.106 256.137 119.079H313.727C315.541 119.08 317.28 119.711 318.562 120.833C319.845 121.956 320.565 123.478 320.565 125.064C320.521 128.407 317.502 131.049 313.727 131.049ZM145.174 154.873H6.72601C4.93166 154.847 3.22116 154.204 1.96307 153.085C0.704983 151.965 0 150.458 0 148.889C0 147.319 0.704983 145.812 1.96307 144.692C3.22116 143.573 4.93166 142.93 6.72601 142.904H145.174C146.988 142.905 148.727 143.535 150.009 144.658C151.292 145.78 152.012 147.302 152.012 148.889C151.968 152.231 148.949 154.873 145.174 154.873ZM313.727 11.9699H175.279C173.485 11.943 171.774 11.3007 170.516 10.1812C169.258 9.06173 168.553 7.55474 168.553 5.98493C168.553 4.41512 169.258 2.90813 170.516 1.78866C171.774 0.669184 173.485 0.0268363 175.279 0H313.727C315.541 0.00115929 317.28 0.632192 318.562 1.75443C319.844 2.87668 320.565 4.3983 320.565 5.98493C320.521 9.2888 317.501 11.9699 313.727 11.9699Z" fill="#14E1B7" fill-opacity="0.2"/>
</svg>
