<svg width="302" height="183" viewBox="0 0 302 183" fill="none" xmlns="http://www.w3.org/2000/svg">
<path d="M164.976 168.812L295.201 168.812C296.888 168.844 298.497 169.599 299.681 170.915C300.864 172.23 301.527 174.002 301.527 175.847C301.527 177.692 300.864 179.464 299.681 180.779C298.497 182.095 296.888 182.85 295.201 182.882L164.976 182.882C163.27 182.881 161.634 182.139 160.428 180.82C159.222 179.501 158.544 177.712 158.544 175.847C158.585 171.963 161.425 168.812 164.976 168.812ZM224.324 140.809L295.201 140.809C296.888 140.841 298.497 141.596 299.681 142.911C300.864 144.227 301.527 145.999 301.527 147.844C301.527 149.689 300.864 151.461 299.681 152.776C298.497 154.092 296.888 154.847 295.201 154.879L224.324 154.879C222.618 154.878 220.982 154.136 219.776 152.817C218.57 151.498 217.892 149.709 217.892 147.844C217.935 143.96 220.774 140.809 224.324 140.809ZM6.43183 140.809L198.219 140.809C199.926 140.809 201.563 141.55 202.77 142.869C203.977 144.189 204.655 145.978 204.655 147.844C204.655 149.71 203.977 151.499 202.77 152.818C201.563 154.138 199.926 154.879 198.219 154.879L6.43183 154.879C4.72571 154.878 3.08991 154.136 1.88385 152.817C0.677798 151.498 0.000246788 149.709 2.79658e-06 147.844C0.042331 143.96 2.88199 140.809 6.43183 140.809ZM185.524 112.806L295.201 112.806C296.888 112.837 298.497 113.593 299.681 114.908C300.864 116.224 301.527 117.996 301.527 119.841C301.527 121.686 300.864 123.457 299.681 124.773C298.497 126.089 296.888 126.844 295.201 126.876L185.524 126.876C183.818 126.874 182.182 126.133 180.976 124.814C179.77 123.494 179.093 121.706 179.092 119.841C179.134 115.958 182.016 112.806 185.524 112.806ZM92.4709 112.806L161.384 112.806C164.934 112.806 167.774 115.958 167.774 119.841C167.774 123.724 164.892 126.876 161.384 126.876L92.4296 126.876C88.8788 126.876 86.0391 123.724 86.0391 119.841C86.0393 117.976 86.7169 116.187 87.923 114.868C89.129 113.549 90.7648 112.807 92.4709 112.806ZM6.43372 112.806L69.9171 112.806C71.6048 112.837 73.2138 113.593 74.3971 114.908C75.5805 116.224 76.2436 117.996 76.2436 119.841C76.2436 121.686 75.5805 123.457 74.3971 124.773C73.2137 126.089 71.6048 126.844 69.9171 126.876L6.43372 126.876C4.72754 126.875 3.09156 126.133 1.88547 124.814C0.679357 123.495 0.00183594 121.706 0.00183609 119.841C0.0432182 115.958 2.88294 112.806 6.43372 112.806ZM6.43281 84.8008L295.201 84.8008C296.888 84.8324 298.497 85.5875 299.681 86.9033C300.864 88.2192 301.527 89.9906 301.527 91.8358C301.527 93.681 300.864 95.4524 299.681 96.7683C298.497 98.0841 296.888 98.8392 295.201 98.8708L6.43281 98.8707C4.72669 98.8694 3.09089 98.1276 1.88483 96.8085C0.678779 95.4893 0.00116679 93.7008 0.000922794 91.8358C0.043251 87.9533 2.88294 84.8008 6.43281 84.8008ZM136.282 56.7988L295.201 56.7988C296.888 56.8304 298.497 57.5854 299.681 58.9013C300.864 60.2172 301.527 61.9885 301.527 63.8338C301.527 65.679 300.864 67.4504 299.681 68.7663C298.497 70.0821 296.888 70.8372 295.201 70.8687L136.282 70.8687C134.595 70.8372 132.986 70.0821 131.802 68.7663C130.619 67.4504 129.956 65.679 129.956 63.8338C129.956 61.9885 130.619 60.2172 131.802 58.9013C132.986 57.5854 134.595 56.8304 136.282 56.7988ZM6.43281 56.7988L110.639 56.7988C112.327 56.8304 113.935 57.5854 115.119 58.9013C116.302 60.2172 116.965 61.9885 116.965 63.8338C116.965 65.679 116.302 67.4504 115.119 68.7662C113.935 70.0821 112.327 70.8372 110.639 70.8687L6.43281 70.8687C4.72669 70.8673 3.09089 70.1256 1.88484 68.8065C0.678781 67.4873 0.00116902 65.6987 0.000925029 63.8337C0.0432532 59.9502 2.88294 56.7988 6.43281 56.7988ZM201.813 28.841L295.201 28.841C296.888 28.8726 298.497 29.6276 299.681 30.9435C300.864 32.2594 301.527 34.0308 301.527 35.876C301.527 37.7212 300.864 39.4926 299.681 40.8085C298.497 42.1243 296.888 42.8794 295.201 42.9109L201.813 42.9109C200.106 42.9095 198.471 42.1678 197.265 40.8487C196.059 39.5295 195.381 37.741 195.381 35.876C195.422 31.9472 198.304 28.841 201.813 28.841ZM83.1975 28.841L176.543 28.841C178.231 28.8726 179.84 29.6276 181.023 30.9435C182.207 32.2594 182.87 34.0308 182.87 35.876C182.87 37.7212 182.207 39.4926 181.023 40.8084C179.84 42.1243 178.231 42.8794 176.543 42.9109L83.1561 42.9109C81.4499 42.9098 79.814 42.1682 78.6079 40.849C77.4018 39.5298 76.7242 37.741 76.7242 35.876C76.7656 31.9472 79.6477 28.841 83.1975 28.841ZM6.43373 28.841L60.6032 28.841C62.291 28.8726 63.8999 29.6276 65.0833 30.9435C66.2666 32.2593 66.9297 34.0307 66.9297 35.876C66.9297 37.7212 66.2666 39.4925 65.0833 40.8084C63.8999 42.1243 62.291 42.8793 60.6032 42.9109L6.43373 42.9109C4.72755 42.9098 3.09156 42.1682 1.88548 40.849C0.679363 39.5298 0.00184264 37.741 0.00184279 35.876C0.0432249 31.9472 2.88295 28.841 6.43373 28.841ZM164.976 0.836932L295.201 0.836944C296.888 0.868499 298.497 1.62353 299.681 2.93942C300.864 4.25529 301.527 6.02666 301.527 7.87189C301.527 9.7171 300.864 11.4885 299.681 12.8044C298.497 14.1203 296.888 14.8753 295.201 14.9068L164.976 14.9068C163.269 14.9057 161.634 14.1641 160.427 12.8449C159.221 11.5257 158.544 9.73694 158.544 7.87187C158.585 3.94312 161.425 0.836932 164.976 0.836932ZM6.43372 168.812L136.659 168.812C138.346 168.844 139.955 169.599 141.139 170.915C142.322 172.23 142.985 174.002 142.985 175.847C142.985 177.692 142.322 179.464 141.139 180.779C139.955 182.095 138.346 182.85 136.659 182.882L6.43372 182.882C4.7276 182.881 3.0918 182.139 1.88574 180.82C0.679718 179.501 0.00207561 177.712 0.00183162 175.847C0.0432138 171.963 2.88388 168.812 6.43372 168.812Z" fill="#14E1B7" fill-opacity="0.2"/>
</svg>
