<svg width="155" height="321" viewBox="0 0 155 321" fill="none" xmlns="http://www.w3.org/2000/svg">
<path d="M11.9699 175.393L11.9699 313.841C11.943 315.635 11.3007 317.346 10.1812 318.604C9.06173 319.862 7.55474 320.567 5.98493 320.567C4.41512 320.567 2.90813 319.862 1.78866 318.604C0.669184 317.346 0.0268361 315.635 -2.94003e-07 313.841L-6.34576e-06 175.393C0.00115286 173.579 0.632186 171.84 1.75443 170.558C2.87667 169.276 4.3983 168.555 5.98492 168.555C9.28879 168.599 11.9699 171.618 11.9699 175.393ZM35.7932 238.489L35.7932 313.841C35.7664 315.635 35.1241 317.346 34.0046 318.604C32.8851 319.862 31.3781 320.567 29.8083 320.567C28.2385 320.567 26.7315 319.862 25.612 318.604C24.4926 317.346 23.8502 315.635 23.8234 313.841L23.8234 238.489C23.8245 236.675 24.4556 234.936 25.5778 233.654C26.7001 232.372 28.2217 231.651 29.8083 231.651C33.1122 231.696 35.7932 234.715 35.7932 238.489ZM35.7932 6.83798L35.7932 210.736C35.7932 212.551 35.1627 214.291 34.0403 215.574C32.9179 216.857 31.3956 217.578 29.8083 217.578C28.221 217.578 26.6987 216.857 25.5763 215.574C24.4539 214.291 23.8234 212.551 23.8234 210.736L23.8234 6.83798C23.8245 5.02414 24.4556 3.28503 25.5778 2.00284C26.7 0.720641 28.2217 0.000303942 29.8083 2.92146e-05C33.1122 0.0450425 35.7932 3.06399 35.7932 6.83798ZM59.6166 197.239L59.6166 313.841C59.5898 315.635 58.9474 317.346 57.828 318.604C56.7085 319.862 55.2015 320.567 53.6317 320.567C52.0619 320.567 50.5549 319.862 49.4354 318.604C48.316 317.346 47.6736 315.635 47.6468 313.841L47.6468 197.239C47.6479 195.425 48.2789 193.686 49.4012 192.404C50.5234 191.122 52.0451 190.401 53.6317 190.401C56.9347 190.445 59.6166 193.509 59.6166 197.239ZM59.6166 98.31L59.6166 171.575C59.6166 175.349 56.9347 178.368 53.6317 178.368C50.3278 178.368 47.6468 175.304 47.6468 171.575L47.6467 98.266C47.6467 94.491 50.3278 91.472 53.6317 91.472C55.2183 91.4723 56.7399 92.1927 57.8622 93.4749C58.9844 94.7571 59.6155 96.4962 59.6166 98.31ZM59.6166 6.83999L59.6166 74.332C59.5898 76.1264 58.9474 77.8369 57.828 79.0949C56.7085 80.353 55.2015 81.058 53.6317 81.058C52.0619 81.058 50.5549 80.353 49.4354 79.0949C48.316 77.8369 47.6736 76.1264 47.6467 74.332L47.6467 6.83999C47.6477 5.02609 48.2786 3.2868 49.4009 2.00454C50.5232 0.722288 52.045 0.00198137 53.6317 0.0019813C56.9347 0.0459875 59.6166 3.065 59.6166 6.83999ZM83.4418 6.83902L83.4418 313.841C83.4149 315.635 82.7726 317.346 81.6531 318.604C80.5336 319.862 79.0266 320.567 77.4568 320.567C75.887 320.567 74.3801 319.862 73.2606 318.604C72.1411 317.346 71.4987 315.635 71.4719 313.841L71.4719 6.83902C71.473 5.02517 72.1041 3.28607 73.2263 2.00387C74.3486 0.721676 75.8702 0.00127842 77.4568 0.00100369C80.7598 0.046017 83.4418 3.06503 83.4418 6.83902ZM107.264 144.888L107.264 313.841C107.237 315.635 106.595 317.346 105.476 318.604C104.356 319.862 102.849 320.567 101.279 320.567C99.7095 320.567 98.2025 319.862 97.0831 318.604C95.9636 317.346 95.3213 315.635 95.2944 313.841L95.2944 144.888C95.3212 143.094 95.9636 141.383 97.0831 140.125C98.2025 138.867 99.7095 138.162 101.279 138.162C102.849 138.162 104.356 138.867 105.476 140.125C106.595 141.383 107.237 143.094 107.264 144.888ZM107.264 6.83902L107.264 117.625C107.237 119.419 106.595 121.13 105.476 122.388C104.356 123.646 102.849 124.351 101.279 124.351C99.7095 124.351 98.2025 123.646 97.0831 122.388C95.9636 121.13 95.3212 119.419 95.2944 117.625L95.2944 6.83902C95.2956 5.02517 95.9266 3.28607 97.0488 2.00387C98.1711 0.721675 99.6927 0.00127738 101.279 0.00100265C104.583 0.0460159 107.264 3.06503 107.264 6.83902ZM131.049 214.556L131.049 313.841C131.022 315.635 130.38 317.346 129.261 318.604C128.141 319.862 126.634 320.567 125.064 320.567C123.494 320.567 121.987 319.862 120.868 318.604C119.749 317.346 119.106 315.635 119.079 313.841L119.079 214.556C119.08 212.742 119.712 211.003 120.834 209.721C121.956 208.439 123.478 207.718 125.064 207.718C128.407 207.762 131.049 210.826 131.049 214.556ZM131.049 88.451L131.049 187.691C131.022 189.485 130.38 191.196 129.261 192.454C128.141 193.712 126.634 194.417 125.064 194.417C123.494 194.417 121.987 193.712 120.868 192.454C119.748 191.196 119.106 189.485 119.079 187.691L119.079 88.407C119.08 86.5931 119.711 84.8538 120.833 83.5716C121.956 82.2893 123.478 81.569 125.064 81.569C128.407 81.613 131.049 84.677 131.049 88.451ZM131.049 6.83999L131.049 64.43C131.022 66.2244 130.38 67.9349 129.261 69.193C128.141 70.451 126.634 71.156 125.064 71.156C123.494 71.156 121.987 70.451 120.868 69.193C119.748 67.9349 119.106 66.2244 119.079 64.43L119.079 6.83999C119.08 5.02609 119.711 3.2868 120.833 2.00454C121.956 0.722285 123.478 0.00197825 125.064 0.00197818C128.407 0.0459844 131.049 3.065 131.049 6.83999ZM154.873 175.393L154.873 313.841C154.847 315.635 154.204 317.346 153.085 318.604C151.965 319.862 150.458 320.567 148.889 320.567C147.319 320.567 145.812 319.862 144.692 318.604C143.573 317.346 142.93 315.635 142.904 313.841L142.904 175.393C142.905 173.579 143.535 171.84 144.658 170.558C145.78 169.275 147.302 168.555 148.889 168.555C152.231 168.599 154.873 171.618 154.873 175.393ZM11.9699 6.84L11.9699 145.288C11.943 147.082 11.3007 148.793 10.1812 150.051C9.06172 151.309 7.55473 152.014 5.98492 152.014C4.41511 152.014 2.90812 151.309 1.78865 150.051C0.669177 148.793 0.0268288 147.082 -7.66169e-06 145.288L-1.37134e-05 6.84C0.0011455 5.02615 0.632178 3.28705 1.75442 2.00485C2.87666 0.722656 4.39829 0.00225811 5.98491 0.00198338C9.28878 0.0459896 11.9699 3.06601 11.9699 6.84Z" fill="#14E1B7" fill-opacity="0.2"/>
</svg>
