<svg width="116" height="116" viewBox="0 0 116 116" fill="none" xmlns="http://www.w3.org/2000/svg">
<path d="M108.267 15.4666V19.3332C109.292 19.3332 110.276 19.7406 111.001 20.4657C111.726 21.1909 112.133 22.1744 112.133 23.1999V81.1999H3.86667V23.1999C3.86667 22.1744 4.27405 21.1909 4.99919 20.4657C5.72433 19.7406 6.70783 19.3332 7.73333 19.3332V15.4666C5.68233 15.4666 3.71532 16.2813 2.26504 17.7316C0.81476 19.1819 0 21.1489 0 23.1999V88.9332C0 90.9842 0.81476 92.9512 2.26504 94.4015C3.71532 95.8518 5.68233 96.6665 7.73333 96.6665H45.7349L41.0949 112.133H36.7333V116H79.2667V112.133H74.9051L70.2651 96.6665H108.267C110.318 96.6665 112.285 95.8518 113.735 94.4015C115.185 92.9512 116 90.9842 116 88.9332V23.1999C116 21.1489 115.185 19.1819 113.735 17.7316C112.285 16.2813 110.318 15.4666 108.267 15.4666ZM70.8683 112.133H45.1317L49.7717 96.6665H66.2283L70.8683 112.133ZM112.133 88.9332C112.133 89.9587 111.726 90.9422 111.001 91.6674C110.276 92.3925 109.292 92.7999 108.267 92.7999H7.73333C6.70783 92.7999 5.72433 92.3925 4.99919 91.6674C4.27405 90.9422 3.86667 89.9587 3.86667 88.9332V85.0665H112.133V88.9332Z" fill="black"/>
<path d="M19.3334 77.3333H96.6668C98.7178 77.3333 100.685 76.5186 102.135 75.0683C103.585 73.618 104.4 71.651 104.4 69.6V7.73333C104.4 5.68233 103.585 3.71532 102.135 2.26504C100.685 0.81476 98.7178 0 96.6668 0H19.3334C17.2824 0 15.3154 0.81476 13.8651 2.26504C12.4149 3.71532 11.6001 5.68233 11.6001 7.73333V69.6C11.6001 71.651 12.4149 73.618 13.8651 75.0683C15.3154 76.5186 17.2824 77.3333 19.3334 77.3333ZM15.4668 7.73333C15.4668 6.70783 15.8741 5.72433 16.5993 4.99919C17.3244 4.27405 18.3079 3.86667 19.3334 3.86667H96.6668C97.6923 3.86667 98.6758 4.27405 99.4009 4.99919C100.126 5.72433 100.533 6.70783 100.533 7.73333V69.6C100.533 70.6255 100.126 71.609 99.4009 72.3341C98.6758 73.0593 97.6923 73.4667 96.6668 73.4667H19.3334C18.3079 73.4667 17.3244 73.0593 16.5993 72.3341C15.8741 71.609 15.4668 70.6255 15.4668 69.6V7.73333Z" fill="black"/>
<path d="M96.6666 15.4666H19.3333V19.3332H96.6666V15.4666Z" fill="black"/>
<path d="M36.7332 25.1333H19.3333V29H36.7332V25.1333Z" fill="black"/>
<path d="M32.8666 32.8667H19.3333V36.7334H32.8666V32.8667Z" fill="black"/>
<path d="M30.9333 40.6001H19.3333V44.4668H30.9333V40.6001Z" fill="black"/>
<path d="M30.9333 48.3333H19.3333V52.1999H30.9333V48.3333Z" fill="black"/>
<path d="M30.9333 56.0667H19.3333V59.9333H30.9333V56.0667Z" fill="black"/>
<path d="M36.7332 63.8H19.3333V67.6667H36.7332V63.8Z" fill="black"/>
<path d="M96.6666 25.1333H79.2666V29H96.6666V25.1333Z" fill="black"/>
<path d="M96.6666 32.8667H83.1333V36.7334H96.6666V32.8667Z" fill="black"/>
<path d="M96.6666 40.6001H85.0667V44.4668H96.6666V40.6001Z" fill="black"/>
<path d="M96.6666 48.3333H85.0667V52.1999H96.6666V48.3333Z" fill="black"/>
<path d="M96.6666 56.0667H85.0667V59.9333H96.6666V56.0667Z" fill="black"/>
<path d="M96.6666 63.8H79.2666V67.6667H96.6666V63.8Z" fill="black"/>
<path d="M23.1999 7.7334H19.3333V11.6001H23.1999V7.7334Z" fill="black"/>
<path d="M30.9333 7.7334H27.0667V11.6001H30.9333V7.7334Z" fill="black"/>
<path d="M38.6667 7.7334H34.8V11.6001H38.6667V7.7334Z" fill="black"/>
<path d="M73.691 53.8877C73.9528 53.3374 74.1864 52.7741 74.3909 52.1999H79.2667C79.7795 52.1999 80.2712 51.9963 80.6338 51.6337C80.9964 51.2711 81.2 50.7794 81.2 50.2666V42.5333C81.2 42.0205 80.9964 41.5288 80.6338 41.1662C80.2712 40.8036 79.7795 40.5999 79.2667 40.5999H74.3909C74.1864 40.0258 73.9528 39.4625 73.691 38.9121L77.14 35.4631C77.5025 35.1005 77.7061 34.6089 77.7061 34.0962C77.7061 33.5836 77.5025 33.0919 77.14 32.7294L71.6706 27.26C71.3081 26.8975 70.8164 26.6939 70.3038 26.6939C69.7911 26.6939 69.2995 26.8975 68.9369 27.26L65.4879 30.7071C64.9375 30.4459 64.3741 30.2129 63.8 30.0091V25.1333C63.8 24.6205 63.5964 24.1288 63.2338 23.7662C62.8712 23.4036 62.3795 23.2 61.8667 23.2H54.1334C53.6206 23.2 53.1289 23.4036 52.7663 23.7662C52.4037 24.1288 52.2 24.6205 52.2 25.1333V30.0091C51.6259 30.2136 51.0626 30.4472 50.5122 30.709L47.0632 27.26C46.7006 26.8975 46.209 26.6939 45.6963 26.6939C45.1837 26.6939 44.692 26.8975 44.3295 27.26L38.86 32.7294C38.4976 33.0919 38.294 33.5836 38.294 34.0962C38.294 34.6089 38.4976 35.1005 38.86 35.4631L42.3072 38.9121C42.0453 39.4625 41.8117 40.0258 41.6073 40.5999H36.7334C36.2206 40.5999 35.7289 40.8036 35.3663 41.1662C35.0037 41.5288 34.8 42.0205 34.8 42.5333V50.2666C34.8 50.7794 35.0037 51.2711 35.3663 51.6337C35.7289 51.9963 36.2206 52.1999 36.7334 52.1999H41.6092C41.8137 52.7741 42.0473 53.3374 42.3091 53.8877L38.86 57.3368C38.4976 57.6994 38.294 58.191 38.294 58.7037C38.294 59.2163 38.4976 59.708 38.86 60.0705L44.3295 65.5399C44.692 65.9024 45.1837 66.106 45.6963 66.106C46.209 66.106 46.7006 65.9024 47.0632 65.5399L50.5122 62.0928C51.0626 62.3547 51.6259 62.5882 52.2 62.7927V67.6666C52.2 68.1794 52.4037 68.6711 52.7663 69.0337C53.1289 69.3963 53.6206 69.5999 54.1334 69.5999H61.8667C62.3795 69.5999 62.8712 69.3963 63.2338 69.0337C63.5964 68.6711 63.8 68.1794 63.8 67.6666V62.7907C64.3742 62.5863 64.9375 62.3527 65.4879 62.0909L68.9369 65.5399C69.2995 65.9024 69.7911 66.106 70.3038 66.106C70.8164 66.106 71.3081 65.9024 71.6706 65.5399L77.14 60.0705C77.5025 59.708 77.7061 59.2163 77.7061 58.7037C77.7061 58.191 77.5025 57.6994 77.14 57.3368L73.691 53.8877ZM70.3038 61.4277L67.2104 58.3344C66.9072 58.031 66.5116 57.837 66.0859 57.7831C65.6603 57.7292 65.2289 57.8184 64.8595 58.0367C63.7723 58.6766 62.601 59.1614 61.3795 59.477C60.9646 59.5841 60.597 59.8261 60.3346 60.1648C60.0721 60.5036 59.9296 60.9199 59.9295 61.3485V65.7333H56.0667V61.3601C56.0666 60.9315 55.9241 60.5152 55.6617 60.1764C55.3992 59.8377 55.0316 59.5957 54.6167 59.4886C53.3953 59.173 52.2239 58.6882 51.1367 58.0483C50.7674 57.83 50.3359 57.7408 49.9103 57.7947C49.4847 57.8486 49.0891 58.0426 48.7858 58.346L45.6924 61.4393L42.9587 58.7056L46.052 55.6123C46.3555 55.309 46.5494 54.9134 46.6033 54.4878C46.6572 54.0622 46.568 53.6307 46.3498 53.2613C45.7098 52.1741 45.225 51.0028 44.9094 49.7813C44.8023 49.3664 44.5604 48.9989 44.2216 48.7364C43.8829 48.4739 43.4665 48.3315 43.038 48.3313H38.6667V44.4666H43.0399C43.4684 44.4665 43.8848 44.324 44.2235 44.0616C44.5623 43.7991 44.8042 43.4315 44.9114 43.0166C45.2269 41.7952 45.7118 40.6238 46.3517 39.5366C46.57 39.1673 46.6592 38.7358 46.6053 38.3102C46.5514 37.8846 46.3574 37.489 46.054 37.1857L42.9606 34.0924L45.6944 31.3586L48.7877 34.4519C49.091 34.7554 49.4866 34.9493 49.9122 35.0032C50.3378 35.0571 50.7693 34.9679 51.1386 34.7497C52.2258 34.1097 53.3972 33.6249 54.6186 33.3093C55.0336 33.2022 55.4011 32.9603 55.6636 32.6215C55.9261 32.2828 56.0685 31.8664 56.0686 31.4379V27.0666H59.9353V31.4398C59.9354 31.8683 60.0779 32.2847 60.3404 32.6234C60.6028 32.9622 60.9704 33.2041 61.3853 33.3113C62.6068 33.6268 63.7781 34.1117 64.8653 34.7516C65.2347 34.9699 65.6661 35.0591 66.0917 35.0052C66.5174 34.9513 66.913 34.7573 67.2162 34.4539L70.3096 31.3606L73.0433 34.0943L69.95 37.1876C69.6465 37.4909 69.4526 37.8865 69.3987 38.3121C69.3448 38.7377 69.434 39.1692 69.6522 39.5385C70.2922 40.6257 70.777 41.7971 71.0926 43.0185C71.1997 43.4335 71.4417 43.801 71.7804 44.0635C72.1192 44.326 72.5355 44.4684 72.9641 44.4685H77.3334V48.3352H72.9602C72.5316 48.3353 72.1153 48.4778 71.7765 48.7403C71.4378 49.0027 71.1958 49.3703 71.0887 49.7852C70.7732 51.0067 70.2883 52.178 69.6484 53.2652C69.4301 53.6346 69.3409 54.066 69.3948 54.4916C69.4487 54.9173 69.6427 55.3129 69.9461 55.6161L73.0394 58.7095L70.3038 61.4277Z" fill="black"/>
<path d="M57.9999 36.7334C56.088 36.7334 54.2191 37.3003 52.6294 38.3625C51.0397 39.4247 49.8007 40.9344 49.0691 42.7008C48.3374 44.4671 48.146 46.4108 48.519 48.2859C48.892 50.1611 49.8127 51.8835 51.1646 53.2354C52.5165 54.5874 54.2389 55.508 56.1141 55.881C57.9892 56.254 59.9329 56.0626 61.6992 55.3309C63.4656 54.5993 64.9753 53.3603 66.0375 51.7706C67.0997 50.1809 67.6666 48.312 67.6666 46.4001C67.6635 43.8373 66.6441 41.3803 64.8319 39.5681C63.0197 37.7559 60.5627 36.7365 57.9999 36.7334ZM57.9999 52.2001C56.8528 52.2001 55.7314 51.8599 54.7776 51.2226C53.8238 50.5853 53.0804 49.6795 52.6414 48.6196C52.2024 47.5598 52.0876 46.3936 52.3114 45.2685C52.5352 44.1435 53.0876 43.11 53.8987 42.2988C54.7099 41.4877 55.7433 40.9353 56.8684 40.7115C57.9935 40.4877 59.1597 40.6026 60.2195 41.0416C61.2793 41.4806 62.1851 42.224 62.8225 43.1778C63.4598 44.1316 63.7999 45.2529 63.7999 46.4001C63.7999 47.9383 63.1889 49.4136 62.1011 50.5013C61.0134 51.589 59.5382 52.2001 57.9999 52.2001Z" fill="black"/>
</svg>
