<svg width="116" height="99" viewBox="0 0 116 99" fill="none" xmlns="http://www.w3.org/2000/svg">
<path d="M114.067 55.9221H98.6001C98.0873 55.9221 97.5956 56.0954 97.233 56.4039C96.8704 56.7123 96.6667 57.1307 96.6667 57.5669V70.6083L85.7705 61.3384C85.4011 61.0412 84.912 60.8756 84.4036 60.8756C83.8952 60.8756 83.4061 61.0412 83.0367 61.3384L72.0999 70.6429C71.7374 70.9513 71.5338 71.3696 71.5338 71.8057C71.5338 72.2419 71.7374 72.6601 72.0999 72.9686L82.9961 82.2385H67.6667C67.154 82.2385 66.6622 82.4118 66.2997 82.7203C65.9371 83.0287 65.7334 83.4471 65.7334 83.8833V97.0415C65.7334 97.4777 65.9371 97.8961 66.2997 98.2045C66.6622 98.513 67.154 98.6863 67.6667 98.6863H106.333C108.896 98.6837 111.353 97.8164 113.165 96.2747C114.978 94.733 115.997 92.6427 116 90.4624V57.5669C116 57.1307 115.796 56.7123 115.434 56.4039C115.071 56.0954 114.579 55.9221 114.067 55.9221ZM81.2001 95.3967H69.6001V85.5281H81.2001V95.3967ZM96.6667 75.2597V89.2173L87.1373 81.1102L95.3405 74.1314L96.6667 75.2597ZM76.2005 71.8057L84.4036 64.8269L92.6067 71.8057L84.4036 78.7845L76.2005 71.8057ZM85.0667 95.3967V85.5281H86.8628L98.4628 95.3967H85.0667ZM112.133 90.4624C112.133 91.7711 111.522 93.0261 110.435 93.9515C109.347 94.8769 107.872 95.3967 106.333 95.3967H106.32V95.3507C105.559 95.3632 104.803 95.2442 104.098 95.0008C103.393 94.7573 102.753 94.3946 102.217 93.9345C101.138 93.0124 100.532 91.7638 100.533 90.4624V85.5281H112.133V90.4624ZM112.133 82.2385H100.533V72.3699H112.133V82.2385ZM112.133 69.0803H100.533V59.2117H112.133V69.0803Z" fill="black"/>
<path d="M108.267 88.8179H104.4V92.1074H108.267V88.8179Z" fill="black"/>
<path d="M67.6667 70.7253H58V74.0146H67.6667V70.7253Z" fill="black"/>
<path d="M108.267 0H23.1999C21.1489 0 19.1819 0.693152 17.7316 1.92697C16.2813 3.16079 15.4666 4.8342 15.4666 6.57909V44.4088H19.3332V6.57909C19.3332 5.70665 19.7406 4.86994 20.4657 4.25303C21.1909 3.63612 22.1744 3.28954 23.1999 3.28954H108.267C109.292 3.28954 110.276 3.63612 111.001 4.25303C111.726 4.86994 112.133 5.70665 112.133 6.57909V52.6327H116V6.57909C116 4.8342 115.185 3.16079 113.735 1.92697C112.285 0.693152 110.318 0 108.267 0Z" fill="black"/>
<path d="M27.0666 6.5791H23.2V9.86865H27.0666V6.5791Z" fill="black"/>
<path d="M34.8 6.5791H30.9333V9.86865H34.8V6.5791Z" fill="black"/>
<path d="M42.5334 6.5791H38.6667V9.86865H42.5334V6.5791Z" fill="black"/>
<path d="M108.267 13.1582H23.2V16.4475H108.267V13.1582Z" fill="black"/>
<path d="M108.267 46.0535H90.8667V49.3433H108.267V46.0535Z" fill="black"/>
<path d="M92.8 54.2773H58V57.5669H92.8V54.2773Z" fill="black"/>
<path d="M100.533 29.606H79.2666V32.8956H100.533V29.606Z" fill="black"/>
<path d="M94.7333 21.3821H79.2666V24.6716H94.7333V21.3821Z" fill="black"/>
<path d="M108.267 21.3821H98.6001V24.6716H108.267V21.3821Z" fill="black"/>
<path d="M108.267 29.606H104.4V32.8956H108.267V29.606Z" fill="black"/>
<path d="M108.267 37.8296H79.2666V41.1191H108.267V37.8296Z" fill="black"/>
<path d="M87.0001 46.0535H69.6001V49.3433H87.0001V46.0535Z" fill="black"/>
<path d="M73.4667 62.5015H58V65.7909H73.4667V62.5015Z" fill="black"/>
<path d="M65.7334 36.185V39.4745C65.7334 39.9107 65.5297 40.3291 65.1671 40.6375C64.8045 40.946 64.3128 41.1193 63.8 41.1193H59.9333V44.4088H63.8C65.3383 44.4088 66.8135 43.889 67.9012 42.9636C68.9889 42.0382 69.6 40.7832 69.6 39.4745V36.8659L72.9002 34.0583C73.2627 33.7499 73.4663 33.3316 73.4663 32.8954C73.4663 32.4593 73.2627 32.041 72.9002 31.7326L69.6 28.925V26.3164C69.6 25.0077 68.9889 23.7527 67.9012 22.8273C66.8135 21.9019 65.3383 21.3821 63.8 21.3821H59.9333V24.6716H63.8C64.3128 24.6716 64.8045 24.8449 65.1671 25.1534C65.5297 25.4618 65.7334 25.8802 65.7334 26.3164V29.6059C65.7335 30.0421 65.9372 30.4604 66.2998 30.7688L68.7996 32.8954L66.2998 35.0221C65.9372 35.3305 65.7335 35.7488 65.7334 36.185Z" fill="black"/>
<path d="M34.8001 29.6059V26.3164C34.8001 25.8802 35.0038 25.4618 35.3663 25.1534C35.7289 24.8449 36.2206 24.6716 36.7334 24.6716H40.6001V21.3821H36.7334C35.1951 21.3821 33.7199 21.9019 32.6322 22.8273C31.5445 23.7527 30.9334 25.0077 30.9334 26.3164V28.925L27.6332 31.7326C27.2707 32.041 27.0671 32.4593 27.0671 32.8954C27.0671 33.3316 27.2707 33.7499 27.6332 34.0583L30.9334 36.8659V39.4745C30.9334 40.7832 31.5445 42.0382 32.6322 42.9636C33.7199 43.889 35.1951 44.4088 36.7334 44.4088H40.6001V41.1193H36.7334C36.2206 41.1193 35.7289 40.946 35.3663 40.6375C35.0038 40.3291 34.8001 39.9107 34.8001 39.4745V36.185C34.8 35.7488 34.5962 35.3305 34.2336 35.0221L31.7338 32.8954L34.2336 30.7688C34.5962 30.4604 34.8 30.0421 34.8001 29.6059Z" fill="black"/>
<path d="M44.4668 34.54H40.6001V37.8296H44.4668V34.54Z" fill="black"/>
<path d="M52.1999 34.54H48.3333V37.8296H52.1999V34.54Z" fill="black"/>
<path d="M59.9333 34.54H56.0667V37.8296H59.9333V34.54Z" fill="black"/>
<path d="M5.8 98.6864H48.3333C49.8716 98.6864 51.3468 98.1665 52.4346 97.2412C53.5223 96.3158 54.1333 95.0607 54.1333 93.7521V52.6328C54.1333 51.3241 53.5223 50.0691 52.4346 49.1437C51.3468 48.2183 49.8716 47.6985 48.3333 47.6985H5.8C4.26174 47.6985 2.78649 48.2183 1.69878 49.1437C0.61107 50.0691 0 51.3241 0 52.6328V93.7521C0 95.0607 0.61107 96.3158 1.69878 97.2412C2.78649 98.1665 4.26174 98.6864 5.8 98.6864ZM50.2667 93.7521C50.2667 94.1883 50.063 94.6067 49.7004 94.9151C49.3378 95.2236 48.8461 95.3969 48.3333 95.3969H19.3333V64.1462H50.2667V93.7521ZM3.86667 52.6328C3.86667 52.1966 4.07036 51.7782 4.43293 51.4698C4.7955 51.1613 5.28725 50.988 5.8 50.988H48.3333C48.8461 50.988 49.3378 51.1613 49.7004 51.4698C50.063 51.7782 50.2667 52.1966 50.2667 52.6328V60.8567H3.86667V52.6328ZM3.86667 64.1462H15.4667V95.3969H5.8C5.28725 95.3969 4.7955 95.2236 4.43293 94.9151C4.07036 94.6067 3.86667 94.1883 3.86667 93.7521V64.1462Z" fill="black"/>
</svg>
