<svg width="32" height="30" viewBox="0 0 32 30" fill="none" xmlns="http://www.w3.org/2000/svg">
<path d="M27.1182 1.01325L1.67725 25.6182C0.750929 26.5141 0.75094 27.9666 1.67726 28.8625C2.60359 29.7584 4.10546 29.7584 5.03178 28.8625L30.4728 4.25754C31.3991 3.36166 31.3991 1.90914 30.4728 1.01326C29.5464 0.117377 28.0446 0.117366 27.1182 1.01325Z" fill="#14E1B7" fill-opacity="0.2"/>
<path d="M8.62604 1.63087L1.28907 8.72664C0.362748 9.62251 0.362759 11.075 1.28909 11.9709C2.21541 12.8668 3.71729 12.8668 4.64361 11.9709L11.9806 4.87513C12.9069 3.97926 12.9069 2.52676 11.9806 1.63088C11.0542 0.735009 9.55237 0.734999 8.62604 1.63087Z" fill="#14E1B7" fill-opacity="0.2"/>
</svg>
