<svg width="631" height="545" viewBox="0 0 631 545" fill="none" xmlns="http://www.w3.org/2000/svg">
<path d="M112.038 355.989L65.2737 443.554M16.3583 347.353L108.039 354.838C109.441 354.951 110.763 355.333 111.93 355.962C113.096 356.59 114.084 357.452 114.836 358.499L164.053 426.936L16.3583 347.353ZM211.921 333.091L292.362 275.243C293.592 274.357 294.959 273.687 296.383 273.27C297.808 272.853 299.263 272.697 300.665 272.812L392.349 280.297L211.921 333.091ZM392.326 280.11L472.766 222.262C473.996 221.377 475.363 220.706 476.788 220.289C478.212 219.872 479.668 219.716 481.07 219.831L572.753 227.316L392.326 280.11ZM530.351 164.403L564.713 169.458C565.238 169.536 565.79 169.511 566.338 169.385C566.886 169.259 567.419 169.034 567.906 168.723L599.75 148.387L530.351 164.403ZM164.737 267.481L245.178 209.633C246.408 208.747 247.775 208.077 249.199 207.66C250.624 207.242 252.079 207.087 253.482 207.201L345.165 214.687L164.737 267.481ZM345.143 214.5L425.584 156.651C426.814 155.766 428.18 155.095 429.605 154.678C431.029 154.261 432.484 154.105 433.887 154.22L525.57 161.706L345.143 214.5Z" stroke="#14E1B7" stroke-opacity="0.2" stroke-width="4" stroke-linecap="round" stroke-linejoin="round"/>
</svg>
