<svg width="528" height="262" viewBox="0 0 528 262" fill="none" xmlns="http://www.w3.org/2000/svg">
<path d="M452.297 187.541L525.659 134.949M518.57 259.74L454.714 191.315C453.737 190.269 452.939 189.02 452.364 187.639C451.79 186.258 451.451 184.773 451.366 183.268L445.842 84.8576L518.57 259.74ZM368.868 142.724L284.087 144.362C282.791 144.388 281.49 144.117 280.26 143.565C279.029 143.012 277.893 142.189 276.917 141.142L213.06 72.7145L368.868 142.724ZM212.993 72.9087L128.213 74.5468C126.917 74.5726 125.616 74.3015 124.385 73.749C123.155 73.1964 122.019 72.3733 121.042 71.3267L57.1848 2.89896L212.993 72.9087ZM60.1805 91.4671L37.2523 63.6673C36.9021 63.2417 36.4861 62.8964 36.0281 62.6512C35.5702 62.406 35.0793 62.2657 34.5835 62.2384L2.16647 60.4308L60.1805 91.4671ZM374.165 237.069L289.384 238.707C288.088 238.733 286.787 238.462 285.556 237.91C284.326 237.357 283.19 236.534 282.213 235.487L218.356 167.06L374.165 237.069ZM218.289 167.254L133.509 168.892C132.212 168.918 130.911 168.646 129.681 168.094C128.451 167.541 127.315 166.718 126.338 165.672L62.4809 97.244L218.289 167.254Z" stroke="#14E1B7" stroke-opacity="0.2" stroke-width="4" stroke-linecap="round" stroke-linejoin="round"/>
</svg>
