<svg width="461" height="415" viewBox="0 0 461 415" fill="none" xmlns="http://www.w3.org/2000/svg">
<path d="M98.8714 325.33L107.2 412.88M2.89309 347.489L94.3841 325.596C95.7832 325.261 97.2676 325.174 98.7523 325.341C100.237 325.508 101.693 325.925 103.037 326.57L190.921 368.662L2.89309 347.489ZM179.861 275.524L221.369 202.474C222.003 201.356 222.896 200.376 223.997 199.59C225.097 198.804 226.384 198.227 227.784 197.892L319.278 176L179.861 275.524ZM319.144 175.85L360.652 102.8C361.286 101.682 362.179 100.702 363.28 99.9163C364.381 99.1301 365.668 98.553 367.067 98.2182L458.561 76.3253L319.144 175.85ZM380.468 36.7581L416.112 30.4338C416.658 30.3376 417.167 30.1472 417.611 29.8734C418.054 29.5996 418.424 29.2478 418.699 28.8383L436.675 2.06373L380.468 36.7581ZM95.6071 235.172L137.115 162.121C137.75 161.003 138.642 160.023 139.743 159.237C140.844 158.451 142.131 157.874 143.53 157.539L235.025 135.646L95.6071 235.172ZM234.891 135.497L276.399 62.4458C277.033 61.3283 277.926 60.3485 279.027 59.5624C280.128 58.7763 281.414 58.1994 282.814 57.8646L374.308 35.9718L234.891 135.497Z" stroke="#14E1B7" stroke-opacity="0.2" stroke-width="4" stroke-linecap="round" stroke-linejoin="round"/>
</svg>
